<?xml version="1.0" encoding="UTF-8"?>
<svg id="_图层_2" data-name="图层 2" xmlns="http://www.w3.org/2000/svg" viewBox="0 0 281.87 287.14">
  <defs>
    <style>
      .cls-1 {
        fill: #423f42;
      }

      .cls-1, .cls-2, .cls-3 {
        stroke-width: 0px;
      }

      .cls-3 {
        fill: #fff32d;
      }
    </style>
  </defs>
  <g id="_borad_arcana" data-name="【borad】arcana">
    <g id="ARCNA_10_star" data-name="ARCNA 10 star">
      <g id="_10" data-name="10">
        <path class="cls-1" d="m271.34,18L212.34,0l-53.32,20.54,1.58-10.6L56.34,27l-20,34L0,76.2l1.28,55.27,48-15.32c1.83-.54,9.5-5.01,13.28-5.87l1.28,30.38.51,8.68,59.65-9.65,109.37,20.31,1.98,110s23.29-35.98,24-36l7-16,15.53-138.36-10.53-61.64Z"/>
        <g>
          <path class="cls-3" d="m170.62,270c-13.06,0-23.96-4.99-32.4-14.83-26.31-30.66-19.69-95.5-15.63-121.95,11.27-73.31,41.28-113.68,84.5-113.68.83,0,1.66.01,2.49.04,15.25.54,27.5,6.29,36.42,17.06,17.59,21.25,21.97,61.52,13.03,119.69-11.04,71.81-41.84,112.17-86.72,113.64-.57.02-1.14.03-1.7.03Z"/>
          <path class="cls-2" d="m207.09,23.53c.78,0,1.56.01,2.35.04,51.13,1.82,55.93,65.22,45.65,132.15-10.29,66.94-38.18,108.78-82.9,110.25-.53.02-1.05.03-1.57.03-45.35,0-54.25-66-44.08-132.18,10.11-65.77,36.7-110.29,80.55-110.29m0-8v8-8c-12.16,0-23.5,3.06-33.73,9.09-9.63,5.68-18.31,14.04-25.78,24.84-13.8,19.93-23.54,47.91-28.95,83.15-3.96,25.74-4.91,50.28-2.75,70.96,2.5,23.95,8.99,42.19,19.3,54.2,9.24,10.77,21.16,16.23,35.43,16.23.6,0,1.22-.01,1.83-.03,47.03-1.54,79.18-43.11,90.55-117.03,9.12-59.35,4.44-100.68-13.91-122.85-9.68-11.7-22.92-17.92-39.36-18.51-.88-.03-1.76-.05-2.63-.05h0Z"/>
        </g>
        <path class="cls-2" d="m180.05,144.36c-1.65,25.51.07,46.91,7.16,46.97s11.48-19.91,13.13-45.42c1.65-25.51,1.11-46.88-7.16-46.97-5.62-.06-11.48,19.91-13.13,45.42Z"/>
        <g>
          <path class="cls-3" d="m37.37,276.55c5.11-45.04,12.61-115.83,13.32-134.29-4.8,1.31-10.49,2.6-15.67,3.78-4.66,1.06-9.06,2.06-11.53,2.79l-5.48,1.63,3.48-58.02,2.08-1.03c18.32-9.09,34.28-18.38,44.14-40.07l.87-1.92,64.37-11.29-26.96,229.18-69.24,14.76.63-5.52Z"/>
          <path class="cls-2" d="m128.34,43l-26,221-61,13s15.89-140,13.03-140.01c-.01,0-.02,0-.03,0-8.82,2.94-25.64,6.11-32,8l3-50c20.57-10.21,36-20,46-42l57-10m9.2-9.74l-10.58,1.86-57,10-4.15.73-1.75,3.84c-8.51,18.73-20.92,27.54-42.27,38.14l-4.15,2.06-.28,4.63-3,50-.68,11.41,10.95-3.26c2.35-.7,6.68-1.68,11.28-2.73,3.41-.77,7.04-1.6,10.5-2.45-1.57,23.89-8.34,87.46-13.01,128.6l-1.25,11.04,10.87-2.32,61-13,5.61-1.2.67-5.69,26-221,1.26-10.67h0Z"/>
        </g>
      </g>
    </g>
  </g>
</svg>