<?xml version="1.0" encoding="UTF-8"?>
<svg id="_图层_2" data-name="图层 2" xmlns="http://www.w3.org/2000/svg" viewBox="0 0 967.05 390.04">
  <defs>
    <style>
      .cls-1, .cls-2 {
        letter-spacing: -.01em;
      }

      .cls-3 {
        fill: #ffda02;
      }

      .cls-3, .cls-4, .cls-5, .cls-6 {
        stroke-width: 0px;
      }

      .cls-4 {
        fill: #423f42;
      }

      .cls-7 {
        font-size: 102px;
        letter-spacing: -.01em;
      }

      .cls-7, .cls-6 {
        fill: #fff32d;
      }

      .cls-7, .cls-8, .cls-2 {
        font-family: NotoSansSC-Bold, 'Noto Sans SC';
        font-variation-settings: 'wght' 700;
        font-weight: 700;
      }

      .cls-8, .cls-2 {
        fill: #fff;
        font-size: 41.53px;
      }

      .cls-9 {
        letter-spacing: -.03em;
      }
    </style>
  </defs>
  <g id="_borad_arcana" data-name="【borad】arcana">
    <polygon id="grey" class="cls-4" points="819.05 285 820.05 234 827.05 218 842.59 80.37 832.05 18 773.05 0 717.99 21.42 722.05 10 617.05 27 597.05 61 560.71 76.2 560.71 116.69 514.25 132.23 514.25 69.62 0 258.72 69.16 381.17 142.99 365.85 143.05 390 329.05 365 819.05 285"/>
    <polygon id="black10max" class="cls-5" points="519.05 318 796.05 270 789.05 72 574.5 127.3 465.05 160 462.16 130.16 29.14 265.5 61.05 360 172.87 340.57 179.64 374.79 519.05 318"/>
    <g id="ARCNA_10_star" data-name="ARCNA 10 star">
      <text class="cls-8" transform="translate(480.91 259.26) rotate(-16.45) scale(.89 .94) skewX(-20.3)"><tspan class="cls-9" x="0" y="0">R</tspan><tspan class="cls-1" x="27.2" y="0">ANK</tspan></text>
      <g id="_10" data-name="10">
        <g>
          <path class="cls-6" d="m731.33,270c-13.06,0-23.96-4.99-32.4-14.83-26.31-30.66-19.69-95.5-15.63-121.95,11.27-73.31,41.28-113.68,84.5-113.68.83,0,1.66.01,2.49.04,15.25.54,27.5,6.29,36.42,17.06,17.59,21.25,21.97,61.52,13.03,119.69-11.04,71.81-41.84,112.17-86.72,113.64-.57.02-1.14.03-1.7.03Z"/>
          <path class="cls-5" d="m767.8,23.53c.78,0,1.56.01,2.35.04,51.13,1.82,55.93,65.22,45.65,132.15-10.29,66.94-38.18,108.78-82.9,110.25-.53.02-1.05.03-1.57.03-45.35,0-54.25-66-44.08-132.18,10.11-65.77,36.7-110.29,80.55-110.29m0-8v8-8c-12.16,0-23.5,3.06-33.73,9.09-9.63,5.68-18.31,14.04-25.78,24.84-13.8,19.93-23.54,47.91-28.95,83.15-3.96,25.74-4.91,50.28-2.75,70.96,2.5,23.95,8.99,42.19,19.3,54.2,9.24,10.77,21.16,16.23,35.43,16.23.6,0,1.22-.01,1.83-.03,47.03-1.54,79.18-43.11,90.55-117.03,9.12-59.35,4.44-100.68-13.91-122.85-9.68-11.7-22.92-17.92-39.36-18.51-.88-.03-1.76-.05-2.63-.05h0Z"/>
        </g>
        <path class="cls-5" d="m740.76,144.36c-1.65,25.51.07,46.91,7.16,46.97s11.48-19.91,13.13-45.42c1.65-25.51,1.11-46.88-7.16-46.97-5.62-.06-11.48,19.91-13.13,45.42Z"/>
        <g>
          <path class="cls-6" d="m598.08,276.55c5.11-45.04,12.61-115.83,13.32-134.29-4.8,1.31-10.49,2.6-15.67,3.78-4.66,1.06-9.06,2.06-11.53,2.79l-5.48,1.63,3.48-58.02,2.08-1.03c18.32-9.09,34.28-18.38,44.14-40.07l.87-1.92,64.37-11.29-26.96,229.18-69.24,14.76.63-5.52Z"/>
          <path class="cls-5" d="m689.05,43l-26,221-61,13s15.89-140,13.03-140.01c-.01,0-.02,0-.03,0-8.82,2.94-25.64,6.11-32,8l3-50c20.57-10.21,36-20,46-42l57-10m9.2-9.74l-10.58,1.86-57,10-4.15.73-1.75,3.84c-8.51,18.73-20.92,27.54-42.27,38.14l-4.15,2.06-.28,4.63-3,50-.68,11.41,10.95-3.26c2.35-.7,6.68-1.68,11.28-2.73,3.41-.77,7.04-1.6,10.5-2.45-1.57,23.89-8.34,87.46-13.01,128.6l-1.25,11.04,10.87-2.32,61-13,5.61-1.2.67-5.69,26-221,1.26-10.67h0Z"/>
        </g>
      </g>
      <text class="cls-7" transform="translate(296.06 283.06) rotate(-16.38) scale(.64 .97) skewX(-20.15)"><tspan x="0" y="0">懷念</tspan></text>
      <text class="cls-2" transform="translate(121.93 280.03) rotate(-16.61) scale(.89 .94) skewX(-20.3)"><tspan x="0" y="0">ARCANA</tspan></text>
    </g>
    <g id="_text_MAX" data-name="【text】MAX">
      <polygon class="cls-5" points="918.05 41 937.05 45 925.24 99.07 967.05 141 922.05 163 920.05 160 921.05 164 884.05 181 877.05 169 875.05 170 877.05 185 844.05 199 843.05 201 821.05 210 791.05 224 779.05 125 806.7 109.35 806.67 108.96 918.05 41"/>
      <path class="cls-3" d="m918.05,101l4-47-18,10-1,19c-1.48-2.06-10-14-10-14l-17,10,21,30-1.13,29.27-26.87-56.27-20,12v55l-12-48-23,12s2.95,33.36,3,36l-12-31-22,11,17,80,15-8-5-25,9,23,17-8-1-25,4,22,28.47-12.28-1.32-19.42,11.85-7.3,7,14,26-14,2-20,8,14,20-9-23-33Zm-47.04,33.03l-6.26,7.49-2.13-9.53-9.06-3.64,8.4-4.97.67-9.74,7.33,6.45,9.47-2.38-3.87,8.96,5.19,8.27-9.72-.91Z"/>
    </g>
  </g>
</svg>