<?xml version="1.0" encoding="UTF-8"?>
<svg id="_图层_2" data-name="图层 2" xmlns="http://www.w3.org/2000/svg" viewBox="0 0 1002.71 450.04">
  <defs>
    <style>
      .cls-1, .cls-2 {
        stroke-width: 0px;
      }

      .cls-2 {
        fill: #fff;
      }
    </style>
  </defs>
  <g id="chain06">
    <g>
      <g>
        <path class="cls-1" d="m307.49,116.91l-68.47-5.48-2.83,17s-.08,6.06.77,7.13,69.38,2.51,69.38,2.51c0,0,6.05,1.41,3.6-9.87l-2.45-11.28Z"/>
        <path class="cls-2" d="m294.97,128.22l-45.09-2.94c-2.73-.18-4.88-2.94-4.77-6.11l8.79,1.5c.11-3.09,2.67-7.04,3.8-3.44l35.96,3.08c3.97-3.19,5.99-.9,6.22,1.95h0c.27,3.37-2.01,6.15-4.91,5.96Z"/>
      </g>
      <g>
        <path class="cls-1" d="m406.77,152.54l-68.47-5.48-2.83,17s-.08,6.06.77,7.13,69.38,2.51,69.38,2.51c0,0,6.05,1.41,3.6-9.87l-2.45-11.28Z"/>
        <polygon class="cls-2" points="399.5 166.21 344.02 162.59 345.25 146.87 398.58 154.9 399.5 166.21"/>
      </g>
      <g>
        <path class="cls-1" d="m505.1,189.04l-68.47-5.48-2.83,17s-.08,6.06.77,7.13,69.38,2.51,69.38,2.51c0,0,6.05,1.41,3.6-9.87l-2.45-11.28Z"/>
        <polygon class="cls-2" points="498 200.71 442.52 197.08 442.93 185.06 497.84 193.31 498 200.71"/>
      </g>
      <g>
        <path class="cls-1" d="m601.35,230.66l-66.56-8.6-2.83,17s-.08,6.06.77,7.13,69.38,2.51,69.38,2.51c0,0,6.05,1.41,3.6-9.87-2.45-11.28-4.36-8.16-4.36-8.16Z"/>
        <polygon class="cls-2" points="605.39 243.77 549.9 240.15 550.32 228.12 604.47 232.46 605.39 243.77"/>
      </g>
      <g>
        <path class="cls-1" d="m695.28,267.44l-58.11-5.18-2.83,17s-.08,6.06.77,7.13,69.38,2.51,69.38,2.51c0,0-3.23-.45-5.68-11.73-2.45-11.28-3.53-9.72-3.53-9.72Z"/>
        <polygon class="cls-2" points="698.54 279.41 643.06 275.79 643.47 263.77 691.48 270.88 698.54 279.41"/>
      </g>
      <g>
        <path class="cls-1" d="m806.28,309.07l-52.16-3.19-2.83,17s-.08,6.06.77,7.13,69.38,2.51,69.38,2.51c0,0,6.05,1.41,3.6-9.87-2.45-11.28-18.77-13.58-18.77-13.58Z"/>
        <polygon class="cls-2" points="815.5 323.04 760.02 319.41 760.43 307.39 806.71 314.22 815.5 323.04"/>
      </g>
      <g>
        <path class="cls-1" d="m939.91,350.99l-68.25-8.81-3.06,20.33s-.08,6.06.77,7.13,69.38,2.51,69.38,2.51c0,0,6.05,1.41,3.6-9.87l-2.45-11.28Z"/>
        <polygon class="cls-2" points="923.06 364.1 867.58 360.47 867.99 348.45 922.14 352.79 923.06 364.1"/>
      </g>
      <g>
        <path class="cls-1" d="m215.29,80.41l-68.47-5.48-2.83,17s-.08,6.06.77,7.13,69.38,2.51,69.38,2.51c0,0,6.05,1.41,3.6-9.87l-2.45-11.28Z"/>
        <polygon class="cls-2" points="208.19 92.07 152.71 88.45 153.12 76.43 207.27 80.76 208.19 92.07"/>
      </g>
      <g>
        <path class="cls-1" d="m215.29,80.41l-68.47-5.48-2.83,17s-.08,6.06.77,7.13,69.38,2.51,69.38,2.51c0,0,6.05,1.41,3.6-9.87l-2.45-11.28Z"/>
        <polygon class="cls-2" points="208.19 92.07 152.71 88.45 153.12 76.43 199.4 83.26 208.19 92.07"/>
      </g>
      <g>
        <path class="cls-1" d="m132.31,48.47l-68.47-5.48-2.83,17s-.08,6.06.77,7.13,69.38,2.51,69.38,2.51c0,0,6.05,1.41,3.6-9.87l-2.45-11.28Z"/>
        <polygon class="cls-2" points="123.32 61.86 67.83 58.23 68.25 46.21 122.4 50.54 123.32 61.86"/>
      </g>
      <g>
        <path class="cls-1" d="m323.37,96.55l38.63,62.28c1.51,2.58,1.15,5.07-.88,6.92l-44.53,41.23-3.55-.72-40-67.1c-.96-1.61-1.49-1.45-1.2-3.33.28-1.88,1.34-5.57,2.7-6.59,0,0,47.28-34.96,48.83-32.67Z"/>
        <path class="cls-2" d="m352.93,149.15l-28.95-49.46c-1.11-1.9-.91-2.63-2.5-1.43l-46.4,35.54c-1.68,1.27-1.61,1.21-.43,3.2l40,67.1,44.47-40.26c1.05-.95-5.41-13.36-6.19-14.7Z"/>
        <path class="cls-1" d="m320.42,185.96l-28.35-46.31s24.74-27.93,27.24-26.5,27.98,48.5,27.98,48.5l-26.86,24.32Z"/>
      </g>
      <g>
        <path class="cls-1" d="m421.27,127.89l39.97,65.63c1.43,2.57.91,5.13-1.34,7.1l-49.18,44.03-3.68-.58-38.01-66.72c-.91-1.6-1.47-1.42-1.06-3.35.41-1.93,1.74-5.74,3.23-6.85,0,0,48.59-41.53,50.08-39.27Z"/>
        <path class="cls-2" d="m458.67,194.63l-36.79-63.59c-1.06-1.89-1.88.13-3.62,1.44l-46.77,39.34c-1.84,1.37-1.77,1.3-.64,3.28l38.01,66.72,49.07-43.04c1.16-1.02,1.48-2.83.74-4.16Z"/>
        <path class="cls-1" d="m415.99,223.05l-27.02-46.02s27.62-29.59,30.16-28.24c2.54,1.35,26.49,48.27,26.49,48.27l-29.64,26Z"/>
      </g>
      <g>
        <path class="cls-1" d="m523.83,169.68l33.15,66.28c1.28,2.73.71,5.16-1.49,6.75l-48.08,35.56-3.48-1.13-34.1-71.23c-.82-1.71-1.36-1.61-.91-3.44.45-1.83,1.83-5.35,3.28-6.21,0,0,50.28-29.02,51.63-26.57Z"/>
        <path class="cls-2" d="m554.5,236.65l-30.35-63.78c-.95-2.01-.68-2.72-2.37-1.71l-49.45,29.7c-1.79,1.06-1.72,1-.71,3.12l34.1,71.23,47.94-34.6c1.13-.82,1.5-2.54.83-3.96Z"/>
        <path class="cls-1" d="m513.08,257.92l-24.28-49.25s27.15-24.73,29.52-23.02,23.72,51.37,23.72,51.37l-28.95,20.9Z"/>
      </g>
      <g>
        <path class="cls-1" d="m625.09,209.17l42.19,71.74c1.79,2.97,1.66,5.61-.26,7.35l-41.79,38.9-3.7-1.22-47.29-77.37c-1.13-1.86-1.66-1.75-1.54-3.74.11-2,.86-5.83,2.15-6.77,0,0,48.43-31.54,50.24-28.88Z"/>
        <path class="cls-2" d="m664.92,281.66l-38.45-68.2c-1.32-2.19-4.88-4.03-6.4-2.93l-44.24,32.53c-1.6,1.16-1.54,1.1-.14,3.4l47.29,77.37,41.83-37.86c.99-.89,1.04-2.78.11-4.31Z"/>
        <path class="cls-1" d="m627.2,304.98l-33.41-53.49s22.74-27.03,25.44-25.18,33.23,55.8,33.23,55.8l-25.26,22.87Z"/>
      </g>
      <g>
        <path class="cls-1" d="m736.62,244.79l42.14,71.05c1.37,2.81.75,5.39-1.61,7.18l-51.66,40.1-3.73-1-41.6-71.76c-.87-1.75-1.09-1.2-.6-3.15.48-1.95,6.74-7.48,8.3-8.47,0,0,47.32-36.46,48.76-33.95Z"/>
        <path class="cls-2" d="m776.1,316.69l-36.73-63.32c-1.01-2.07-3.78-7.15-5.6-6l-45.78,36.22c-1.92,1.22-1.85,1.15-.76,3.32l36.46,73.08,51.51-39.09c1.22-.92,1.61-2.76.9-4.21Z"/>
        <path class="cls-1" d="m731.61,341.38l-25.97-50.49s29.18-27.54,31.72-25.87c2.54,1.67,25.35,52.76,25.35,52.76l-31.11,23.61Z"/>
      </g>
      <g>
        <path class="cls-1" d="m844.12,294.8l42.37,67.79c1.66,2.8,1.39,5.42-.65,7.26l-44.49,41.28-3.7-.94-43.98-72.96c-1.05-1.75-1.59-1.61-1.37-3.58.22-1.98,1.18-5.81,2.54-6.83,0,0,47.58-34.51,49.27-32.02Z"/>
        <path class="cls-2" d="m884.05,363.51l-39.18-65.35c-1.22-2.06-1.04-2.83-2.64-1.64l-46.65,35.17c-1.69,1.26-1.62,1.19-.32,3.36l43.98,72.97,44.47-40.26c1.05-.95,1.2-2.81.34-4.26Z"/>
        <path class="cls-1" d="m844.41,388.99l-31.12-50.4s24.52-28.24,27.17-26.61c2.64,1.64,30.82,52.69,30.82,52.69l-26.86,24.32Z"/>
      </g>
      <g>
        <path class="cls-1" d="m955.64,322.16c1.21-1.06,2.98-.63,3.84.89l42.04,74.03c1.82,3.07,1.53,5.93-.69,7.94l-48.51,45.02-4.04-1.04-48.16-79.87c-1.16-1.92-1.74-1.76-1.51-3.92.24-2.16,1.27-6.35,2.77-7.46.69,1.06,44.33-26.89,54.27-35.59Z"/>
        <path class="cls-2" d="m998.86,398.07l-39.45-68.89c-1.34-2.26,1.53-.41-4.23-1.71l-53.01,35.6c-1.84,1.37-1.77,1.3-.34,3.67l48.16,79.88,48.5-43.9c1.15-1.04,1.31-3.07.37-4.65Z"/>
        <path class="cls-1" d="m955.72,426l-34.09-55.17s26.73-30.81,29.62-29.02c2.89,1.8,33.76,57.68,33.76,57.68l-29.29,26.51Z"/>
      </g>
      <g>
        <path class="cls-1" d="m229.11,62.07l34.73,65.23c1.35,2.69.83,5.14-1.32,6.8l-47.13,37.19-3.5-1.02-35.8-70.14c-.86-1.68-1.4-1.57-.99-3.42.4-1.85,1.69-5.42,3.12-6.33,0,0,49.49-30.72,50.89-28.31Z"/>
        <path class="cls-2" d="m261.38,128.06l-31.86-62.81c-.99-1.98-.74-2.7-2.41-1.63l-48.64,31.37c-1.76,1.12-1.69,1.06-.63,3.15l35.8,70.14,47.01-36.23c1.11-.86,1.43-2.6.74-3.99Z"/>
        <path class="cls-1" d="m213.94,147.62l-16.93-41.73c-1.1-2.1-.76-4.75.82-6.25,6.83-6.49,24.25-22.72,26.18-21.41s17.74,35.07,23.13,46.71c1.03,2.23.49,4.93-1.26,6.28l-21.73,16.74c-1.96,1.51-8.94,2.09-10.21-.34Z"/>
      </g>
      <g>
        <path class="cls-1" d="m143.22,26.22l30.71,58.04c1.19,2.4.66,4.63-1.38,6.2l-44.53,35.09-3.22-.82-31.59-62.46c-.76-1.5-1.26-1.38-.84-3.07.41-1.69,1.69-4.96,3.03-5.82,0,0,46.57-29.3,47.82-27.17Z"/>
        <path class="cls-2" d="m171.64,85.02l-28.11-55.94c-.88-1.77-.63-2.42-2.2-1.41l-45.8,29.87c-1.66,1.07-1.59,1.01-.65,2.87l31.59,62.46,44.41-34.22c1.05-.81,1.39-2.39.77-3.63Z"/>
        <path class="cls-1" d="m133.27,106.78l-22.5-43.15s25.15-24.03,27.35-22.62,21.97,45.1,21.97,45.1l-26.82,20.67Z"/>
      </g>
      <g>
        <path class="cls-1" d="m48.32.09l38.02,56.53c1.49,2.35,1.2,4.74-.7,6.62l-41.56,42.03-3.39-.45L1.27,43.8c-.95-1.46-1.44-1.28-1.21-3.08.23-1.8,1.17-5.37,2.44-6.43C2.5,34.28,46.8-1.98,48.32.09Z"/>
        <path class="cls-2" d="m84.08,57.7L48.96,3.03c-1.1-1.73-.92-2.44-2.41-1.19L3.1,38.6c-1.57,1.32-1.51,1.25-.34,3.06l39.42,61.02,41.53-41.11c.98-.97,1.15-2.66.38-3.87Z"/>
        <path class="cls-1" d="m47.31,85.09l-27.92-42.07s22.99-28.12,25.4-26.93,27.61,44.16,27.61,44.16l-25.08,24.83Z"/>
      </g>
      <g>
        <path class="cls-1" d="m306.34,151.65c-1.9,1.72-51.08,3.79-57.81.65s-11.34-4.94-11.29-11c0-1.43-5.44-8.78-5.26-10.01,1.22-8.1,5.07-21.02,7.86-20.04,1.45.51.74,4.67,4.31,10.87,0,0,.92,1.6,2.33,3.43,3.51,4.56,27.14,11.63,59.78,16.95,0,0,1.5.14,2.39,1.51.73,1.13.66,2.37.62,2.93-.19,2.91-2.59,4.5-2.93,4.72Z"/>
        <path class="cls-2" d="m298.36,144.87c.25,1.33-.52,2.58-1.68,2.68-9.32.81-45.89,3.83-48.75,1.59-3.28-2.57-8.02-8.43-7.5-14.44s7.76,1.28,7.76,1.28c0,0,49.43,5.09,50.03,8.23l.13.66Z"/>
      </g>
      <g>
        <path class="cls-1" d="m403.72,189c-1.9,1.72-51.08,3.79-57.81.65s-11.34-4.94-11.29-11c0-1.43-5.44-8.78-5.26-10.01,1.22-8.1,5.07-21.02,7.86-20.04,1.45.51.74,4.67,4.31,10.87,0,0,.92,1.6,2.33,3.43,3.51,4.56,27.14,11.63,59.78,16.95,0,0,1.5.14,2.39,1.51.73,1.13.66,2.37.62,2.93-.19,2.91-2.59,4.5-2.93,4.72Z"/>
        <path class="cls-2" d="m394.79,183.09c.25,1.33-.52,2.58-1.68,2.68-9.32.81-45.89,3.83-48.75,1.59-3.28-2.57-8.63-1.42-8.1-7.43.52-6.01,7.86-9.88,7.86-9.88,0,0,42.36,5.95,42.96,9.1l7.72,3.94Z"/>
      </g>
      <g>
        <path class="cls-1" d="m514.54,227.87c-2.49,2.25-68.16,3.01-77.25-1.52-9.09-4.53-15.31-7.16-15.44-15.37-.03-1.94-7.55-12.11-7.34-13.77,1.38-10.92,6.13-28.25,9.89-26.81,1.95.74,1.14,6.36,6.09,14.9,0,0,6.07,4.68,3.22,4.74-10.62.23,28.12,13.52,80.43,25.43,0,0,2.01.25,3.24,2.15,1.02,1.57.96,3.24.93,3.99-.16,3.94-3.33,5.99-3.77,6.27Z"/>
        <path class="cls-2" d="m503.66,218.36c.38,1.81-1.72,5.76-3.26,5.85-12.44.71-60.13,1.01-64.02-2.15-4.46-3.62-11.58-2.28-11.06-10.4.51-8.12,16.94-3.12,16.94-3.12,0,0,60.31,4.63,61.21,8.92l.19.89Z"/>
      </g>
      <g>
        <path class="cls-1" d="m621.92,270.93c-2.49,2.25-68.16,3.01-77.25-1.52-9.09-4.53-15.31-7.16-15.44-15.37-.03-1.94-7.55-12.11-7.34-13.77,1.38-10.92,6.13-28.25,9.89-26.81,1.95.74,1.14,6.36,6.09,14.9,0,0,1.28,2.21,3.22,4.74,4.83,6.32,36.64,16.88,80.43,25.43,0,0,2.01.25,3.24,2.15,1.02,1.57.96,3.24.93,3.99-.16,3.94-3.33,5.99-3.77,6.27Z"/>
        <path class="cls-2" d="m611.05,261.43c.38,1.81-7.24,8.91-8.78,9-12.44.71-54.61-2.15-58.49-5.3-4.46-3.62-11.58-2.28-11.06-10.4s11.01-7.42,11.01-7.42c0,0,66.24,8.94,67.14,13.22l.19.89Z"/>
      </g>
      <g>
        <path class="cls-1" d="m728.98,306.78c-2.31,2.48-67.51,9.43-76.85,5.75-9.34-3.67-15.27-11.07-15.97-19.26-.17-1.93-8.76-6.05-8.67-7.73.62-11.05,4.13-28.83,7.97-27.74,1.99.56,1.57,6.25,7.08,14.32,0,0,1.42,2.09,3.52,4.44,5.23,5.87,37.57,13.43,81.67,17.86,0,0,2.01.06,3.37,1.84,1.12,1.47,1.17,3.15,1.2,3.9.11,3.95-2.89,6.3-3.32,6.62Z"/>
        <path class="cls-2" d="m717.52,298.31c.5,1.78-.37,3.53-1.9,3.76-12.31,1.88-60.6,9.05-64.69,6.26-4.68-3.2-11.1-8.33-11.15-16.5-.05-8.17,9.87-1.31,9.87-1.31,0,0,66.42,2.7,67.62,6.9l.25.88Z"/>
      </g>
      <g>
        <path class="cls-1" d="m835.26,353.68c-2.12,2.27-65.16,4.28-74.45-.03-9.29-4.3-15.59-6.78-16.72-14.89-.27-1.91-8.73-11.82-8.73-13.47,0-10.82,2.45-28.04,6.24-26.68,1.96.7,1.87,6.26,7.67,14.6,0,0,1.5,2.16,3.67,4.62,5.41,6.16,37.28,15.98,80.43,23.59,0,0,1.96.21,3.37,2.06,1.17,1.53,1.31,3.19,1.38,3.93.33,3.9-2.47,5.98-2.86,6.26Z"/>
        <path class="cls-2" d="m826.88,343.95c.59,1.79,2.5,8.18,1.03,8.3-11.87.94-64.37.23-68.49-2.81-4.73-3.49-11.41-2.03-11.91-10.06-.5-8.03,12.5-1.34,12.5-1.34,0,0,49.77,1.15,51.16,5.37l15.7.55Z"/>
      </g>
      <g>
        <path class="cls-1" d="m947.39,392.45c-2.12,2.27-65.16,4.28-74.45-.03-9.29-4.3-15.59-6.78-16.72-14.89-.27-1.91-8.73-11.82-8.73-13.47,0-10.82,2.45-28.04,6.24-26.68,1.96.7,1.87,6.26,7.67,14.6,0,0,1.5,2.16,3.67,4.62,5.41,6.16,37.28,15.98,80.43,23.59,0,0,1.96.21,3.37,2.06,1.17,1.53,1.31,3.19,1.38,3.93.33,3.9-2.47,5.98-2.86,6.26Z"/>
        <path class="cls-2" d="m932.15,384.7c.59,1.79-.17,3.44-1.64,3.56-11.87.94-56.83,1.31-60.96-1.73-4.73-3.49-11.31-7.12-11.81-15.15-.5-8.03,7.96.65,7.96.65.1-.48,65.83,2.59,66.16,11.79l.29.88Z"/>
      </g>
      <g>
        <path class="cls-1" d="m217.58,115.71c-1.9,1.72-51.08,3.79-57.81.65-6.73-3.14-11.34-4.94-11.29-11,0-1.43-5.44-8.78-5.26-10.01,1.22-8.1,5.07-21.02,7.86-20.04,1.45.51.74,4.67,4.31,10.87,0,0,.92,1.6,2.33,3.43,3.51,4.56,27.14,11.63,59.78,16.95,0,0,1.5.14,2.39,1.51.73,1.13.66,2.37.62,2.93-.19,2.91-2.59,4.5-2.93,4.72Z"/>
        <path class="cls-2" d="m209.6,108.94c.25,1.33-.52,2.58-1.68,2.68-9.32.81-45.89,3.83-48.75,1.59-3.28-2.57-8.63-1.42-8.1-7.43s8.37-5.73,8.37-5.73c0,0,49.43,5.09,50.03,8.23l.13.66Z"/>
      </g>
      <g>
        <path class="cls-1" d="m128.9,76.01c-2.01,1.82-54.22,3.86-61.37.5s-12.05-5.29-12.02-11.73c0-1.52-5.8-9.35-5.6-10.66,1.28-8.61,5.33-22.33,8.3-21.28,1.54.54.8,4.97,4.6,11.57,0,0,.98,1.7,2.48,3.65,3.73,4.86,28.84,12.45,63.51,18.21,0,0,1.59.15,2.54,1.62.78,1.21.71,2.53.67,3.11-.19,3.1-2.74,4.78-3.1,5Z"/>
        <path class="cls-2" d="m120.41,68.79c.27,1.42-.55,2.74-1.77,2.84-9.9.83-48.72,3.93-51.76,1.53-3.49-2.74-9.16-1.54-8.62-7.92.54-6.39,8.88-6.07,8.88-6.07,0,0,52.5,5.57,53.14,8.91l.13.7Z"/>
      </g>
    </g>
  </g>
</svg>