<?xml version="1.0" encoding="UTF-8"?>
<svg id="_图层_2" data-name="图层 2" xmlns="http://www.w3.org/2000/svg" viewBox="0 0 532.48 282.07">
  <defs>
    <style>
      .cls-1, .cls-2 {
        stroke: #000;
        stroke-miterlimit: 10;
      }

      .cls-3, .cls-2 {
        fill: #423f42;
      }

      .cls-3, .cls-4, .cls-5 {
        stroke-width: 0px;
      }

      .cls-5 {
        fill: none;
      }
    </style>
  </defs>
  <g id="chain_b_01_left" data-name="chain b 01 left">
    <g>
      <g>
        <path class="cls-4" d="m477.94,180.56s-47.66,24.05-57.23,21.12c-9.57-2.92-105.05-46.39-105.05-46.39l27.39-17.86,134.89,43.12Z"/>
        <path class="cls-3" d="m436.63,182.35l-21.71,5.98s-57.65-22.22-61.02-27.25-.06-13.8-.06-13.8l2.67-5.54,77.39,24.74s4.93,8.13,3.83,12l-1.1,3.87Z"/>
      </g>
      <g>
        <path class="cls-4" d="m311.53,150.77s-45.91,26.87-56.53,25.44-119.21-28.36-119.21-28.36l25.65-19.01,150.09,21.92Z"/>
        <path class="cls-3" d="m268.28,157.28l-21.81,7.86s-64.84-12.71-69.3-16.74-2.57-12.16-2.57-12.16l1.81-5.2,86.12,12.58s6.67,6.58,6.21,10.12l-.46,3.54Z"/>
      </g>
      <g>
        <path class="cls-1" d="m398.14,149.7l-.22,4.15-94.42,98.09-3.99-.45-84.6-120.87.47-4.36,98.77-84.83,8.37,1.46,75.62,106.8Zm-74.14-68.52l-70.39,58,47.21,59.15,59.29-55.6-36.12-61.55Z"/>
        <path class="cls-2" d="m299.91,250.57l94.42-98.09-75.62-106.8-103.4,84.03,84.6,120.87Zm23-172.86l39.09,66.62-61,59.23-51.04-63.94,72.95-61.91Z"/>
      </g>
      <g>
        <path class="cls-1" d="m252.15,106.31l-7.72,12.66-109.78,101.24-5.31-.54L.52,91.42l-.02-4.57L124.13.52l5.01.75,123.01,105.04Zm-115.48-64.85l-79.04,62.18,70.68,62.86,64.8-59.85-56.44-65.19Z"/>
        <path class="cls-2" d="m129.73,218.72l109.78-101.24L124.55,4.13.92,90.46l128.81,128.26Zm5.02-180.91l61.09,70.56-71.53,61.06L47.9,101.47l86.85-63.66Z"/>
      </g>
      <g>
        <polyline class="cls-5" points="483.55 82.58 428.11 171.22 486.11 221.55"/>
        <path class="cls-1" d="m479.38,83l-54.68,89.94,62.7,54.42,20.78-39.11-2.05-3.05-20.02,36.36-57.99-50.33,55.44-88.64,28.45,33.77,1.21-2.13-24.43-31.59c-2.61-3.37-7.24-3.19-9.4.37Z"/>
        <polygon class="cls-1" points="389.05 174.67 496.13 281.53 500.06 280.69 531.9 223.48 527.61 217.11 496.32 280.36 389.24 173.5 470.93 44.61 511.69 116.41 529.49 100.59 485.49 40 470.26 40.74 388.58 169.63 389.05 174.67"/>
        <path class="cls-2" d="m487.4,227.36l-62.7-54.42,54.68-89.94c2.16-3.56,5.16-.36,7.77,3.01l23.96,29.51,12.63-12.98-52.81-57.93-81.68,128.89,107.08,106.86,31.29-63.25-19.43-28.87-20.78,39.11Z"/>
      </g>
      <g>
        <path class="cls-4" d="m483.96,173.57l3.75-13.14-26.33-20.87-94.88-38.09s-32.74,19.85-34.24,20.05-27.17,9.21-29.44,17.15c-2.27,7.94-1.56,13.05,3.86,16.84s29.32,8.55,29.32,8.55l27.29-17.21,112.23,37.57,8.44-10.86Z"/>
        <path class="cls-3" d="m466,166.36s3.39-4.27-2.03-8.06-86.96-49.39-96.41-49.16-9.42,2.66-9.42,2.66c0,0-15.96,12.91-16.34,16.78-.38,3.87,14.06,5.64,14.06,5.64,0,0,63.89,27.26,78.96,30.09,15.07,2.83,16.4,5.78,23.26,4.51,6.86-1.27,7.92-2.45,7.92-2.45Z"/>
      </g>
      <g>
        <path class="cls-4" d="m330.92,140.62l1.72-13.17-36.82-17.17-124.54-25.91s-35.76,23.03-37.56,23.4-31.27,12.08-32.31,20.03c-1.04,7.96.94,12.83,8.4,15.87,7.46,3.04,37.78,4.89,37.78,4.89l29.67-19.84,145.68,23.39,7.97-11.5Z"/>
        <path class="cls-3" d="m307.34,135.72s3.21-4.53-4.25-7.57c-7.46-3.04-117.31-37.78-128.83-36.46-11.52,1.32-10.96,3.67-10.96,3.67,0,0-16.72,14.36-16.35,18.15.38,3.79,18.46,3.84,18.46,3.84,0,0,84.21,19,103.3,20,19.08,1,21.35,3.7,29.47,1.67s9.16-3.3,9.16-3.3Z"/>
      </g>
    </g>
  </g>
</svg>