<?xml version="1.0" encoding="UTF-8"?>
<svg id="_图层_2" data-name="图层 2" xmlns="http://www.w3.org/2000/svg" viewBox="0 0 622.42 1173.75">
  <defs>
    <style>
      .cls-1, .cls-2 {
        stroke: #000;
        stroke-miterlimit: 10;
      }

      .cls-3, .cls-4 {
        stroke-width: 0px;
      }

      .cls-4, .cls-2 {
        fill: #fff;
      }
    </style>
  </defs>
  <g id="chain04">
    <g>
      <path class="cls-3" d="m158.61,306.48s-27.42-18.71-29.38-24.92-14.9-72.68-14.9-72.68l17.61,9.47,26.67,88.13Z"/>
      <path class="cls-4" d="m143.57,284.23l-10.21-10.09s-9.66-38.87-8.52-42.32,6.3-4.4,6.3-4.4l3.46-.28,15.3,50.56s-2.03,5.29-4.18,5.91l-2.15.61Z"/>
    </g>
    <g>
      <path class="cls-3" d="m102.96,199.3s-28.09-21.55-30.22-28.47-16.84-80.89-16.84-80.89l17.98,11.02,29.08,98.35Z"/>
      <path class="cls-4" d="m87.26,174.22l-10.54-11.48s-10.71-43.31-9.64-47.09,6.24-4.68,6.24-4.68l3.48-.2,16.69,56.43s-1.91,5.8-4.06,6.41l-2.15.61Z"/>
    </g>
    <g>
      <path class="cls-3" d="m230.33,448.61s-27.42-18.71-29.38-24.92c-1.95-6.21-14.9-72.68-14.9-72.68l17.61,9.47,26.67,88.13Z"/>
      <path class="cls-4" d="m215.29,426.37l-10.21-10.09s-9.66-38.87-8.52-42.32,6.3-4.4,6.3-4.4l3.46-.28,15.3,50.56s-2.03,5.29-4.18,5.91l-2.15.61Z"/>
    </g>
    <g>
      <path class="cls-3" d="m307.62,596.69s-37.9-18.7-40.57-25.79-20.12-84.01-20.12-84.01l24.36,9,36.32,100.8Z"/>
      <path class="cls-4" d="m286.93,572.28l-14.09-10.65s-13.1-44.72-11.49-48.93,8.78-5.98,8.78-5.98l4.8-.76,20.84,57.83s-2.86,6.51-5.85,7.5l-2.99.99Z"/>
    </g>
    <g>
      <path class="cls-3" d="m391.7,774.6s-39.89-28.4-42.8-36.19c-2.91-7.78-23.32-84.46-23.32-84.46l26.39,9.99,39.73,110.66Z"/>
      <path class="cls-4" d="m369.2,747.74l-22.04-27.04s-7.62-33.78-5.89-38.4,9.47-6.51,9.47-6.51l5.19-.8,22.8,63.49s-3.06,7.12-6.29,8.19l-3.23,1.07Z"/>
    </g>
    <g>
      <path class="cls-3" d="m470.85,954.41s-37.38-30.73-40.4-38.43c-3.02-7.69-25.64-89.43-25.64-89.43l30.11,8.64,35.92,119.22Z"/>
      <path class="cls-4" d="m452.89,916.18l-15.46-24.56s-16.11-35.19-13.9-39.93,11.27-7.09,11.27-7.09l6.05-1.1,23.5,62.81s-3.87,7.35-7.66,8.61l-3.79,1.26Z"/>
    </g>
    <g>
      <path class="cls-3" d="m541.85,1091.41s-37.38-30.73-40.4-38.43-25.64-89.43-25.64-89.43l30.11,8.64,35.92,119.22Z"/>
      <path class="cls-4" d="m523.89,1053.18l-15.46-24.56s-16.11-35.19-13.9-39.93,11.27-7.09,11.27-7.09l6.05-1.1,23.5,62.81s-3.87,7.35-7.66,8.61l-3.79,1.26Z"/>
    </g>
    <g>
      <path class="cls-1" d="m149.58,257.11l-2.26,1.34-88.09-22.74-1.31-2.59,30.55-94.56,2.47-1.26,82.83,30.11,2.48,5.62-26.66,84.08Zm7.16-69.58l-57.74-22.33-12.69,49.82,52.17,16.41,18.26-43.9Z"/>
      <path class="cls-2" d="m58.55,233.04l88.09,22.74,26.66-84.08-84.2-33.22-30.55,94.56Zm99.59-47.39l-19.77,47.52-54.74-16.17,13.72-53.86,60.79,22.51Z"/>
    </g>
    <g>
      <path class="cls-1" d="m96.09,132.84l-9.05-.94L1.68,99.99l-1.14-2.82L36.15,1.64l2.5-1.09,80.92,42.44.94,2.72-24.43,87.13Zm4.38-73.86l-55.57-25.49-15.42,50.65,50.44,18.81,20.55-43.97Z"/>
      <path class="cls-2" d="m1.17,97.15l85.36,31.91,31.17-85L36.79,1.61,1.17,97.15Zm100.79-39.99l-22.24,47.6-52.93-21.94,16.67-54.76,58.5,29.11Z"/>
    </g>
    <g>
      <path class="cls-1" d="m214.18,392.6l-7.8-4.02-82.03-26.29-1.31-2.59,30.55-94.56,2.47-1.26,84.2,33.22,3.8,10.5-29.87,85Zm7.68-78.48l-57.74-22.33-12.69,49.82,52.17,16.41,18.26-43.9Z"/>
      <path class="cls-2" d="m123.67,359.63l88.09,22.74,26.66-84.08-84.2-33.22-30.55,94.56Zm97.56-38.02l-17.74,38.15-54.74-16.17,13.72-53.86,53.84,19.93c4.81,1.78,7.08,7.29,4.92,11.95Z"/>
    </g>
    <g>
      <path class="cls-1" d="m275.95,519.67l-2.34,1.41-91.64-24.63-1.38-2.75,31.26-99.96,2.56-1.32,87.65,35.7,1.17,2.67-27.27,88.89Zm7.08-73.65l-60.1-24.01-12.93,52.69,54.29,17.71,18.75-46.39Z"/>
      <path class="cls-2" d="m187.4,495.23l85.5,23,27.27-88.89-87.65-35.7-29.38,93.83c-1.04,3.33.9,6.86,4.26,7.76Zm97.08-51.21l-20.29,50.21-56.96-17.46,13.98-56.96,63.27,24.21Z"/>
    </g>
    <g>
      <path class="cls-1" d="m359.03,693.11l-4.56.53-92.81-29.6-1.45-3.06,29.15-108.88,2.54-1.38,92.03,36.45,3.39,9.99-28.29,95.96Zm3.19-81.61l-61.05-28.03-11.8,57.49,55.05,20.95,17.8-50.41Z"/>
      <path class="cls-2" d="m261.79,660.64l92.81,29.6,26.47-100.7-90.13-37.78-29.15,108.88Zm102.75-51.55l-19.27,54.56-57.73-20.76,12.76-62.15,64.24,28.35Z"/>
    </g>
    <g>
      <path class="cls-1" d="m453.28,865.53l-5.01-1.45-98.55-34.5-1.58-3.43,29.31-120.64,2.67-1.5,93.16,43.93,5.5,10.28-25.5,107.3Zm2.04-92.7l-64.95-32.22-11.68,63.75,58.51,24.24,18.12-55.78Z"/>
      <path class="cls-2" d="m348.84,826.08l98.55,34.5,25.21-103.07-7.46-10.88-86.99-41.19-29.31,120.64Zm107.93-55.62l-19.61,60.37-61.34-24.07,12.62-68.93,68.33,32.62Z"/>
    </g>
    <g>
      <path class="cls-1" d="m525.11,1016.71l-2.4,1.5-95.06-29.31-1.47-3.07,30.73-109.55,2.62-1.4,91.11,41.43,1.25,2.97-26.79,97.43Zm6.17-81.08l-62.47-27.89-12.54,57.82,56.36,20.8,18.65-50.74Z"/>
      <path class="cls-2" d="m426.87,985.75l95.06,29.31,26.79-97.43-91.11-41.43-30.73,109.55Zm105.86-52.28l-20.18,54.92-59.11-20.59,13.56-62.51,65.74,28.19Z"/>
    </g>
    <g>
      <path class="cls-1" d="m595.11,1171.71l-2.4,1.5-95.06-29.31-1.47-3.07,30.73-109.55,2.62-1.4,91.11,41.43,1.25,2.97-26.79,97.43Zm6.17-81.08l-62.47-27.89-12.54,57.82,56.36,20.8,18.65-50.74Z"/>
      <path class="cls-2" d="m496.87,1140.75l95.06,29.31,26.79-97.43-91.11-41.43-30.73,109.55Zm105.86-52.28l-20.18,54.92-59.11-20.59,13.56-62.51,65.74,28.19Z"/>
    </g>
    <g>
      <path class="cls-3" d="m170.37,317.95l8.35-2.38.72-23.48-16.85-71.42s-23.12-12.92-23.81-13.76-15.38-13.3-20.42-11.87-7.45,3.69-7.33,8.33,6.9,20.93,6.9,20.93l19.62,10.53,23.86,81.82,8.97,1.29Z"/>
      <path class="cls-4" d="m167.18,304.43s3.56.55,3.44-4.1-7.85-70.6-11.64-76.28-5.05-4.8-5.05-4.8c0,0-12.96-5.15-15.14-4.01s2.5,10.58,2.5,10.58c0,0,10.5,48.66,14.87,58.86s3.33,12.06,6.66,15.79,4.36,3.96,4.36,3.96Z"/>
    </g>
    <g>
      <path class="cls-3" d="m111,200.65l8.01-2.28v-25.49s-18.47-78.23-18.47-78.23c0,0-22.76-14.88-23.45-15.83s-15.28-15.02-20.12-13.64-7.1,3.73-6.84,8.79,7.3,22.99,7.3,22.99l19.3,12.16,25.55,89.79,8.72,1.73Z"/>
      <path class="cls-4" d="m107.51,185.84s3.46.72,3.2-4.33c-.25-5.06-9.73-77.02-13.56-83.33s-5.03-5.4-5.03-5.4c0,0-12.7-6.07-14.77-4.91s2.74,11.59,2.74,11.59c0,0,11.63,53.27,16.16,64.52s3.59,13.22,6.92,17.4,4.34,4.46,4.34,4.46Z"/>
    </g>
    <g>
      <path class="cls-3" d="m240.66,453.99l8.35-2.38.72-23.48-16.85-71.42s-23.12-12.92-23.81-13.76-15.38-13.3-20.42-11.87-7.45,3.69-7.33,8.33,6.9,20.93,6.9,20.93l19.62,10.53,23.86,81.82,8.97,1.29Z"/>
      <path class="cls-4" d="m237.47,440.47s3.56.55,3.44-4.1-7.85-70.6-11.64-76.28c-3.79-5.68-5.05-4.8-5.05-4.8,0,0-12.96-5.15-15.14-4.01s2.5,10.58,2.5,10.58c0,0,10.5,48.66,14.87,58.86,4.37,10.2,3.33,12.06,6.66,15.79,3.33,3.73,4.36,3.96,4.36,3.96Z"/>
    </g>
    <g>
      <path class="cls-3" d="m315.7,612.09l9.94-2.84.89-27.86-19.99-84.71s-27.51-15.3-28.33-16.3-18.29-15.76-24.3-14.05c-6.01,1.71-11.53,10.74-11.39,16.26.14,5.52,7.11,5.26,7.11,5.26l27.07,25.68,28.32,97.04,10.68,1.52Z"/>
      <path class="cls-4" d="m311.91,596.05s4.23.64,4.1-4.87-9.27-83.75-13.78-90.49-6.01-5.69-6.01-5.69c0,0-15.43-6.09-18.02-4.73-2.59,1.36,2.96,12.55,2.96,12.55,0,0,12.45,57.72,17.64,69.82,5.19,12.1,3.96,14.3,7.92,18.72s5.19,4.69,5.19,4.69Z"/>
    </g>
    <g>
      <path class="cls-3" d="m400.74,781.9l11.06-3.15,1.49-28.82-20.56-87.13s-30.17-15.2-31.05-16.22-19.96-15.89-26.64-13.99-9.9,4.73-9.86,10.43.37,11.01.37,11.01l33.84,26.85,29.55,99.7,11.79,1.34Z"/>
      <path class="cls-4" d="m396.85,765.41s4.67.57,4.62-5.13c-.05-5.7-8.72-86.39-13.58-93.25-4.86-6.87-6.54-5.75-6.54-5.75,0,0-24.22-3.37-27.12-1.9-2.9,1.46,8.38,10.62,8.38,10.62,0,0,14.65,59.11,20.17,71.5,5.52,12.39,4.12,14.7,8.42,19.18,4.3,4.49,5.66,4.74,5.66,4.74Z"/>
    </g>
    <g>
      <path class="cls-3" d="m483.33,957.62l11.06-3.15,1.49-28.82-20.56-87.13s-20.96-19.6-32.32-22.87c-2.96-.85-17.41-18.97-24.1-17.06s-18.05-1.09-18,4.61c.05,5.7,1.85,14.04,1.85,14.04l39.24,39.35,29.55,99.7,11.79,1.34Z"/>
      <path class="cls-4" d="m479.43,941.12s4.67.57,4.62-5.13-8.72-86.39-13.58-93.25c-4.86-6.87-6.54-5.75-6.54-5.75,0,0-16.96-5.95-19.86-4.49-2.9,1.46,3.05,12.91,3.05,12.91,0,0,12.72,59.4,18.24,71.79s4.12,14.7,8.42,19.18c4.3,4.49,5.66,4.74,5.66,4.74Z"/>
    </g>
    <g>
      <path class="cls-3" d="m556.33,1103.62l11.06-3.15,1.49-28.82-20.56-87.13s-20.96-19.6-32.32-22.87c-2.96-.85-17.41-18.97-24.1-17.06s-18.05-1.09-18,4.61c.05,5.7,1.85,14.04,1.85,14.04l39.24,39.35,29.55,99.7,11.79,1.34Z"/>
      <path class="cls-4" d="m552.43,1087.12s4.67.57,4.62-5.13-8.72-86.39-13.58-93.25c-4.86-6.87-6.54-5.75-6.54-5.75,0,0-16.96-5.95-19.86-4.49-2.9,1.46,3.05,12.91,3.05,12.91,0,0,12.72,59.4,18.24,71.79,5.52,12.39,4.12,14.7,8.42,19.18,4.3,4.49,5.66,4.74,5.66,4.74Z"/>
    </g>
  </g>
</svg>