<?xml version="1.0" encoding="UTF-8"?>
<svg id="_图层_2" data-name="图层 2" xmlns="http://www.w3.org/2000/svg" viewBox="0 0 394.01 386.76">
  <defs>
    <style>
      .cls-1, .cls-2 {
        stroke-width: 0px;
      }

      .cls-2 {
        fill: #fff;
      }
    </style>
  </defs>
  <g id="chainball">
    <g>
      <g>
        <g>
          <path class="cls-1" d="m74.37,247.76l47.79-49.98-11.14-13.07s-4.56-3.93-5.92-3.95-46.1,52.59-46.1,52.59c0,0-4.93,3.83,5.22,9.12l10.15,5.29Z"/>
          <path class="cls-2" d="m73.73,230.75l30.96-33.34c1.87-2.02,5.35-1.94,7.69.17l-6.74,5.91c2.29,2.06,3.66,6.58.2,5.16l-25.25,26.12c-.1,5.14-3.12,5.25-5.44,3.61h0c-2.74-1.94-3.4-5.5-1.41-7.64Z"/>
        </g>
        <g>
          <path class="cls-1" d="m160.9,199.06l47.79-49.98-11.14-13.07s-4.56-3.93-5.92-3.95-46.1,52.59-46.1,52.59c0,0-4.93,3.83,5.22,9.12l10.15,5.29Z"/>
          <polygon class="cls-2" points="156.54 186.06 194.64 145.04 203.53 153.05 165.73 192.57 156.54 186.06"/>
        </g>
        <g>
          <path class="cls-1" d="m160.9,199.06l47.79-49.98-11.14-13.07s-4.56-3.93-5.92-3.95-46.1,52.59-46.1,52.59c0,0-4.93,3.83,5.22,9.12l10.15,5.29Z"/>
          <polygon class="cls-2" points="156.54 186.06 194.64 145.04 203.53 153.05 168.85 184.83 156.54 186.06"/>
        </g>
        <g>
          <path class="cls-1" d="m238.07,154.65l47.79-49.98-11.14-13.07s-4.56-3.93-5.92-3.95-46.1,52.59-46.1,52.59c0,0-4.93,3.83,5.22,9.12l10.15,5.29Z"/>
          <polygon class="cls-2" points="233.61 139.08 271.71 98.05 280.6 106.06 242.81 145.58 233.61 139.08"/>
        </g>
        <g>
          <path class="cls-1" d="m79.76,273.17l-72.03-9.62c-2.93-.47-4.6-2.34-4.7-5.11l-3.03-61.12,2.81-2.31,76.58,11.63c1.84.28,2.05-.23,3.3,1.19,1.25,1.42,3.38,4.61,3.3,6.32,0,0-3.49,59.26-6.22,59.01Z"/>
          <path class="cls-2" d="m20.88,262.65l56.11,8.98c2.16.34,2.58.97,2.68-1.04l2.49-58.94c.1-2.13.11-2.03-2.16-2.38L3.41,197.64l2.33,60.46c.06,1.43,13.62,4.31,15.14,4.55Z"/>
          <path class="cls-1" d="m13.55,213.74l53.33,7.44s5.51,37.16,2.83,38.2c-2.68,1.04-54.75-9.13-54.75-9.13l-1.41-36.51Z"/>
        </g>
        <g>
          <path class="cls-1" d="m166.06,221.57l-71.79-14.55c-2.91-.67-4.45-2.63-4.34-5.37l1.7-60.57,3.01-2.09,76.22,16.85c1.83.4,2.09-.09,3.23,1.41,1.15,1.49,3.05,4.79,2.83,6.48,0,0-8.13,58.28-10.86,57.84Z"/>
          <path class="cls-2" d="m95.25,204.62l68.13,15.24c2.14.49,2.53,1.14,2.78-.84l7.09-58.03c.27-2.09.27-2-2-2.5l-76.22-16.85-2.36,59.87c-.06,1.42,1.06,2.78,2.57,3.12Z"/>
          <path class="cls-1" d="m110.58,155.07l42.56,13.43c2.3.48,4.1,2.45,4.24,4.63.59,9.48,1.86,33.46-.37,34.13s-38-8.55-50.3-11.77c-2.35-.62-4.06-2.77-3.97-4.99l1.09-27.66c.1-2.49,4.11-8.32,6.76-7.76Z"/>
        </g>
        <g>
          <path class="cls-1" d="m248.07,177.39l-63.76-13.09c-2.59-.6-3.95-2.45-3.84-5.04l1.64-57.2,2.68-2,67.69,15.23c1.62.37,1.85-.1,2.87,1.3,1.02,1.4,2.7,4.49,2.5,6.09,0,0-7.35,55.1-9.77,54.71Z"/>
          <path class="cls-2" d="m185.19,162.02l60.5,13.78c1.9.44,2.24,1.06,2.47-.82l6.43-54.86c.24-1.98.24-1.89-1.77-2.34l-67.69-15.23-2.23,56.54c-.05,1.34.94,2.61,2.27,2.92Z"/>
          <path class="cls-1" d="m193.06,118.15l47.18,9.99s2.28,34.99-.19,35.81-48.34-11.65-48.34-11.65l1.34-34.15Z"/>
        </g>
        <g>
          <path class="cls-1" d="m328.42,119.96l-67.27-6.42c-2.74-.34-4.37-2.09-4.59-4.78l-5.54-59.31,2.5-2.36,71.58,8.19c1.72.2,1.89-.31,3.12,1.02,1.23,1.33,3.34,4.34,3.34,6.02,0,0-.6,57.77-3.15,57.64Z"/>
          <path class="cls-2" d="m261.77,111.09l64,7.49c2.02.25,2.44.84,2.44-1.12l-.31-57.42c0-2.07.01-1.98-2.11-2.22l-71.58-8.19,4.85,58.69c.11,1.39,1.3,2.6,2.71,2.77Z"/>
          <path class="cls-1" d="m264.33,64.87l49.82,5.07s6.77,35.91,4.33,37.04-51.22-6.65-51.22-6.65l-2.93-35.45Z"/>
        </g>
        <g>
          <path class="cls-1" d="m48.65,224.66c-.1-2.58,29.65-42.31,36.33-45.56,6.68-3.25,10.98-5.7,15.57-1.79,1.08.92,10.15,1.36,10.97,2.29,5.39,6.13,12.77,17.39,10.25,18.94-1.31.81-4.03-2.4-11.02-3.58,0,0-1.81-.3-4.09-.37-5.71-.18-26.15,13.77-50.98,35.86,0,0-1.06,1.08-2.67.9-1.33-.15-2.23-1-2.63-1.38-2.1-2.01-1.78-4.9-1.72-5.3Z"/>
          <path class="cls-2" d="m58.89,222.76c-1.18-.65-1.63-2.06-.97-3.02,5.32-7.8,26.31-38.3,29.84-39.1,4.04-.92,11.53-.88,15.77,3.37,4.24,4.25-5.92,5.25-5.92,5.25,0,0-35.36,35.36-38.14,33.82l-.58-.32Z"/>
        </g>
        <g>
          <path class="cls-1" d="m132.55,178.3c-.1-2.58,29.65-42.31,36.33-45.56,6.68-3.25,10.98-5.7,15.57-1.79,1.08.92,10.15,1.36,10.97,2.29,5.39,6.13,12.77,17.39,10.25,18.94-1.31.81-4.03-2.4-11.02-3.58,0,0-1.81-.3-4.09-.37-5.71-.18-26.15,13.77-50.98,35.86,0,0-1.06,1.08-2.67.9-1.33-.15-2.23-1-2.63-1.38-2.1-2.01-1.78-4.9-1.72-5.3Z"/>
          <path class="cls-2" d="m142.79,176.39c-1.18-.65-1.63-2.06-.97-3.02,5.32-7.8,26.31-38.3,29.84-39.1,4.04-.92,6.58-5.83,10.82-1.58s-.97,10.2-.97,10.2c0,0-35.36,35.36-38.14,33.82l-.58-.32Z"/>
        </g>
        <g>
          <path class="cls-1" d="m219.27,134.39c-.11-2.74,31.6-44.82,38.71-48.26,7.11-3.44,11.7-6.03,16.59-1.89,1.15.98,10.81,1.44,11.68,2.43,5.74,6.5,13.6,18.43,10.92,20.08-1.39.85-4.29-2.55-11.74-3.8,0,0-1.92-.32-4.36-.4-6.08-.19-27.86,14.57-54.32,37.97,0,0-1.13,1.15-2.85.95-1.42-.16-2.37-1.06-2.8-1.47-2.24-2.13-1.89-5.19-1.83-5.62Z"/>
          <path class="cls-2" d="m230.18,132.38c-1.25-.69-1.74-2.18-1.04-3.2,5.67-8.26,28.04-40.56,31.8-41.41,4.31-.97,7.01-6.17,11.53-1.67s-1.03,10.81-1.03,10.81c0,0-37.68,37.45-40.64,35.81l-.62-.34Z"/>
        </g>
      </g>
      <g>
        <g>
          <path class="cls-1" d="m136.82,338.92l47.79-49.98-11.14-13.07s-4.56-3.93-5.92-3.95-46.1,52.59-46.1,52.59c0,0-4.93,3.83,5.22,9.12l10.15,5.29Z"/>
          <path class="cls-2" d="m136.18,321.91l30.96-33.34c1.87-2.02,5.35-1.94,7.69.17l-6.74,5.91c2.29,2.06,3.66,6.58.2,5.16l-25.25,26.12c-.1,5.14-3.12,5.25-5.44,3.61h0c-2.74-1.94-3.4-5.5-1.41-7.64Z"/>
        </g>
        <g>
          <path class="cls-1" d="m223.35,290.22l47.79-49.98-11.14-13.07s-4.56-3.93-5.92-3.95-46.1,52.59-46.1,52.59c0,0-4.93,3.83,5.22,9.12l10.15,5.29Z"/>
          <polygon class="cls-2" points="218.98 277.22 257.08 236.2 265.98 244.2 228.18 283.73 218.98 277.22"/>
        </g>
        <g>
          <path class="cls-1" d="m223.35,290.22l47.79-49.98-11.14-13.07s-4.56-3.93-5.92-3.95-46.1,52.59-46.1,52.59c0,0-4.93,3.83,5.22,9.12l10.15,5.29Z"/>
          <polygon class="cls-2" points="218.98 277.22 257.08 236.2 265.98 244.2 231.29 275.99 218.98 277.22"/>
        </g>
        <g>
          <path class="cls-1" d="m300.52,245.81l47.79-49.98-11.14-13.07s-4.56-3.93-5.92-3.95-46.1,52.59-46.1,52.59c0,0-4.93,3.83,5.22,9.12l10.15,5.29Z"/>
          <polygon class="cls-2" points="296.06 230.23 334.16 189.21 343.05 197.21 305.26 236.74 296.06 230.23"/>
        </g>
        <g>
          <path class="cls-1" d="m142.21,364.33l-72.03-9.62c-2.93-.47-4.6-2.34-4.7-5.11l-3.03-61.12,2.81-2.31,76.58,11.63c1.84.28,2.05-.23,3.3,1.19,1.25,1.42,3.38,4.61,3.3,6.32,0,0-3.49,59.26-6.22,59.01Z"/>
          <path class="cls-2" d="m83.32,353.8l56.11,8.98c2.16.34,2.58.97,2.68-1.04l2.49-58.94c.1-2.13.11-2.03-2.16-2.38l-76.58-11.63,2.33,60.46c.06,1.43,13.62,4.31,15.14,4.55Z"/>
          <path class="cls-1" d="m76,304.9l53.33,7.44s5.51,37.16,2.83,38.2c-2.68,1.04-54.75-9.13-54.75-9.13l-1.41-36.51Z"/>
        </g>
        <g>
          <path class="cls-1" d="m228.51,312.73l-71.79-14.55c-2.91-.67-4.45-2.63-4.34-5.37l1.7-60.57,3.01-2.09,76.22,16.85c1.83.4,2.09-.09,3.23,1.41,1.15,1.49,3.05,4.79,2.83,6.48,0,0-8.13,58.28-10.86,57.84Z"/>
          <path class="cls-2" d="m157.7,295.78l68.13,15.24c2.14.49,2.53,1.14,2.78-.84l7.09-58.03c.27-2.09.27-2-2-2.5l-76.22-16.85-2.36,59.87c-.06,1.42,1.06,2.78,2.57,3.12Z"/>
          <path class="cls-1" d="m173.03,246.23l42.56,13.43c2.3.48,4.1,2.45,4.24,4.63.59,9.48,1.86,33.46-.37,34.13s-38-8.55-50.3-11.77c-2.35-.62-4.06-2.77-3.97-4.99l1.09-27.66c.1-2.49,4.11-8.32,6.76-7.76Z"/>
        </g>
        <g>
          <path class="cls-1" d="m310.52,268.55l-63.76-13.09c-2.59-.6-3.95-2.45-3.84-5.04l1.64-57.2,2.68-2,67.69,15.23c1.62.37,1.85-.1,2.87,1.3,1.02,1.4,2.7,4.49,2.5,6.09,0,0-7.35,55.1-9.77,54.71Z"/>
          <path class="cls-2" d="m247.64,253.17l60.5,13.78c1.9.44,2.24,1.06,2.47-.82l6.43-54.86c.24-1.98.24-1.89-1.77-2.34l-67.69-15.23-2.23,56.54c-.05,1.34.94,2.61,2.27,2.92Z"/>
          <path class="cls-1" d="m255.51,209.31l47.18,9.99s2.28,34.99-.19,35.81-48.34-11.65-48.34-11.65l1.34-34.15Z"/>
        </g>
        <g>
          <path class="cls-1" d="m390.87,211.12l-67.27-6.42c-2.74-.34-4.37-2.09-4.59-4.78l-5.54-59.31,2.5-2.36,71.58,8.19c1.72.2,1.89-.31,3.12,1.02,1.23,1.33,3.34,4.34,3.34,6.02,0,0-.6,57.77-3.15,57.64Z"/>
          <path class="cls-2" d="m324.21,202.24l64,7.49c2.02.25,2.44.84,2.44-1.12l-.31-57.42c0-2.07.01-1.98-2.11-2.22l-71.58-8.19,4.85,58.69c.11,1.39,1.3,2.6,2.71,2.77Z"/>
          <path class="cls-1" d="m326.78,156.03l49.82,5.07s6.77,35.91,4.33,37.04-51.22-6.65-51.22-6.65l-2.93-35.45Z"/>
        </g>
        <g>
          <path class="cls-1" d="m111.1,315.82c-.1-2.58,29.65-42.31,36.33-45.56,6.68-3.25,10.98-5.7,15.57-1.79,1.08.92,10.15,1.36,10.97,2.29,5.39,6.13,12.77,17.39,10.25,18.94-1.31.81-4.03-2.4-11.02-3.58,0,0-1.81-.3-4.09-.37-5.71-.18-26.15,13.77-50.98,35.86,0,0-1.06,1.08-2.67.9-1.33-.15-2.23-1-2.63-1.38-2.1-2.01-1.78-4.9-1.72-5.3Z"/>
          <path class="cls-2" d="m121.34,313.91c-1.18-.65-1.63-2.06-.97-3.02,5.32-7.8,26.31-38.3,29.84-39.1,4.04-.92,11.53-.88,15.77,3.37,4.24,4.25-5.92,5.25-5.92,5.25,0,0-35.36,35.36-38.14,33.82l-.58-.32Z"/>
        </g>
        <g>
          <path class="cls-1" d="m195,269.46c-.1-2.58,29.65-42.31,36.33-45.56,6.68-3.25,10.98-5.7,15.57-1.79,1.08.92,10.15,1.36,10.97,2.29,5.39,6.13,12.77,17.39,10.25,18.94-1.31.81-4.03-2.4-11.02-3.58,0,0-1.81-.3-4.09-.37-5.71-.18-26.15,13.77-50.98,35.86,0,0-1.06,1.08-2.67.9-1.33-.15-2.23-1-2.63-1.38-2.1-2.01-1.78-4.9-1.72-5.3Z"/>
          <path class="cls-2" d="m205.24,267.55c-1.18-.65-1.63-2.06-.97-3.02,5.32-7.8,26.31-38.3,29.84-39.1,4.04-.92,6.58-5.83,10.82-1.58,4.24,4.25-.97,10.2-.97,10.2,0,0-35.36,35.36-38.14,33.82l-.58-.32Z"/>
        </g>
        <g>
          <path class="cls-1" d="m281.72,225.55c-.11-2.74,31.6-44.82,38.71-48.26s11.7-6.03,16.59-1.89c1.15.98,10.81,1.44,11.68,2.43,5.74,6.5,13.6,18.43,10.92,20.08-1.39.85-4.29-2.55-11.74-3.8,0,0-1.92-.32-4.36-.4-6.08-.19-27.86,14.57-54.32,37.97,0,0-1.13,1.15-2.85.95-1.42-.16-2.37-1.06-2.8-1.47-2.24-2.13-1.89-5.19-1.83-5.62Z"/>
          <path class="cls-2" d="m292.63,223.53c-1.25-.69-1.74-2.18-1.04-3.2,5.67-8.26,28.04-40.56,31.8-41.41,4.31-.97,7.01-6.17,11.53-1.67,4.52,4.5-1.03,10.81-1.03,10.81,0,0-37.68,37.45-40.64,35.81l-.62-.34Z"/>
        </g>
      </g>
      <g>
        <g>
          <path class="cls-1" d="m287.19,299.21l-60.96-55.44-15.99,13.17s-4.82,5.38-4.84,6.97,64.15,53.44,64.15,53.44c0,0,4.67,5.73,11.15-6.2l6.48-11.93Z"/>
          <path class="cls-2" d="m266.42,300.13l-40.66-35.91c-2.46-2.17-2.36-6.24.23-9l7.2,7.83c2.52-2.7,8.05-4.35,6.31-.28l31.86,29.3c6.28.06,6.41,3.6,4.4,6.34h0c-2.37,3.23-6.73,4.03-9.34,1.73Z"/>
        </g>
        <g>
          <path class="cls-1" d="m227.87,198.41l-60.96-55.44-15.99,13.17s-4.82,5.38-4.84,6.97,64.15,53.44,64.15,53.44c0,0,4.67,5.73,11.15-6.2l6.48-11.93Z"/>
          <polygon class="cls-2" points="211.99 203.64 161.95 159.45 171.75 148.97 219.95 192.81 211.99 203.64"/>
        </g>
        <g>
          <path class="cls-1" d="m227.87,198.41l-60.96-55.44-15.99,13.17s-4.82,5.38-4.84,6.97,64.15,53.44,64.15,53.44c0,0,4.67,5.73,11.15-6.2l6.48-11.93Z"/>
          <polygon class="cls-2" points="211.99 203.64 161.95 159.45 171.75 148.97 210.5 189.25 211.99 203.64"/>
        </g>
        <g>
          <path class="cls-1" d="m173.78,108.52l-60.96-55.44-15.99,13.17s-4.82,5.38-4.84,6.97,64.15,53.44,64.15,53.44c0,0,4.67,5.73,11.15-6.2l6.48-11.93Z"/>
          <polygon class="cls-2" points="154.74 113.89 104.71 69.71 114.5 59.22 162.71 103.06 154.74 113.89"/>
        </g>
        <g>
          <path class="cls-1" d="m318.24,292.64l-11.88,84.4c-.58,3.43-2.87,5.4-6.25,5.56l-74.66,4.16-2.82-3.26,14.35-89.75c.34-2.15-.28-2.4,1.46-3.88,1.74-1.48,5.63-4,7.73-3.93,0,0,72.38,3.5,72.07,6.7Z"/>
          <path class="cls-2" d="m305.27,361.67l11.08-65.76c.42-2.53,1.19-3.03-1.27-3.13l-71.99-2.33c-2.6-.1-2.48-.11-2.91,2.56l-14.35,89.75,73.85-3.33c1.75-.08,5.29-15.99,5.59-17.76Z"/>
          <path class="cls-1" d="m245.52,370.73l9.19-62.5s45.41-6.82,46.67-3.69c1.27,3.13-11.26,64.18-11.26,64.18l-44.61,2.01Z"/>
        </g>
        <g>
          <path class="cls-1" d="m255.38,192.15l-17.91,84.17c-.82,3.41-3.23,5.23-6.57,5.13l-73.98-1.38-2.54-3.5,20.73-89.38c.5-2.14-.1-2.44,1.73-3.8,1.83-1.36,5.85-3.62,7.92-3.38,0,0,71.17,8.93,70.63,12.13Z"/>
          <path class="cls-2" d="m234.54,275.2l18.74-79.9c.6-2.51,1.4-2.97-1.02-3.25l-70.88-7.72c-2.55-.29-2.44-.29-3.06,2.36l-20.73,89.38,73.12,2.16c1.73.05,3.39-1.27,3.82-3.04Z"/>
          <path class="cls-1" d="m174.04,257.75l16.49-49.95c.59-2.69,2.99-4.82,5.66-5.01,11.58-.79,40.87-2.51,41.69.09.84,2.68-10.51,44.57-14.47,59-.76,2.76-3.39,4.78-6.11,4.7l-33.79-1c-3.05-.09-10.15-4.72-9.47-7.84Z"/>
        </g>
        <g>
          <path class="cls-1" d="m201.57,96.59l-16.11,74.76c-.74,3.03-3,4.64-6.16,4.55l-69.87-1.35-2.43-3.11,18.73-79.38c.45-1.9-.12-2.17,1.59-3.37,1.71-1.21,5.49-3.2,7.44-2.99,0,0,67.29,8.06,66.81,10.9Z"/>
          <path class="cls-2" d="m182.67,170.35l16.94-70.96c.55-2.23,1.3-2.63-1-2.89l-67-6.98c-2.42-.26-2.31-.26-2.86,2.09l-18.73,79.38,69.07,2.04c1.63.05,3.19-1.13,3.58-2.69Z"/>
          <path class="cls-1" d="m129.1,161.56l12.3-55.33s42.75-3.02,43.74-.13-14.32,56.7-14.32,56.7l-41.72-1.23Z"/>
        </g>
        <g>
          <path class="cls-1" d="m131.58,3.11l-7.97,78.8c-.42,3.21-2.56,5.14-5.84,5.42l-72.46,7.07-2.88-2.9L52.57,7.63c.24-2.01-.38-2.21,1.26-3.66,1.63-1.45,5.31-3.96,7.35-3.97,0,0,70.56.13,70.4,3.11Z"/>
          <path class="cls-2" d="m120.61,81.22l9.27-74.99c.31-2.36,1.03-2.86-1.37-2.85l-70.14.94c-2.53.02-2.42,0-2.72,2.5l-10.14,83.86,71.71-6.26c1.7-.15,3.17-1.54,3.39-3.2Z"/>
          <path class="cls-1" d="m64.16,78.67l6.28-58.36s43.88-8.28,45.25-5.43c1.37,2.85-8.22,60.01-8.22,60.01l-43.31,3.78Z"/>
        </g>
        <g>
          <path class="cls-1" d="m258.93,329.54c-3.15.14-51.63-34.29-55.59-42.07-3.96-7.78-6.94-12.8-2.16-18.21,1.13-1.28,1.68-11.89,2.82-12.86,7.5-6.37,21.26-15.12,23.16-12.19.98,1.52-2.95,4.74-4.39,12.93,0,0-.37,2.12-.46,4.8-.23,6.68,16.77,30.47,43.71,59.32,0,0,1.32,1.23,1.09,3.12-.19,1.56-1.23,2.62-1.69,3.09-2.46,2.48-5.99,2.13-6.48,2.07Z"/>
          <path class="cls-2" d="m256.62,317.57c-.8,1.38-2.52,1.93-3.69,1.17-9.52-6.15-46.73-30.42-47.7-34.54-1.11-4.73-1.05-13.48,4.15-18.49,5.2-5.01,6.4,6.88,6.4,6.88,0,0,43.13,41.04,41.24,44.31l-.39.68Z"/>
        </g>
        <g>
          <path class="cls-1" d="m202.46,231.79c-3.15.14-51.63-34.29-55.59-42.07-3.96-7.78-6.94-12.8-2.16-18.21,1.13-1.28,1.68-11.89,2.82-12.86,7.5-6.37,21.26-15.12,23.16-12.19.98,1.52-2.95,4.74-4.39,12.93,0,0-.37,2.12-.46,4.8-.23,6.68,16.77,30.47,43.71,59.32,0,0,1.32,1.23,1.09,3.12-.19,1.56-1.23,2.62-1.69,3.09-2.46,2.48-5.99,2.13-6.48,2.07Z"/>
          <path class="cls-2" d="m200.15,219.83c-.8,1.38-2.52,1.93-3.69,1.17-9.52-6.15-46.73-30.42-47.7-34.54-1.11-4.73-7.11-7.64-1.92-12.65,5.2-5.01,12.46,1.03,12.46,1.03,0,0,43.13,41.04,41.24,44.31l-.39.68Z"/>
        </g>
        <g>
          <path class="cls-1" d="m148.99,130.72c-3.34.15-54.68-36.54-58.87-44.83-4.19-8.29-7.35-13.63-2.28-19.4,1.2-1.36,1.78-12.67,2.99-13.7,7.95-6.79,22.54-16.11,24.54-12.98,1.04,1.62-3.12,5.05-4.66,13.78,0,0-.4,2.25-.49,5.11-.24,7.12,17.75,32.46,46.28,63.2,0,0,1.4,1.31,1.16,3.32-.2,1.66-1.3,2.79-1.8,3.29-2.6,2.64-6.35,2.26-6.87,2.2Z"/>
          <path class="cls-2" d="m146.55,117.98c-.85,1.47-2.67,2.06-3.91,1.25-10.08-6.56-49.49-32.42-50.52-36.81-1.18-5.03-7.53-8.14-2.02-13.48,5.51-5.34,13.2,1.1,13.2,1.1,0,0,45.67,43.73,43.67,47.21l-.42.73Z"/>
        </g>
      </g>
    </g>
  </g>
</svg>