<?xml version="1.0" encoding="UTF-8"?>
<svg id="_图层_2" data-name="图层 2" xmlns="http://www.w3.org/2000/svg" viewBox="0 0 625.95 1187.46">
  <defs>
    <style>
      .cls-1, .cls-2 {
        stroke: #000;
        stroke-miterlimit: 10;
      }

      .cls-3, .cls-2 {
        fill: #423f42;
      }

      .cls-3, .cls-4 {
        stroke-width: 0px;
      }
    </style>
  </defs>
  <g id="chain_b_04" data-name="chain b 04">
    <g>
      <path class="cls-4" d="m159.5,310.05s-27.58-18.93-29.54-25.21-14.99-73.53-14.99-73.53l17.71,9.58,26.82,89.16Z"/>
      <path class="cls-3" d="m144.38,287.55l-10.27-10.21s-9.72-39.32-8.57-42.81,6.34-4.45,6.34-4.45l3.48-.28,15.39,51.15s-2.04,5.36-4.21,5.98l-2.16.62Z"/>
    </g>
    <g>
      <path class="cls-4" d="m103.54,201.62s-28.25-21.8-30.39-28.81c-2.14-7.01-16.94-81.84-16.94-81.84l18.08,11.15,29.25,99.49Z"/>
      <path class="cls-3" d="m87.75,176.25l-10.6-11.62s-10.77-43.82-9.7-47.64,6.27-4.73,6.27-4.73l3.5-.2,16.78,57.09s-1.92,5.87-4.09,6.49l-2.16.62Z"/>
    </g>
    <g>
      <path class="cls-4" d="m231.63,453.85s-27.58-18.93-29.54-25.21c-1.97-6.28-14.99-73.53-14.99-73.53l17.71,9.58,26.82,89.16Z"/>
      <path class="cls-3" d="m216.51,431.34l-10.27-10.21s-9.72-39.32-8.57-42.81,6.34-4.45,6.34-4.45l3.48-.28,15.39,51.15s-2.04,5.36-4.21,5.98l-2.16.62Z"/>
    </g>
    <g>
      <path class="cls-4" d="m309.37,603.66s-38.12-18.91-40.8-26.09-20.23-85-20.23-85l24.5,9.11,36.53,101.98Z"/>
      <path class="cls-3" d="m288.55,578.96l-14.17-10.78s-13.18-45.24-11.56-49.51c1.62-4.27,8.83-6.05,8.83-6.05l4.83-.77,20.96,58.51s-2.87,6.58-5.88,7.59l-3.01,1Z"/>
    </g>
    <g>
      <path class="cls-4" d="m393.92,783.65s-40.12-28.74-43.05-36.61c-2.93-7.87-23.45-85.45-23.45-85.45l26.54,10.11,39.96,111.96Z"/>
      <path class="cls-3" d="m371.3,756.48l-22.17-27.36s-7.66-34.18-5.93-38.85,9.53-6.59,9.53-6.59l5.22-.81,22.93,64.24s-3.08,7.2-6.33,8.29l-3.25,1.09Z"/>
    </g>
    <g>
      <path class="cls-4" d="m473.52,965.56s-37.59-31.09-40.63-38.88c-3.03-7.78-25.79-90.48-25.79-90.48l30.28,8.74,36.13,120.62Z"/>
      <path class="cls-3" d="m455.46,926.88l-15.55-24.84s-16.21-35.6-13.98-40.4,11.33-7.17,11.33-7.17l6.08-1.11,23.64,63.54s-3.89,7.43-7.71,8.71l-3.81,1.27Z"/>
    </g>
    <g>
      <path class="cls-4" d="m544.92,1104.16s-37.59-31.09-40.63-38.88-25.79-90.48-25.79-90.48l30.28,8.74,36.13,120.62Z"/>
      <path class="cls-3" d="m526.86,1065.48l-15.55-24.84s-16.21-35.6-13.98-40.4c2.22-4.8,11.33-7.17,11.33-7.17l6.08-1.11,23.64,63.54s-3.89,7.43-7.71,8.71l-3.81,1.27Z"/>
    </g>
    <g>
      <path class="cls-1" d="m150.43,260.11l-2.28,1.36-88.59-23.01-1.32-2.62,30.73-95.67,2.48-1.28,83.3,30.46,2.5,5.69-26.81,85.07Zm7.2-70.39l-58.07-22.59-12.77,50.4,52.47,16.6,18.37-44.42Z"/>
      <path class="cls-2" d="m58.88,235.76l88.59,23.01,26.81-85.07-84.68-33.61-30.73,95.67Zm100.15-47.94l-19.88,48.08-55.05-16.35,13.8-54.49,61.13,22.77Z"/>
    </g>
    <g>
      <path class="cls-1" d="m96.63,134.39l-9.1-.95L1.68,101.16l-1.15-2.85L36.36,1.65l2.52-1.1,81.38,42.94.95,2.75-24.57,88.14Zm4.41-74.72l-55.89-25.79-15.5,51.24,50.72,19.03,20.67-44.49Z"/>
      <path class="cls-2" d="m1.17,98.27l85.85,32.28,31.35-85.99L36.99,1.63,1.17,98.27Zm101.36-40.46l-22.37,48.15-53.23-22.2,16.76-55.4,58.83,29.45Z"/>
    </g>
    <g>
      <path class="cls-1" d="m215.39,397.19l-7.85-4.07-82.5-26.59-1.32-2.62,30.73-95.67,2.48-1.28,84.68,33.61,3.82,10.63-30.04,85.99Zm7.72-79.4l-58.07-22.59-12.77,50.4,52.47,16.6,18.37-44.42Z"/>
      <path class="cls-2" d="m124.36,363.82l88.59,23.01,26.81-85.07-84.68-33.61-30.73,95.67Zm98.17-38.59l-17.9,38.72-55.05-16.35,13.8-54.49,54.24,20.2c4.8,1.79,7.06,7.28,4.91,11.92Z"/>
    </g>
    <g>
      <path class="cls-1" d="m277.51,525.74l-2.36,1.43-92.16-24.92-1.39-2.79,31.44-101.13,2.57-1.34,88.15,36.12,1.17,2.7-27.42,89.93Zm7.12-74.51l-60.44-24.29-13.01,53.3,54.6,17.91,18.85-46.93Z"/>
      <path class="cls-2" d="m188.4,501l86.04,23.29,27.42-89.93-88.15-36.12-29.57,95.01c-1.03,3.32.9,6.84,4.26,7.75Zm97.68-51.79l-20.41,50.8-57.28-17.66,14.06-57.63,63.63,24.5Z"/>
    </g>
    <g>
      <path class="cls-1" d="m361.07,701.21l-4.59.54-93.34-29.95-1.46-3.1,29.32-110.15,2.56-1.4,92.55,36.87,3.41,10.11-28.45,97.08Zm3.21-82.57l-61.4-28.36-11.87,58.16,55.37,21.2,17.9-50.99Z"/>
      <path class="cls-2" d="m263.27,668.36l93.34,29.95,26.62-101.88-90.64-38.22-29.32,110.15Zm103.34-52.15l-19.38,55.19-58.06-21,12.83-62.87,64.61,28.68Z"/>
    </g>
    <g>
      <path class="cls-1" d="m455.85,875.64l-5.04-1.46-99.11-34.9-1.59-3.47,29.47-122.05,2.69-1.51,93.69,44.44,5.53,10.4-25.65,108.56Zm2.05-93.79l-65.32-32.59-11.74,64.5,58.84,24.52,18.22-56.43Z"/>
      <path class="cls-2" d="m350.82,835.73l99.11,34.9,25.35-104.28-7.5-11.01-87.48-41.67-29.47,122.05Zm108.55-56.27l-19.72,61.08-61.69-24.35,12.69-69.73,68.71,33Z"/>
    </g>
    <g>
      <path class="cls-1" d="m528.09,1028.59l-2.41,1.52-95.59-29.66-1.48-3.11,30.91-110.83,2.64-1.42,91.62,41.92,1.25,3.01-26.94,98.57Zm6.2-82.03l-62.82-28.21-12.61,58.5,56.68,21.04,18.75-51.33Z"/>
      <path class="cls-2" d="m429.29,997.26l95.59,29.66,26.94-98.57-91.62-41.92-30.91,110.83Zm106.46-52.9l-20.3,55.56-59.45-20.83,13.63-63.24,66.11,28.52Z"/>
    </g>
    <g>
      <path class="cls-1" d="m598.49,1185.4l-2.41,1.52-95.59-29.66-1.48-3.11,30.91-110.83,2.64-1.42,91.62,41.92,1.25,3.01-26.94,98.57Zm6.2-82.03l-62.82-28.21-12.61,58.5,56.68,21.04,18.75-51.33Z"/>
      <path class="cls-2" d="m499.69,1154.07l95.59,29.66,26.94-98.57-91.62-41.92-30.91,110.83Zm106.46-52.9l-20.3,55.56-59.45-20.83,13.63-63.24,66.11,28.52Z"/>
    </g>
    <g>
      <path class="cls-4" d="m171.33,321.66l8.4-2.41.73-23.76-16.95-72.25s-23.25-13.07-23.94-13.92-15.46-13.46-20.54-12-7.49,3.73-7.38,8.43,6.94,21.17,6.94,21.17l19.73,10.66,23.99,82.77,9.02,1.31Z"/>
      <path class="cls-3" d="m168.13,307.98s3.58.55,3.46-4.15-7.89-71.43-11.7-77.18-5.08-4.86-5.08-4.86c0,0-13.04-5.21-15.23-4.05s2.51,10.71,2.51,10.71c0,0,10.56,49.23,14.95,59.55,4.39,10.32,3.35,12.2,6.7,15.97s4.39,4.01,4.39,4.01Z"/>
    </g>
    <g>
      <path class="cls-4" d="m111.63,202.99l8.05-2.31v-25.79s-18.57-79.15-18.57-79.15c0,0-22.89-15.06-23.58-16.01s-15.37-15.2-20.23-13.8-7.14,3.78-6.88,8.89,7.35,23.26,7.35,23.26l19.41,12.31,25.7,90.84,8.77,1.75Z"/>
      <path class="cls-3" d="m108.12,188s3.48.73,3.22-4.38c-.26-5.12-9.78-77.92-13.64-84.31s-5.06-5.47-5.06-5.47c0,0-12.77-6.14-14.85-4.96s2.75,11.73,2.75,11.73c0,0,11.7,53.89,16.26,65.27,4.56,11.38,3.61,13.38,6.96,17.61s4.36,4.51,4.36,4.51Z"/>
    </g>
    <g>
      <path class="cls-4" d="m242.02,459.29l8.4-2.41.73-23.76-16.95-72.25s-23.25-13.07-23.94-13.92-15.46-13.46-20.54-12-7.49,3.73-7.38,8.43,6.94,21.17,6.94,21.17l19.73,10.66,23.99,82.77,9.02,1.31Z"/>
      <path class="cls-3" d="m238.81,445.61s3.58.55,3.46-4.15-7.89-71.43-11.7-77.18c-3.81-5.75-5.08-4.86-5.08-4.86,0,0-13.04-5.21-15.23-4.05s2.51,10.71,2.51,10.71c0,0,10.56,49.23,14.95,59.55,4.39,10.32,3.35,12.2,6.7,15.97,3.35,3.78,4.39,4.01,4.39,4.01Z"/>
    </g>
    <g>
      <path class="cls-4" d="m317.49,619.24l10-2.87.89-28.18-20.1-85.7s-27.67-15.47-28.49-16.49-18.4-15.95-24.44-14.22c-6.04,1.73-11.59,10.87-11.46,16.45.14,5.58,7.15,5.32,7.15,5.32l27.23,25.98,28.48,98.17,10.74,1.54Z"/>
      <path class="cls-3" d="m313.68,603.01s4.26.65,4.12-4.93-9.32-84.73-13.85-91.55-6.04-5.76-6.04-5.76c0,0-15.52-6.16-18.12-4.79-2.61,1.37,2.98,12.7,2.98,12.7,0,0,12.53,58.39,17.74,70.63,5.22,12.24,3.98,14.47,7.96,18.94,3.98,4.48,5.22,4.75,5.22,4.75Z"/>
    </g>
    <g>
      <path class="cls-4" d="m403.01,791.03l11.12-3.19,1.5-29.16-20.68-88.15s-30.34-15.38-31.23-16.41-20.07-16.08-26.79-14.15-9.96,4.78-9.91,10.55.38,11.13.38,11.13l34.03,27.16,29.72,100.86,11.86,1.35Z"/>
      <path class="cls-3" d="m399.1,774.35s4.7.58,4.65-5.19c-.05-5.77-8.77-87.39-13.66-94.34-4.89-6.95-6.58-5.82-6.58-5.82,0,0-24.36-3.4-27.28-1.93-2.91,1.48,8.43,10.74,8.43,10.74,0,0,14.73,59.8,20.28,72.33,5.55,12.54,4.14,14.87,8.46,19.41s5.69,4.79,5.69,4.79Z"/>
    </g>
    <g>
      <path class="cls-4" d="m486.07,968.8l11.12-3.19,1.5-29.16-20.68-88.15s-21.08-19.83-32.5-23.14c-2.98-.86-17.51-19.19-24.23-17.26s-18.15-1.1-18.1,4.67c.05,5.77,1.86,14.21,1.86,14.21l39.46,39.81,29.72,100.86,11.86,1.35Z"/>
      <path class="cls-3" d="m482.15,952.12s4.7.58,4.65-5.19-8.77-87.39-13.66-94.34c-4.89-6.95-6.58-5.82-6.58-5.82,0,0-17.06-6.02-19.97-4.55-2.91,1.48,3.06,13.06,3.06,13.06,0,0,12.79,60.09,18.34,72.63s4.14,14.87,8.46,19.41c4.32,4.54,5.69,4.79,5.69,4.79Z"/>
    </g>
    <g>
      <path class="cls-4" d="m559.48,1116.51l11.12-3.19,1.5-29.16-20.68-88.15s-21.08-19.83-32.5-23.14c-2.98-.86-17.51-19.19-24.23-17.26s-18.15-1.1-18.1,4.67c.05,5.77,1.86,14.21,1.86,14.21l39.46,39.81,29.72,100.86,11.86,1.35Z"/>
      <path class="cls-3" d="m555.57,1099.82s4.7.58,4.65-5.19-8.77-87.39-13.66-94.34c-4.89-6.95-6.58-5.82-6.58-5.82,0,0-17.06-6.02-19.97-4.55-2.91,1.48,3.06,13.06,3.06,13.06,0,0,12.79,60.09,18.34,72.63,5.55,12.54,4.14,14.87,8.46,19.41,4.32,4.54,5.69,4.79,5.69,4.79Z"/>
    </g>
  </g>
</svg>