<?xml version="1.0" encoding="UTF-8"?>
<svg id="_图层_2" data-name="图层 2" xmlns="http://www.w3.org/2000/svg" viewBox="0 0 2257.31 738.56">
  <defs>
    <style>
      .cls-1, .cls-2 {
        stroke: #000;
        stroke-miterlimit: 10;
      }

      .cls-3, .cls-4 {
        stroke-width: 0px;
      }

      .cls-4, .cls-2 {
        fill: #fff;
      }
    </style>
  </defs>
  <g id="chain01">
    <g>
      <g>
        <path class="cls-3" d="m1603.05,222.54s51-47,64-48,147.86,4.59,147.86,4.59l-27.86,31.41-184,12Z"/>
        <path class="cls-4" d="m1654.05,202.54l25-16s80-1,86,3,5,15,5,15l-1.36,7.2-105.57,6.89s-9.06-6.7-9.06-11.39v-4.69Z"/>
      </g>
      <g>
        <path class="cls-3" d="m1839.55,160.54s56.81-47,71.29-48,164.71,4.59,164.71,4.59l-31.04,31.41-204.96,12Z"/>
        <path class="cls-4" d="m1896.36,140.54l27.85-16s89.11-1,95.8,3,5.57,15,5.57,15l-1.52,7.2-117.6,6.89s-10.1-6.7-10.1-11.39v-4.69Z"/>
      </g>
      <g>
        <path class="cls-3" d="m1290.55,300.54s51-47,64-48,147.86,4.59,147.86,4.59l-27.86,31.41-184,12Z"/>
        <path class="cls-4" d="m1341.55,280.54l25-16s80-1,86,3,5,15,5,15l-1.36,7.2-105.57,6.89s-9.06-6.7-9.06-11.39v-4.69Z"/>
      </g>
      <g>
        <path class="cls-3" d="m963.57,387.05s56.71-68.42,71.8-70.44c15.09-2.02,172.5-.59,172.5-.59l-30.65,45.43-213.65,25.61Z"/>
        <path class="cls-4" d="m1021.83,356.54l28.2-23.66s93.13-5.21,100.35.12c7.22,5.33,6.69,20.82,6.69,20.82l-1.18,10.17-122.58,14.69s-10.94-8.98-11.21-15.56l-.27-6.59Z"/>
      </g>
      <g>
        <path class="cls-3" d="m575.53,473.03s76.46-67.8,93.02-70c16.56-2.2,175.13-6.92,175.13-6.92l-33.67,49.1-234.47,27.82Z"/>
        <path class="cls-4" d="m639.49,440.03l64.06-31.99s69.11.72,77.03,6.47c7.92,5.75,7.32,22.49,7.32,22.49l-1.3,10.99-134.53,15.96s-12-9.69-12.29-16.81l-.29-7.12Z"/>
      </g>
      <g>
        <path class="cls-3" d="m186.55,548.04s79.56-61.55,96-64c16.44-2.45,185.95-9.26,185.95-9.26l-33.11,57.35-248.85,15.91Z"/>
        <path class="cls-4" d="m269.87,529.79l55.67-19.75s76.46-15.96,84.37-9.15c7.91,6.81,7.44,26.44,7.44,26.44l-1.21,12.88-133.6,17.74s-12-11.45-12.34-19.81l-.34-8.35Z"/>
      </g>
      <g>
        <path class="cls-1" d="m1702.88,227.9l-1.34-5.27,92-169,5.7-1.43,165,108,1.08,5.65-103.27,154.69-12.17,2.36-147-95Zm129.81,48.16l74.57-107.19-88.8-49.95-60.14,98.67,74.37,58.47Z"/>
        <path class="cls-2" d="m1799.05,53.54l-92,169,147,95,110-156-165-108Zm36.5,226.29l-80.5-63.29,61.08-104.04,96,54-76.58,113.33Z"/>
      </g>
      <g>
        <path class="cls-1" d="m1971.05,178.54l6.77-18.04L2085.93,1.5l6.05-.97,164.09,118.82.71,5.64-125.93,144.84-5.74.62-154.07-91.91Zm139.55,44.56l79.45-101.24-88.9-55.91-63.81,93.97,73.26,63.18Z"/>
        <path class="cls-2" d="m2091.68,1.84l-108.12,159,146.28,104.66,125.93-144.84L2091.68,1.84Zm21.62,225.18l-79.29-68.38,71.18-97.54,96.11,60.45-88.01,105.48Z"/>
      </g>
      <g>
        <path class="cls-1" d="m1407.05,294.54l12-14,95.49-154.91,5.7-1.43,165,108,1.08,5.65-110,156-22.27,2.7-147-102Zm146.64,53.52l74.57-107.19-88.8-49.95-60.14,98.67,74.37,58.47Z"/>
        <path class="cls-2" d="m1520.05,125.54l-92,169,147,95,110-156-165-108Zm26.51,223.57l-70.51-60.57,61.08-104.04,96,54-73.55,108.86c-2.94,4.35-9.02,5.17-13.01,1.75Z"/>
      </g>
      <g>
        <path class="cls-1" d="m1128.97,359.48l-1.42-5.47,97.58-175.33,6.05-1.49,175,112.05,1.14,5.86-116.67,161.84-5.77,1.09-155.91-98.56Zm137.68,49.97l79.08-111.21-94.18-51.82-63.79,102.37,78.88,60.66Z"/>
        <path class="cls-2" d="m1227.87,184.24l-94.48,169.67,155.91,98.56,116.67-161.84-169.42-108.57c-2.98-1.91-6.96-.91-8.68,2.18Zm41.81,229.11l-85.38-65.66,64.78-107.94,101.82,56.02-81.22,117.57Z"/>
      </g>
      <g>
        <path class="cls-1" d="m750.06,445.58l1.48-9.57,107.77-175.33,6.68-1.49,193.29,112.05,1.26,5.86-120.5,170.44-21.06,2.1-168.93-104.06Zm155.12,45.86l87.35-111.21-104.02-51.82-70.45,102.37,87.12,60.66Z"/>
        <path class="cls-2" d="m865.78,262.59l-107.77,175.33,179.04,102.62,122.01-165.9-193.29-112.05Zm42.76,234.76l-94.3-65.66,71.55-107.94,112.46,56.02-89.7,117.57Z"/>
      </g>
      <g>
        <path class="cls-1" d="m367.02,555l5.53-9.55,120.33-184.7,7.46-1.57,215.8,118.03,1.41,6.18-135.5,169.14-22.77,6.29-192.26-103.82Zm177.06,48.85l97.52-117.15-116.14-54.59-78.66,107.83,97.27,63.9Z"/>
        <path class="cls-2" d="m500.08,360.66l-120.33,184.7,184.29,101.18,25-10,126.84-157.84-215.8-118.03Zm47.74,247.3l-105.29-69.16,79.88-113.7,125.56,59.02-100.15,123.85Z"/>
      </g>
      <g>
        <path class="cls-1" d="m2.3,634.21l-1.75-5.76,120.33-184.7,7.46-1.57,215.8,118.03,1.41,6.18-143.87,170.49-7.11,1.15L2.3,634.21Zm169.78,52.63l97.52-117.15-116.14-54.59-78.66,107.83,97.27,63.9Z"/>
        <path class="cls-2" d="m128.08,443.66L7.76,628.36l192.26,103.82,143.87-170.49-215.8-118.03Zm47.74,247.3l-105.29-69.16,79.88-113.7,125.56,59.02-100.15,123.85Z"/>
      </g>
      <g>
        <path class="cls-3" d="m1574.55,241.04v18.2l44.73,12.8h146.5s37.5-41,39.5-42,34-25,34-36-3-17-12-19-44,4-44,4l-31,35-170.33,9.3-7.4,17.7Z"/>
        <path class="cls-4" d="m1602.28,241.04s-3,7,6,9,140,18,153,13,12-8,12-8c0,0,17-24,16-29s-21.71,0-21.71,0c0,0-99.29-2-121.29,2s-25,1-34,6-10,7-10,7Z"/>
      </g>
      <g>
        <path class="cls-3" d="m1832.55,176.31v17.45l49,12.27h160.48s41.08-39.32,43.27-40.28,37.24-23.97,37.24-34.52-3.29-16.3-13.15-18.22c-9.86-1.92-48.2,3.84-48.2,3.84l-33.96,33.56-186.59,8.91-8.11,16.98Z"/>
        <path class="cls-4" d="m1862.93,176.31s-3.29,6.71,6.57,8.63,153.36,17.26,167.6,12.47c14.24-4.79,13.15-7.67,13.15-7.67,0,0,18.62-23.01,17.53-27.81s-23.79,0-23.79,0c0,0-108.76-1.92-132.86,1.92-24.1,3.84-27.39.96-37.24,5.75s-10.95,6.71-10.95,6.71Z"/>
      </g>
      <g>
        <path class="cls-3" d="m1274.55,319.04v18.2l44.73,12.8h146.5s37.5-41,39.5-42,34-25,34-36-3-17-12-19-44,4-44,4l-31,35-170.33,9.3-7.4,17.7Z"/>
        <path class="cls-4" d="m1302.28,319.04s-3,7,6,9,140,18,153,13,12-8,12-8c0,0,17-24,16-29s-21.71,0-21.71,0c0,0-99.29-2-121.29,2s-25,1-34,6-10,7-10,7Z"/>
      </g>
      <g>
        <path class="cls-3" d="m929.55,396.12v21.68l53.06,15.24h173.76s44.48-48.83,46.85-50.02,40.33-29.77,40.33-42.87-14.33-28.73-25-31.11c-10.67-2.38-14,12-14,12l-64.19,42.93-202.03,11.07-8.78,21.08Z"/>
        <path class="cls-4" d="m962.44,396.12s-3.56,8.34,7.12,10.72c10.67,2.38,166.05,21.44,181.47,15.48,15.42-5.95,14.23-9.53,14.23-9.53,0,0,20.16-28.58,18.98-34.54-1.19-5.95-25.75,0-25.75,0,0,0-117.76-2.38-143.86,2.38-26.09,4.76-29.65,1.19-40.33,7.15-10.67,5.95-11.86,8.34-11.86,8.34Z"/>
      </g>
      <g>
        <path class="cls-3" d="m556.55,487.98v24.11l54.58,16.95h178.74s45.75-54.3,48.19-55.62,41.48-33.11,41.48-47.68-3.66-22.51-14.64-25.16c-10.98-2.65-21.36-4.54-21.36-4.54l-70.15,56.19-207.82,12.31-9.03,23.45Z"/>
        <path class="cls-4" d="m590.38,487.98s-3.66,9.27,7.32,11.92c10.98,2.65,170.81,23.84,186.67,17.22,15.86-6.62,14.64-10.59,14.64-10.59,0,0,19.75-47.86,18.53-54.49-1.22-6.62-25,12-25,12,0,0-121.64,1.43-148.48,6.73-26.84,5.3-30.5,1.32-41.48,7.95-10.98,6.62-12.2,9.27-12.2,9.27Z"/>
      </g>
      <g>
        <path class="cls-3" d="m173.55,571.98v24.11l54.58,16.95h178.74s49.16-33.38,61.68-55c3.26-5.64,46-26.43,46-41s11.98-36.35,1-39c-10.98-2.65-28-3-28-3l-97.15,61.19-207.82,12.31-9.03,23.45Z"/>
        <path class="cls-4" d="m207.38,571.98s-3.66,9.27,7.32,11.92c10.98,2.65,170.81,23.84,186.67,17.22,15.86-6.62,14.64-10.59,14.64-10.59,0,0,20.74-31.78,19.52-38.41-1.22-6.62-26.49,0-26.49,0,0,0-121.14-2.65-147.98,2.65-26.84,5.3-30.5,1.32-41.48,7.95-10.98,6.62-12.2,9.27-12.2,9.27Z"/>
      </g>
    </g>
  </g>
</svg>