<?xml version="1.0" encoding="UTF-8"?>
<svg id="_图层_2" data-name="图层 2" xmlns="http://www.w3.org/2000/svg" viewBox="0 0 296.46 1335.01">
  <defs>
    <style>
      .cls-1 {
        fill: #423f42;
      }

      .cls-1, .cls-2 {
        stroke-width: 0px;
      }
    </style>
  </defs>
  <g id="chain_b_03" data-name="chain b 03">
    <g>
      <path class="cls-2" d="m251.45,213.83l-1.79-47.19-9.35-1.31s-3.27.17-3.78.8,3.45,47.71,3.45,47.71c0,0-.34,4.21,5.57,2.1l5.9-2.1Z"/>
      <path class="cls-1" d="m244.5,205.67l-1.54-31.05c-.09-1.88,1.24-3.46,2.96-3.5l-.2,6.09c1.67-.04,3.98,1.57,2.11,2.48l.83,24.79c1.99,2.61.9,4.07-.62,4.34h0c-1.8.31-3.45-1.15-3.55-3.14Z"/>
    </g>
    <g>
      <path class="cls-2" d="m239.14,283.29l-1.79-47.19-9.35-1.31s-3.27.17-3.78.8,3.45,47.71,3.45,47.71c0,0-.34,4.21,5.57,2.1l5.9-2.1Z"/>
      <polygon class="cls-1" points="231.27 278.81 229.38 240.6 237.93 240.86 237.3 277.76 231.27 278.81"/>
    </g>
    <g>
      <path class="cls-2" d="m226.29,352.13l-1.79-47.19-9.35-1.31s-3.27.17-3.78.8,3.45,47.71,3.45,47.71c0,0-.34,4.21,5.57,2.1l5.9-2.1Z"/>
      <polygon class="cls-1" points="219.52 347.7 217.63 309.49 224.13 309.32 223.49 347.31 219.52 347.7"/>
    </g>
    <g>
      <path class="cls-2" d="m210.54,419.73l.03-46-9.35-1.31s-3.27.17-3.78.8,3.45,47.71,3.45,47.71c0,0-.34,4.21,5.57,2.1,5.9-2.1,4.09-3.3,4.09-3.3Z"/>
      <polygon class="cls-1" points="203.76 423 201.87 384.79 208.37 384.62 209.79 421.94 203.76 423"/>
    </g>
    <g>
      <path class="cls-2" d="m197.23,485.57l-1.23-40.07-9.35-1.31s-3.27.17-3.78.8,3.45,47.71,3.45,47.71c0,0,.02-2.23,5.92-4.34s4.99-2.79,4.99-2.79Z"/>
      <polygon class="cls-1" points="191.01 488.25 189.12 450.04 195.63 449.88 195.12 483.09 191.01 488.25"/>
    </g>
    <g>
      <path class="cls-2" d="m182.5,563.3l-1.89-35.91-9.35-1.31s-3.27.17-3.78.8,3.45,47.71,3.45,47.71c0,0-.34,4.21,5.57,2.1,5.9-2.1,6.01-13.39,6.01-13.39Z"/>
      <polygon class="cls-1" points="175.62 570.14 173.73 531.93 180.23 531.77 179.75 563.78 175.62 570.14"/>
    </g>
    <g>
      <path class="cls-2" d="m169.18,656.56l.02-47.16-11.16-1.34s-3.27.17-3.78.8,3.45,47.71,3.45,47.71c0,0-.34,4.21,5.57,2.1l5.9-2.1Z"/>
      <polygon class="cls-1" points="160.95 645.49 159.06 607.28 165.56 607.11 166.98 644.43 160.95 645.49"/>
    </g>
    <g>
      <path class="cls-2" d="m158.48,718.99l-1.33-36.49-9.35-1.31s-3.27.17-3.78.8,3.45,47.71,3.45,47.71c0,0-.34,4.21,5.57,2.1s5.45-12.81,5.45-12.81Z"/>
      <path class="cls-1" d="m151.65,713.74l-1.54-31.05c-.09-1.88,1.24-3.46,2.96-3.5h.36c1.67-.05,3.07,1.39,3.14,3.22l1.18,31.06c.06,1.69-1.03,3.15-2.55,3.42h0c-1.8.31-3.45-1.15-3.55-3.14Z"/>
    </g>
    <g>
      <path class="cls-2" d="m144.83,804.46l-1.79-47.19-9.35-1.31s-3.27.17-3.78.8,3.45,47.71,3.45,47.71c0,0-.34,4.21,5.57,2.1l5.9-2.1Z"/>
      <polygon class="cls-1" points="138.06 800.03 136.17 761.81 142.67 761.65 141.8 788.27 138.06 800.03"/>
    </g>
    <g>
      <path class="cls-2" d="m136.72,872.37l-3.81-45.56-9.35-1.31s-3.27.17-3.78.8,3.45,47.71,3.45,47.71c0,0-.34,4.21,5.57,2.1,5.9-2.1,7.92-3.74,7.92-3.74Z"/>
      <polyline class="cls-1" points="133.95 868.52 127.92 869.57 126.03 831.36 132.54 831.2"/>
    </g>
    <polyline class="cls-1" points="129.35 862.5 127.92 869.57 126.03 831.36 132.54 831.2 132.72 859.05"/>
    <g>
      <path class="cls-2" d="m113,1037.04l-3.71-49.14-9.35-1.31s-3.27.17-3.78.8,3.45,47.71,3.45,47.71c0,0-.34,4.21,5.57,2.1,5.9-2.1,7.82-.16,7.82-.16Z"/>
      <polygon class="cls-1" points="104.3 1030.66 102.41 992.45 104.95 993.06 110.33 1029.61 104.3 1030.66"/>
    </g>
    <g>
      <path class="cls-2" d="m90.8,1108.49l2.54-38.12-9.35-1.31s-3.27.17-3.78.8,3.45,47.71,3.45,47.71c0,0-.34,4.21,5.57,2.1,5.9-2.1,1.58-11.17,1.58-11.17Z"/>
      <polygon class="cls-1" points="85.41 1101.05 83.52 1062.84 90.02 1062.67 89.51 1095.88 85.41 1101.05"/>
    </g>
    <g>
      <path class="cls-2" d="m82.63,1192.99l-.54-46.59-10.59-1.91s-3.27.17-3.78.8,3.45,47.71,3.45,47.71c0,0-.34,4.21,5.57,2.1l5.9-2.1Z"/>
      <polygon class="cls-1" points="74.31 1185.5 72.42 1147.29 78.92 1147.13 80.33 1184.45 74.31 1185.5"/>
    </g>
    <g>
      <path class="cls-2" d="m69.03,1261.88l-3.08-32.37-9.35-1.31s-3.27.17-3.78.8,3.45,47.71,3.45,47.71c0,0-.34,4.21,5.57,2.1,5.9-2.1,7.2-16.92,7.2-16.92Z"/>
      <polygon class="cls-1" points="58.84 1269.79 56.96 1231.57 63.46 1231.41 64.87 1268.73 58.84 1269.79"/>
    </g>
    <g>
      <path class="cls-2" d="m123.66,956.08l-1.79-47.19-9.35-1.31s-3.27.17-3.78.8,3.45,47.71,3.45,47.71c0,0-.34,4.21,5.57,2.1l5.9-2.1Z"/>
      <polygon class="cls-1" points="116.89 951.64 115 913.43 121.5 913.27 119.87 947.63 116.89 951.64"/>
    </g>
    <g>
      <path class="cls-2" d="m264.73,149.2l-1.79-47.19-9.35-1.31s-3.27.17-3.78.8,3.45,47.71,3.45,47.71c0,0-.34,4.21,5.57,2.1l5.9-2.1Z"/>
      <polygon class="cls-1" points="257.96 144.76 256.07 106.55 262.57 106.39 263.98 143.71 257.96 144.76"/>
    </g>
    <g>
      <path class="cls-2" d="m264.73,149.2l-1.79-47.19-9.35-1.31s-3.27.17-3.78.8,3.45,47.71,3.45,47.71c0,0-.34,4.21,5.57,2.1l5.9-2.1Z"/>
      <polygon class="cls-1" points="257.96 144.76 256.07 106.55 262.57 106.39 262.09 138.4 257.96 144.76"/>
    </g>
    <g>
      <path class="cls-2" d="m276.18,91.07l-1.79-47.19-9.35-1.31s-3.27.17-3.78.8,3.45,47.71,3.45,47.71c0,0-.34,4.21,5.57,2.1l5.9-2.1Z"/>
      <polygon class="cls-1" points="268.35 85.39 266.47 47.18 272.97 47.01 274.38 84.34 268.35 85.39"/>
    </g>
    <g>
      <path class="cls-2" d="m263.52,223.97l-30.86,28.83c-1.28,1.13-2.65.98-3.78-.35l-25.28-29.02.14-2.46,33.37-29.95c.8-.72.68-1.07,1.71-.95,1.03.12,3.09.71,3.74,1.61,0,0,22.1,31.14,20.97,32.29Z"/>
      <path class="cls-1" d="m237.24,246.22l24.63-21.72c.95-.83,1.36-.72.6-1.77l-22.35-30.51c-.8-1.11-.76-1.06-1.75-.17l-33.37,29.95,24.76,29.02c.59.69,6.82-4.21,7.48-4.8Z"/>
      <path class="cls-2" d="m215.17,225.28l22.98-21.19s16.75,15.93,16.16,17.7-24.18,21.01-24.18,21.01l-14.95-17.53Z"/>
    </g>
    <g>
      <path class="cls-2" d="m253.41,292.33l-32.58,29.87c-1.28,1.08-2.7.82-3.91-.65l-27.11-32.11.06-2.55,33.3-28.57c.8-.69.66-1.06,1.73-.86,1.07.21,3.21.98,3.91,1.96,0,0,25.73,31.8,24.61,32.9Z"/>
      <path class="cls-1" d="m220.07,320.48l31.69-27.62c.94-.8-.2-1.28-1.02-2.43l-24.42-30.63c-.87-1.21-.82-1.16-1.81-.32l-33.3,28.57,26.57,32.07c.63.76,1.63.91,2.29.36Z"/>
      <path class="cls-2" d="m201.81,292.25l22.91-20.26s17.84,17.85,17.3,19.65c-.55,1.79-24.16,19.98-24.16,19.98l-16.05-19.37Z"/>
    </g>
    <g>
      <path class="cls-2" d="m238.01,364.26l-33.4,25.22c-1.38.98-2.73.68-3.74-.77l-22.47-31.67.37-2.43,36-26.06c.86-.63.78-.99,1.79-.75,1.02.24,3.01,1.05,3.57,2.02,0,0,19.11,33.42,17.88,34.44Z"/>
      <path class="cls-1" d="m204.07,387.81l32.24-23.2c1.02-.72,1.42-.57.76-1.69l-19.41-32.83c-.69-1.19-.66-1.14-1.73-.37l-36,26.06,21.95,31.61c.52.75,1.47.93,2.19.42Z"/>
      <path class="cls-2" d="m189.75,360.18l24.84-18.5s15.2,17.71,14.44,19.4-26.02,18.19-26.02,18.19l-13.26-19.09Z"/>
    </g>
    <g>
      <path class="cls-2" d="m223.75,435.22l-35.71,31.63c-1.48,1.34-2.91,1.35-3.97.1l-23.84-27.23.4-2.59,38.39-35.34c.92-.85.83-1.2,1.91-1.2,1.08,0,3.2.37,3.8,1.23,0,0,20.33,32.06,19.03,33.4Z"/>
      <path class="cls-1" d="m187.48,465.26l34.06-28.93c1.09-.99,1.83-3.5,1.13-4.5l-20.58-29.15c-.74-1.06-.7-1.02-1.84.03l-38.39,35.34,23.28,27.29c.55.65,1.57.61,2.33-.08Z"/>
      <path class="cls-2" d="m172.31,440.25l26.49-24.92s16.13,14.6,15.32,16.52c-.81,1.92-27.75,24.88-27.75,24.88l-14.06-16.48Z"/>
    </g>
    <g>
      <path class="cls-2" d="m212.29,513.09l-35.34,31.57c-1.42,1.05-2.85.72-3.98-.84l-25.17-33.96.28-2.6,35.76-31.22c.88-.67.57-.79,1.65-.53,1.08.26,4.5,4.35,5.13,5.38,0,0,22.91,31.11,21.66,32.2Z"/>
      <path class="cls-1" d="m176.31,542.87l31.56-27.57c1.04-.77,3.59-2.86,2.84-4.07l-22.67-30.06c-.79-1.27-.75-1.22-1.84-.4l-36.83,27.75,24.61,33.89c.58.8,1.6,1,2.33.46Z"/>
      <path class="cls-2" d="m159.93,513.26l25.39-19.7s16.85,19,16.13,20.8-26.65,19.37-26.65,19.37l-14.86-20.47Z"/>
    </g>
    <g>
      <path class="cls-2" d="m192.8,588.73l-33.57,31.6c-1.39,1.25-2.82,1.15-3.96-.17l-25.31-28.99.25-2.57,36.25-32.9c.87-.79.76-1.15,1.83-1.08,1.08.08,3.21.59,3.85,1.49,0,0,21.88,31.36,20.65,32.62Z"/>
      <path class="cls-1" d="m158.57,618.69l32.48-29.33c1.03-.92,1.45-.82.7-1.87l-22.17-30.7c-.79-1.11-.75-1.07-1.83-.09l-36.25,32.9,24.76,29.02c.59.69,1.6.72,2.32.08Z"/>
      <path class="cls-2" d="m142.1,592.44l24.98-23.24s16.91,15.78,16.21,17.65-26.24,23.11-26.24,23.11l-14.95-17.53Z"/>
    </g>
    <g>
      <path class="cls-2" d="m185.79,666.28c.65.79.55,2.02-.21,2.67l-36.96,31.61c-1.53,1.36-3.09,1.27-4.32-.18l-27.6-31.61.28-2.81,39.68-36.03c.95-.86.83-1.26,2.01-1.18,1.18.08,3.51.64,4.21,1.62-.52.51,17.55,29.42,22.92,35.91Z"/>
      <path class="cls-1" d="m147.9,698.77l34.36-29.64c1.12-1.01.33,1.03.63-2.96l-22.84-35.05c-.87-1.21-.82-1.17-2-.1l-39.68,36.03,26.99,31.64c.64.75,1.74.78,2.53.08Z"/>
      <path class="cls-2" d="m129.88,670.21l27.35-25.45s18.44,17.19,17.67,19.24-28.72,25.32-28.72,25.32l-16.3-19.11Z"/>
    </g>
    <g>
      <path class="cls-2" d="m275.56,158l-32.72,26.26c-1.36,1.03-2.71.76-3.75-.65l-23.29-30.95.31-2.44,35.29-27.18c.85-.65.75-1.02,1.77-.81,1.02.21,3.04.96,3.62,1.9,0,0,19.97,32.81,18.77,33.87Z"/>
      <path class="cls-1" d="m242.26,182.61l31.62-24.21c1-.76,1.4-.61.71-1.72l-20.26-32.21c-.73-1.17-.69-1.12-1.74-.31l-35.29,27.18,22.76,30.91c.54.73,1.5.89,2.2.36Z"/>
      <path class="cls-2" d="m228.44,150.78l21.3-13.18c1.05-.83,2.51-.7,3.42.33,3.97,4.44,13.91,15.79,13.34,17.17s-17.65,13.48-23.55,17.62c-1.13.79-2.62.52-3.47-.63l-10.52-14.28c-.95-1.29-1.74-6.06-.53-7.02Z"/>
    </g>
    <g>
      <path class="cls-2" d="m288.92,97.72l-29.13,23.24c-1.21.91-2.45.62-3.43-.71l-21.98-29.25.22-2.24,31.45-24.01c.75-.58.66-.91,1.59-.69.94.22,2.79.98,3.35,1.87,0,0,19,30.87,17.94,31.81Z"/>
      <path class="cls-1" d="m259.22,119.41l28.18-21.38c.89-.67,1.26-.52.61-1.56l-19.25-30.32c-.69-1.1-.66-1.05-1.59-.34l-31.45,24.01,21.5,29.2c.51.69,1.39.86,2.01.39Z"/>
      <path class="cls-2" d="m244.85,93.89l21.68-17.05s14.68,16.36,14.07,17.92-22.76,16.76-22.76,16.76l-12.99-17.63Z"/>
    </g>
    <g>
      <path class="cls-2" d="m296.43,31.62l-27.81,28.2c-1.16,1.11-2.47,1-3.61-.23l-25.51-26.95v-2.34S269.63.96,269.63.96c.72-.7.59-1.04,1.58-.95.99.09,2.97.6,3.63,1.44,0,0,22.59,29.05,21.59,30.17Z"/>
      <path class="cls-1" d="m267.88,58.31l27.01-26.14c.85-.82,1.25-.72.47-1.7l-22.8-28.45c-.82-1.03-.78-.99-1.67-.12l-30.13,29.33,25.01,26.96c.59.64,1.51.69,2.11.11Z"/>
      <path class="cls-2" d="m250.58,34.1l20.72-20.73s16.73,14.73,16.26,16.42-21.87,20.59-21.87,20.59l-15.11-16.29Z"/>
    </g>
    <g>
      <path class="cls-2" d="m82.44,1291.09l-45.12,42.68c-1.87,1.69-3.74,1.63-5.18-.06L0,1296.94l.42-3.37,48.67-44.48c1.17-1.07,1.03-1.54,2.44-1.48,1.41.06,4.19.64,5,1.78,0,0,27.56,40.01,25.91,41.7Z"/>
      <path class="cls-1" d="m36.52,1331.66l43.6-39.66c1.38-1.24,1.93-1.13.98-2.48l-27.97-39.13c-1-1.42-.95-1.36-2.4-.04l-48.67,44.48,31.42,36.83c.74.87,2.07.87,3.03,0Z"/>
      <path class="cls-2" d="m15.76,1298.19l33.57-31.39s21.6,19.88,20.62,22.35-35.21,31.28-35.21,31.28l-18.98-22.25Z"/>
    </g>
    <g>
      <path class="cls-2" d="m171.28,740.71l-32.96,31.03c-1.37,1.22-2.77,1.13-3.88-.17l-24.82-28.43.25-2.52,35.58-32.3c.85-.77.74-1.13,1.8-1.06,1.06.08,3.15.58,3.78,1.46,0,0,21.45,30.76,20.24,31.99Z"/>
      <path class="cls-1" d="m137.67,770.13l31.88-28.8c1.01-.9,1.42-.8.69-1.84l-21.73-30.11c-.78-1.09-.74-1.05-1.8-.09l-35.58,32.3,24.28,28.46c.57.67,1.57.7,2.27.07Z"/>
      <path class="cls-2" d="m121.46,744.45l24.53-22.82s16.58,15.47,15.89,17.31-25.76,22.7-25.76,22.7l-14.66-17.19Z"/>
    </g>
    <g>
      <path class="cls-2" d="m163.62,815.84l-32.76,30.49c-1.36,1.2-2.84,1-4.09-.47l-27.88-32.03.1-2.66,35.44-31.64c.85-.76.71-1.15,1.83-.99,1.12.16,3.35.85,4.07,1.83,0,0,24.48,34.25,23.29,35.47Z"/>
      <path class="cls-1" d="m130.08,844.58l31.76-28.2c1-.88,1.45-.75.61-1.9l-24.74-33.58c-.89-1.22-.84-1.17-1.9-.23l-35.44,31.64,27.31,32.01c.65.76,1.69.86,2.4.25Z"/>
      <path class="cls-2" d="m111.42,816.12l24.39-22.4s18.41,17.65,17.8,19.56-25.7,22.18-25.7,22.18l-16.5-19.34Z"/>
    </g>
    <g>
      <path class="cls-2" d="m152.02,896.17l-34.53,32.29c-1.44,1.27-2.96,1.11-4.21-.36l-28-32.13.17-2.74,37.33-33.56c.9-.81.76-1.2,1.91-1.07,1.15.13,3.44.77,4.15,1.77,0,0,24.43,34.51,23.18,35.8Z"/>
      <path class="cls-1" d="m116.73,926.68l33.45-29.91c1.06-.94,1.51-.81.67-1.97l-24.72-33.81c-.89-1.23-.84-1.18-1.95-.18l-37.33,33.56,27.41,32.13c.65.76,1.72.84,2.47.18Z"/>
      <path class="cls-2" d="m98.16,897.95l25.71-23.73s18.57,17.62,17.89,19.59-27.05,23.54-27.05,23.54l-16.56-19.41Z"/>
    </g>
    <g>
      <path class="cls-2" d="m137.69,971.17l-31.66,29.45c-1.32,1.16-2.75.96-3.97-.46l-27.06-31.09.1-2.58,34.25-30.56c.82-.73.69-1.11,1.77-.95,1.08.16,3.25.83,3.94,1.78,0,0,23.78,33.24,22.63,34.41Z"/>
      <path class="cls-1" d="m105.27,998.92l30.7-27.23c.97-.85,1.4-.72.58-1.84l-24.03-32.59c-.86-1.18-.82-1.13-1.84-.23l-34.25,30.56,26.51,31.08c.63.73,1.64.84,2.32.24Z"/>
      <path class="cls-2" d="m87.15,971.3l23.58-21.63s17.86,17.15,17.28,18.99-24.84,21.42-24.84,21.42l-16.01-18.77Z"/>
    </g>
    <g>
      <path class="cls-2" d="m122.77,1049.09l-36.8,34.56c-1.53,1.36-3.11,1.24-4.39-.26l-28.47-32.63.24-2.85,39.74-35.95c.95-.86.82-1.27,2.02-1.16,1.2.1,3.57.71,4.29,1.72,0,0,24.7,35.21,23.35,36.59Z"/>
      <path class="cls-1" d="m85.22,1081.81l35.61-32.05c1.13-1,1.6-.89.75-2.07l-25.01-34.48c-.9-1.25-.85-1.2-2.03-.13l-39.74,35.95,27.86,32.65c.66.77,1.78.83,2.57.12Z"/>
      <path class="cls-2" d="m66.52,1052.45l27.39-25.41s18.97,17.81,18.22,19.88c-.75,2.07-28.78,25.25-28.78,25.25l-16.83-19.72Z"/>
    </g>
    <g>
      <path class="cls-2" d="m105.54,1127.06l-40.96,38.22c-1.71,1.5-3.53,1.29-5.05-.5l-33.93-38.96.17-3.28,44.29-39.7c1.06-.95.9-1.43,2.28-1.25,1.38.18,4.13.98,5,2.18,0,0,29.7,41.76,28.21,43.29Z"/>
      <path class="cls-1" d="m63.64,1163.13l39.7-35.38c1.26-1.11,1.8-.95.78-2.36l-30.03-40.93c-1.08-1.48-1.02-1.43-2.34-.25l-44.29,39.7,33.23,38.95c.79.92,2.08,1.03,2.96.26Z"/>
      <path class="cls-2" d="m41.05,1128.39l30.5-28.09s22.46,21.42,21.68,23.77-32.11,27.84-32.11,27.84l-20.07-23.53Z"/>
    </g>
    <g>
      <path class="cls-2" d="m92.91,1208.44l-39.17,39.16c-1.69,1.51-3.39,1.43-4.73-.14l-29.84-34.16.34-3.08,43.86-39.94c1.05-.96.92-1.39,2.21-1.32,1.29.07,3.83.65,4.59,1.71,0,0,24.23,36.24,22.75,37.76Z"/>
      <path class="cls-1" d="m52.98,1245.65l36.07-35.58c1.24-1.11,1.46-5.28-1.39-9.03l-22.55-32.01c1.03,1.19,1.08,1.24-.22,2.42l-43.86,39.94,29.18,34.21c.69.81,1.9.83,2.77.05Z"/>
      <path class="cls-2" d="m33.58,1214.69l30.24-28.2s19.99,18.53,19.12,20.79c-.86,2.25-31.74,28.07-31.74,28.07l-17.63-20.66Z"/>
    </g>
    <g>
      <path class="cls-2" d="m232.67,214.34c-1.06-1.24-5.57-34.91-4.35-39.64s1.87-7.96,5.14-8.16c.77-.05,4.35-4.06,5.02-3.98,4.45.54,11.67,2.7,11.33,4.65-.17,1.01-2.46.68-5.55,3.36,0,0-.8.69-1.69,1.72-2.21,2.58-4.39,19.06-4.99,41.65,0,0,.03,1.03-.65,1.69-.56.55-1.23.54-1.53.54-1.58-.02-2.6-1.61-2.74-1.84Z"/>
      <path class="cls-1" d="m235.76,208.61c-.7.22-1.43-.26-1.56-1.05-1.08-6.37-5.24-31.35-4.23-33.4,1.16-2.34,3.98-5.82,7.26-5.68s-.15,5.38-.15,5.38c0,0,.68,34.11-.97,34.64l-.34.11Z"/>
    </g>
    <g>
      <path class="cls-2" d="m219.29,282.56c-1.06-1.24-5.57-34.91-4.35-39.64s1.87-7.96,5.14-8.16c.77-.05,4.35-4.06,5.02-3.98,4.45.54,11.67,2.7,11.33,4.65-.17,1.01-2.46.68-5.55,3.36,0,0-.8.69-1.69,1.72-2.21,2.58-4.39,19.06-4.99,41.65,0,0,.03,1.03-.65,1.69-.56.55-1.23.54-1.53.54-1.58-.02-2.6-1.61-2.74-1.84Z"/>
      <path class="cls-1" d="m221.86,276.21c-.7.22-1.43-.26-1.56-1.05-1.08-6.37-5.24-31.35-4.23-33.4,1.16-2.34.17-5.97,3.44-5.84s5.86,5.02,5.86,5.02c0,0-.27,29.29-1.93,29.82l-1.59,5.44Z"/>
    </g>
    <g>
      <path class="cls-2" d="m206.04,360.06c-1.38-1.62-6.34-46.66-4.53-53.07,1.81-6.41,2.8-10.77,7.21-11.17,1.04-.09,6-5.63,6.91-5.55,5.98.54,15.64,3.15,15.12,5.79-.27,1.36-3.35,1.02-7.6,4.74,0,0-2.1,4.34-2.33,2.38-.86-7.28-5.33,19.8-8.13,56.15,0,0,0,1.39-.93,2.3-.77.76-1.68.78-2.09.78-2.13.04-3.45-2.06-3.63-2.36Z"/>
      <path class="cls-1" d="m210.4,352.24c-.95.33-3.22-.96-3.37-2.02-1.24-8.51-4.7-41.23-3.27-44.01,1.64-3.2.43-8.03,4.83-7.98s2.85,11.51,2.85,11.51c0,0,1.68,41.56-.57,42.34l-.47.16Z"/>
    </g>
    <g>
      <path class="cls-2" d="m190.28,435.36c-1.38-1.62-6.34-46.66-4.53-53.07,1.81-6.41,2.8-10.77,7.21-11.17,1.04-.09,6-5.63,6.91-5.55,5.98.54,15.64,3.15,15.12,5.79-.27,1.36-3.35,1.02-7.6,4.74,0,0-1.1.96-2.33,2.38-3.07,3.55-6.55,25.77-8.13,56.15,0,0,0,1.39-.93,2.3-.77.76-1.68.78-2.09.78-2.13.04-3.45-2.06-3.63-2.36Z"/>
      <path class="cls-1" d="m194.64,427.54c-.95.33-5.3-4.64-5.45-5.69-1.24-8.51-2.62-37.55-1.19-40.34,1.64-3.2.43-8.03,4.83-7.98s4.76,7.28,4.76,7.28c0,0-.23,45.79-2.47,46.57l-.47.16Z"/>
    </g>
    <g>
      <path class="cls-2" d="m178.38,510.16c-1.5-1.5-9.75-45.98-8.42-52.53s4.9-10.89,9.27-11.68c1.03-.19,2.65-6.24,3.56-6.24,5.99.01,15.81,1.76,15.49,4.44-.16,1.38-3.26,1.31-7.22,5.4,0,0-1.02,1.06-2.15,2.58-2.8,3.81-4.63,26.28-3.96,56.71,0,0,.11,1.38-.76,2.38-.72.82-1.62.92-2.02.97-2.12.23-3.59-1.75-3.79-2.03Z"/>
      <path class="cls-1" d="m182.15,501.98c-.92.41-1.93-.13-2.16-1.16-1.87-8.38-9.07-41.25-7.85-44.16,1.4-3.33,3.72-7.93,8.11-8.27s1.39,6.73,1.39,6.73c0,0,3.14,45.68.96,46.66l-.45.2Z"/>
    </g>
    <g>
      <path class="cls-2" d="m160.48,584.85c-1.37-1.37-6.81-44.56-5.14-51.09,1.67-6.54,2.57-10.95,6.86-12.03,1.01-.25,5.76-6.43,6.65-6.5,5.83-.41,15.27.63,14.8,3.29-.24,1.37-3.24,1.52-7.33,5.81,0,0-1.06,1.11-2.24,2.69-2.94,3.94-6.02,26.18-7.14,56.07,0,0,.02,1.35-.88,2.39-.74.86-1.63,1.02-2.02,1.09-2.07.37-3.39-1.47-3.57-1.73Z"/>
      <path class="cls-1" d="m165.14,578.73c-.92.47-4.23,2.02-4.4,1.02-1.33-8.11-4.58-44.16-3.22-47.11,1.55-3.38.3-7.9,4.59-8.55s1.59,8.53,1.59,8.53c0,0,2.82,34.2.65,35.31l.79,10.8Z"/>
    </g>
    <g>
      <path class="cls-2" d="m147.37,663.24c-1.37-1.37-6.81-44.56-5.14-51.09s2.57-10.95,6.86-12.03c1.01-.25,5.76-6.43,6.65-6.5,5.83-.41,15.27.63,14.8,3.29-.24,1.37-3.24,1.52-7.33,5.81,0,0-1.06,1.11-2.24,2.69-2.94,3.94-6.02,26.18-7.14,56.07,0,0,.02,1.35-.88,2.39-.74.86-1.63,1.02-2.02,1.09-2.07.37-3.39-1.47-3.57-1.73Z"/>
      <path class="cls-1" d="m150.49,652.5c-.92.47-1.87.01-2.03-.99-1.33-8.11-4.64-38.95-3.29-41.9,1.55-3.38,3.05-8.03,7.34-8.67s.2,5.49.2,5.49c.27.05,3.16,45.27-1.77,45.84l-.45.23Z"/>
    </g>
    <g>
      <path class="cls-2" d="m144.3,733.68c-1.37-1.37-6.81-44.56-5.14-51.09,1.67-6.54,2.57-10.95,6.86-12.03,1.01-.25,5.76-6.43,6.65-6.5,5.83-.41,15.27.63,14.8,3.29-.24,1.37-3.24,1.52-7.33,5.81,0,0-1.06,1.11-2.24,2.69-2.94,3.94-6.02,26.18-7.14,56.07,0,0,.02,1.35-.88,2.39-.74.86-1.63,1.02-2.02,1.09-2.07.37-3.39-1.47-3.57-1.73Z"/>
      <path class="cls-1" d="m148.44,725.37c-.92.47-1.87.01-2.03-.99-1.33-8.11-6.43-39.96-5.07-42.9,1.55-3.38,4.8-5.83,9.09-6.47s.23,4.29.23,4.29c0,0,.41,44.73-1.77,45.84l-.45.23Z"/>
    </g>
    <g>
      <path class="cls-2" d="m128.62,809.2c-1.31-1.43-4.95-44.84-3-51.28,1.95-6.44,3.03-10.81,7.36-11.67,1.02-.2,6.03-6.14,6.91-6.15,5.84-.11,15.23,1.4,14.65,4.02-.3,1.36-3.3,1.35-7.57,5.44,0,0-1.1,1.06-2.35,2.58-3.1,3.79-7.11,25.85-9.47,55.64,0,0-.03,1.35-.97,2.35-.78.82-1.67.94-2.06.99-2.09.27-3.33-1.64-3.5-1.91Z"/>
      <path class="cls-1" d="m133.07,802.3c-.94.42-1.87-.08-1.99-1.09-.99-8.17-4.75-40.22-3.28-43.09,1.69-3.29,4.71-6.1,9.02-6.53,4.31-.43.39,4.82.39,4.82,0,0-1.46,44.69-3.68,45.69l-.46.21Z"/>
    </g>
    <g>
      <path class="cls-2" d="m119.97,891.1c-1.44-1.42-8.34-47.48-5.39-53.93,3.12-6.84,2.72-11.64,7.25-12.87,1.07-.29,6.09-6.93,7.02-7.01,6.15-.56,16.11.34,15.62,3.15-.25,1.46-3.42,1.67-7.74,6.31,0,0-1.12,1.2-2.36,2.9-3.11,4.24-6.37,27.82-7.57,59.46,0,0,.02,1.43-.93,2.55-.78.92-1.72,1.12-2.13,1.2-2.19.44-3.58-1.48-3.77-1.75Z"/>
      <path class="cls-1" d="m124.34,882.22c-.97.52-1.97.05-2.14-1.01-1.4-8.55-7.3-38.22-5.87-41.37,1.64-3.6,3.41-9.67,7.94-10.44s2.44,4.03,2.44,4.03c0,0,.4,47.3-1.89,48.52l-.48.26Z"/>
    </g>
    <g>
      <path class="cls-2" d="m107.35,971.31c-1.44-1.42-7.16-46.98-5.39-53.93s2.72-11.64,7.25-12.87c1.07-.29,6.09-6.93,7.02-7.01,6.15-.56,16.11.34,15.62,3.15-.25,1.46-3.42,1.67-7.74,6.31,0,0-1.12,1.2-2.36,2.9-3.11,4.24-6.37,27.82-7.57,59.46,0,0,.02,1.43-.93,2.55-.78.92-1.72,1.12-2.13,1.2-2.19.44-3.58-1.48-3.77-1.75Z"/>
      <path class="cls-1" d="m111.73,962.43c-.97.52-4.08.1-4.25-.96-1.4-8.55-4.65-42.17-3.22-45.31,1.64-3.6.33-8.37,4.85-9.14,4.53-.77,4.99,6.63,4.99,6.63,0,0,.4,47.3-1.89,48.52l-.48.26Z"/>
    </g>
    <g>
      <path class="cls-2" d="m93.28,1044.88c-1.44-1.42-7.16-46.98-5.39-53.93s2.72-11.64,7.25-12.87c1.07-.29,6.09-6.93,7.02-7.01,6.15-.56,16.11.34,15.62,3.15-.25,1.46-3.42,1.67-7.74,6.31,0,0-1.12,1.2-2.36,2.9-3.11,4.24-6.37,27.82-7.57,59.46,0,0,.02,1.43-.93,2.55-.78.92-1.72,1.12-2.13,1.2-2.19.44-3.58-1.48-3.77-1.75Z"/>
      <path class="cls-1" d="m97.65,1036c-.97.52-1.97.05-2.14-1.01-1.4-8.55-6.76-42.12-5.33-45.26,1.64-3.6,2.94-8.16,7.47-8.93,4.53-.77,4.3,2.57,4.3,2.57,0,0-1.51,51.15-3.81,52.38l-.48.26Z"/>
    </g>
    <g>
      <path class="cls-2" d="m69.34,1126.37c-1.35-1.52-4.12-47.39-1.91-54.19,2.21-6.79,3.47-11.39,8.06-12.27,1.09-.21,6.52-6.44,7.46-6.45,6.17-.08,16.06,1.58,15.39,4.35-.35,1.43-3.52,1.4-8.13,5.69,0,0-1.19,1.11-2.54,2.7-3.37,3.98-8.15,27.25-11.38,58.7,0,0-.07,1.43-1.09,2.47-.84.86-1.78.98-2.2,1.03-2.21.27-3.48-1.75-3.65-2.04Z"/>
      <path class="cls-1" d="m74.28,1117.85c-1,.44-1.97-.1-2.07-1.17-.84-8.63-4.03-42.52-2.4-45.54,1.87-3.47.86-8.32,5.43-8.74,4.57-.42,4.55,6.99,4.55,6.99,0,0-2.64,47.19-5.01,48.23l-.49.22Z"/>
    </g>
    <g>
      <path class="cls-2" d="m64.14,1206.48c-1.6-1.16-7.59-51.61-6.07-59.86,1.52-8.25-.07-12.38,4.66-15.06,1.11-.63,6.08-9.47,7.06-9.84,6.47-2.4,17.04-4.28,16.66-1-.2,1.7-3.53,2.85-7.86,9.26,0,0-1.12,1.65-2.35,3.91-3.07,5.61-5.33,32.82-4.99,68.4,0,0,.1,1.59-.85,3.11-.78,1.25-1.76,1.74-2.19,1.95-2.29,1.12-3.86-.62-4.07-.86Z"/>
      <path class="cls-1" d="m68.31,1195.33c-1,.86-2.08.63-2.31-.5-1.91-9.12-6.57-43.59-5.22-47.5,1.55-4.49.45-7.79,5.19-9.95,4.75-2.17,5.32,5,5.32,5,0,0-.12,50.5-2.48,52.53l-.49.42Z"/>
    </g>
    <g>
      <path class="cls-2" d="m49.77,1290.81c-1.6-1.16-9.95-50.24-8.43-58.49,1.52-8.25,2.29-13.74,7.01-16.42,1.11-.63,6.08-9.47,7.06-9.84,6.47-2.4,17.04-4.28,16.66-1-.2,1.7-3.53,2.85-7.86,9.26,0,0-1.12,1.65-2.35,3.91-3.07,5.61-5.33,32.82-4.99,68.4,0,0,.1,1.59-.85,3.11-.78,1.25-1.76,1.74-2.19,1.95-2.29,1.12-3.86-.62-4.07-.86Z"/>
      <path class="cls-1" d="m53.38,1280.23c-1,.86-2.08.63-2.31-.5-1.91-9.12-9.27-44.95-7.92-48.86,1.55-4.49,3.18-7.62,7.92-9.78,4.41-2.01,3.37,3.21,3.67,4.22.02.08.04.16.04.24.08,2.79,1.4,52.3-.9,54.27l-.49.42Z"/>
    </g>
    <g>
      <path class="cls-2" d="m245.88,152.09c-1.06-1.24-5.57-34.91-4.35-39.64s1.87-7.96,5.14-8.16c.77-.05,4.35-4.06,5.02-3.98,4.45.54,11.67,2.7,11.33,4.65-.17,1.01-2.46.68-5.55,3.36,0,0-.8.69-1.69,1.72-2.21,2.58-4.39,19.06-4.99,41.65,0,0,.03,1.03-.65,1.69-.56.55-1.23.54-1.53.54-1.58-.02-2.6-1.61-2.74-1.84Z"/>
      <path class="cls-1" d="m248.97,146.36c-.7.22-1.43-.26-1.56-1.05-1.08-6.37-5.24-31.35-4.23-33.4,1.16-2.34.17-5.97,3.44-5.84s3.67,5.53,3.67,5.53c0,0,.68,34.11-.97,34.64l-.34.11Z"/>
    </g>
    <g>
      <path class="cls-2" d="m261.12,89.75c-1.12-1.31-5.83-37.07-4.52-42.1s2.01-8.46,5.49-8.69c.82-.05,4.63-4.33,5.35-4.24,4.72.55,12.39,2.83,12.03,4.9-.19,1.07-2.62.73-5.91,3.59,0,0-.85.74-1.8,1.84-2.36,2.74-4.71,20.26-5.41,44.26,0,0,.03,1.1-.69,1.8-.6.58-1.31.58-1.63.58-1.68-.02-2.76-1.7-2.91-1.94Z"/>
      <path class="cls-1" d="m264.42,83.65c-.74.24-1.51-.27-1.65-1.11-1.13-6.76-5.49-33.29-4.41-35.46,1.24-2.49.19-6.35,3.67-6.21s3.88,5.86,3.88,5.86c0,0,.64,36.23-1.12,36.8l-.37.12Z"/>
    </g>
  </g>
</svg>