<?xml version="1.0" encoding="UTF-8"?>
<svg id="_图层_2" data-name="图层 2" xmlns="http://www.w3.org/2000/svg" viewBox="0 0 1361.11 946.08">
  <defs>
    <style>
      .cls-1 {
        fill: #423f42;
      }

      .cls-1, .cls-2 {
        stroke-width: 0px;
      }
    </style>
  </defs>
  <g id="chain_b_02" data-name="chain b 02">
    <g>
      <g>
        <path class="cls-2" d="m1159.34,168.36l37.95-42.16-8.12-9.35s-3.37-2.73-4.4-2.64-36.74,44.06-36.74,44.06c0,0-3.87,3.32,3.72,6.71l7.59,3.39Z"/>
        <path class="cls-1" d="m1159.35,155.21l24.61-28.06c1.49-1.7,4.14-1.88,5.86-.41l-5.32,5.06c1.68,1.43,2.6,4.85,0,3.99l-20.04,22.05c-.23,4-2.54,4.3-4.26,3.19h0c-2.03-1.31-2.43-4.03-.85-5.83Z"/>
      </g>
      <g>
        <path class="cls-2" d="m1088.75,217.25l37.95-42.16-8.12-9.35s-3.37-2.73-4.4-2.64-36.74,44.06-36.74,44.06c0,0-3.87,3.32,3.72,6.71l7.59,3.39Z"/>
        <polygon class="cls-1" points="1084.76 206.48 1115.05 171.96 1123.26 179.7 1091.59 210.88 1084.76 206.48"/>
      </g>
      <g>
        <path class="cls-2" d="m1018.16,265.15l37.95-42.16-8.12-9.35s-3.37-2.73-4.4-2.64-36.74,44.06-36.74,44.06c0,0-3.87,3.32,3.72,6.71l7.59,3.39Z"/>
        <polygon class="cls-1" points="1015.21 255.38 1045.49 220.86 1052.05 226.44 1019.45 258.54 1015.21 255.38"/>
      </g>
      <g>
        <path class="cls-2" d="m945.74,309.43l38.73-39.54-8.12-9.35s-3.37-2.73-4.4-2.64-36.74,44.06-36.74,44.06c0,0-3.87,3.32,3.72,6.71,7.59,3.39,6.81.76,6.81.76Z"/>
        <polygon class="cls-1" points="936.31 306.27 966.6 271.75 973.15 277.33 943.14 310.67 936.31 306.27"/>
      </g>
      <g>
        <path class="cls-2" d="m877.22,354.34l32.5-35.54-8.12-9.35s-3.37-2.73-4.4-2.64-36.74,44.06-36.74,44.06c0,0,1.9-1.9,9.49,1.48,7.59,3.39,7.27,2,7.27,2Z"/>
        <polygon class="cls-1" points="868.83 351.18 899.12 316.65 905.67 322.23 877.22 350.34 868.83 351.18"/>
      </g>
      <g>
        <path class="cls-2" d="m797.29,408.22l28.35-32.55-8.12-9.35s-3.37-2.73-4.4-2.64-36.74,44.06-36.74,44.06c0,0-3.87,3.32,3.72,6.71,7.59,3.39,17.19-6.22,17.19-6.22Z"/>
        <polygon class="cls-1" points="784.74 408.06 815.03 373.53 821.58 379.11 794.17 406.23 784.74 408.06"/>
      </g>
      <g>
        <path class="cls-2" d="m705.68,476.71l39.7-40.54-9.88-10.97s-3.37-2.73-4.4-2.64-36.74,44.06-36.74,44.06c0,0-3.87,3.32,3.72,6.71l7.59,3.39Z"/>
        <polygon class="cls-1" points="706.88 459.95 737.17 425.42 743.72 431 713.71 464.34 706.88 459.95"/>
      </g>
      <g>
        <path class="cls-2" d="m642.61,520.98l29.39-32.55-8.12-9.35s-3.37-2.73-4.4-2.64-36.74,44.06-36.74,44.06c0,0-3.87,3.32,3.72,6.71,7.59,3.39,16.15-6.22,16.15-6.22Z"/>
        <path class="cls-1" d="m640.28,510.46l24.61-28.06c1.49-1.7,4.14-1.88,5.86-.41l.36.31c1.68,1.43,1.85,3.9.38,5.54l-24.98,27.75c-1.36,1.51-3.67,1.81-5.39.7h0c-2.03-1.31-2.43-4.03-.85-5.83Z"/>
      </g>
      <g>
        <path class="cls-2" d="m557.22,582.48l37.95-42.16-8.12-9.35s-3.37-2.73-4.4-2.64-36.74,44.06-36.74,44.06c0,0-3.87,3.32,3.72,6.71l7.59,3.39Z"/>
        <polygon class="cls-1" points="554.28 572.71 584.56 538.19 591.11 543.77 567.86 565.89 554.28 572.71"/>
      </g>
      <g>
        <path class="cls-2" d="m492.08,633.74l34.58-42.53-8.12-9.35s-3.37-2.73-4.4-2.64-36.74,44.06-36.74,44.06c0,0-3.87,3.32,3.72,6.71,7.59,3.39,10.96,3.76,10.96,3.76Z"/>
        <polyline class="cls-1" points="492.59 628 485.76 623.6 516.05 589.08 522.6 594.66"/>
      </g>
      <polyline class="cls-1" points="493.11 618.78 485.76 623.6 516.05 589.08 522.6 594.66 499.34 618.78"/>
      <g>
        <path class="cls-2" d="m330.13,754.49l37.69-45.52-8.12-9.35s-3.37-2.73-4.4-2.64-36.74,44.06-36.74,44.06c0,0-3.87,3.32,3.72,6.71,7.59,3.39,7.85,6.75,7.85,6.75Z"/>
        <polygon class="cls-1" points="326.92 741.35 357.21 706.83 359.19 709.58 333.75 745.75 326.92 741.35"/>
      </g>
      <g>
        <path class="cls-2" d="m248.11,796.4l34.58-30.55-8.12-9.35s-3.37-2.73-4.4-2.64-36.74,44.06-36.74,44.06c0,0-3.87,3.32,3.72,6.71,7.59,3.39,10.96-8.22,10.96-8.22Z"/>
        <polygon class="cls-1" points="249.06 785.26 279.35 750.74 285.9 756.32 257.46 784.43 249.06 785.26"/>
      </g>
      <g>
        <path class="cls-2" d="m168.96,861.89l38.67-40.54-8.84-10.97s-3.37-2.73-4.4-2.64-36.74,44.06-36.74,44.06c0,0-3.87,3.32,3.72,6.71l7.59,3.39Z"/>
        <polygon class="cls-1" points="167.05 848.13 197.34 813.6 203.89 819.18 173.88 852.52 167.05 848.13"/>
      </g>
      <g>
        <path class="cls-2" d="m97.58,909.16l24.2-30.55-8.12-9.35s-3.37-2.73-4.4-2.64-36.74,44.06-36.74,44.06c0,0-3.87,3.32,3.72,6.71,7.59,3.39,21.34-8.22,21.34-8.22Z"/>
        <polygon class="cls-1" points="80.89 907 111.17 872.48 117.72 878.06 87.72 911.4 80.89 907"/>
      </g>
      <g>
        <path class="cls-2" d="m408.77,694.25l37.95-42.16-8.12-9.35s-3.37-2.73-4.4-2.64-36.74,44.06-36.74,44.06c0,0-3.87,3.32,3.72,6.71l7.59,3.39Z"/>
        <polygon class="cls-1" points="405.82 684.47 436.11 649.95 442.66 655.53 412.14 683.64 405.82 684.47"/>
      </g>
      <g>
        <path class="cls-2" d="m1226.82,124.45l37.95-42.16-8.12-9.35s-3.37-2.73-4.4-2.64-36.74,44.06-36.74,44.06c0,0-3.87,3.32,3.72,6.71l7.59,3.39Z"/>
        <polygon class="cls-1" points="1223.87 114.68 1254.16 80.15 1260.71 85.73 1230.7 119.07 1223.87 114.68"/>
      </g>
      <g>
        <path class="cls-2" d="m1226.82,124.45l37.95-42.16-8.12-9.35s-3.37-2.73-4.4-2.64-36.74,44.06-36.74,44.06c0,0-3.87,3.32,3.72,6.71l7.59,3.39Z"/>
        <polygon class="cls-1" points="1223.87 114.68 1254.16 80.15 1260.71 85.73 1233.31 112.85 1223.87 114.68"/>
      </g>
      <g>
        <path class="cls-2" d="m1287.03,84.53l37.95-42.16-8.12-9.35s-3.37-2.73-4.4-2.64-36.74,44.06-36.74,44.06c0,0-3.87,3.32,3.72,6.71l7.59,3.39Z"/>
        <polygon class="cls-1" points="1284.08 72.76 1314.37 38.24 1320.92 43.82 1290.92 77.16 1284.08 72.76"/>
      </g>
      <g>
        <path class="cls-2" d="m1162.71,187.69l-54.7-2.36c-2.22-.16-3.44-1.49-3.44-3.63l-.52-47.2,2.21-1.99,58.11,3.6c1.39.09,1.57-.33,2.49.69.91,1.02,2.45,3.33,2.33,4.67,0,0-4.41,46.22-6.49,46.22Z"/>
        <path class="cls-1" d="m1118.07,183.7l42.56,2.99c1.64.11,1.94.57,2.08-1l3.63-45.9c.14-1.66.14-1.58-1.58-1.69l-58.11-3.6v46.73c0,1.1,10.27,2.38,11.42,2.46Z"/>
        <path class="cls-2" d="m1113.92,146.28l40.49,2s3.11,28.44,1.04,29.44-41.53-3.21-41.53-3.21v-28.23Z"/>
      </g>
      <g>
        <path class="cls-2" d="m1095.23,237.58l-57.27-2.97c-2.17-.2-3.35-1.67-3.31-4l.27-51.47,2.2-2.14,56.88,4.72c1.36.11,1.55-.33,2.43.79.88,1.12,2.34,3.67,2.21,5.13,0,0-1.38,49.98-3.41,49.95Z"/>
        <path class="cls-1" d="m1038.66,232.45l54.5,4.13c1.6.15.88-1.28,1.04-2.99l1.69-47.83c.17-1.8.17-1.73-1.52-1.87l-56.88-4.72-.78,50.96c-.02,1.2.84,2.22,1.96,2.32Z"/>
        <path class="cls-2" d="m1044.4,192.11l39.64,2.73s2.58,31.05.53,32.11-40.64-4.07-40.64-4.07l.47-30.78Z"/>
      </g>
      <g>
        <path class="cls-2" d="m1019.51,285.89l-54.16-7.69c-2.19-.37-3.26-1.82-3.04-3.95l4.48-47,2.41-1.77,57.43,9.26c1.38.22,1.6-.17,2.4.93.8,1.1,2.08,3.56,1.83,4.88,0,0-9.28,45.55-11.34,45.35Z"/>
        <path class="cls-1" d="m966.22,276.28l51.33,8.41c1.61.27,1.87.76,2.17-.79l8.47-45.31c.32-1.63.31-1.56-1.4-1.84l-57.43-9.26-4.94,46.49c-.12,1.1.67,2.1,1.8,2.29Z"/>
        <path class="cls-2" d="m975.35,239.92l40.07,5.94s.09,28.6-2.08,29.39-40.97-7.25-40.97-7.25l2.99-28.08Z"/>
      </g>
      <g>
        <path class="cls-2" d="m945.74,334.38l-61.84-4.21c-2.58-.15-4-1.4-4-3.41l-.6-44.39,2.57-1.87,67.6,3.38c1.62.08,1.83-.31,2.89.65,1.06.96,2.85,3.13,2.71,4.39,0,0-6.92,45.46-9.34,45.46Z"/>
        <path class="cls-1" d="m884.69,328.29l57.94,5.09c1.9.11,4.75-1.4,4.91-2.87l4.23-43.17c.16-1.56.17-1.49-1.84-1.59l-67.6-3.38v43.95c0,1.04,1.03,1.9,2.37,1.98Z"/>
        <path class="cls-2" d="m890.77,293.44l47.1,1.88s3.62,26.75,1.21,27.68-48.31-3.02-48.31-3.02v-26.55Z"/>
      </g>
      <g>
        <path class="cls-2" d="m868.92,391.26l-61.42-3.94c-2.28-.35-3.42-1.89-3.22-4.22l3.75-51.34,2.46-1.99,61.55,4.61c1.43.2,1.23-.18,2.08,1,.85,1.18.78,7.69.54,9.14,0,0-3.59,46.91-5.73,46.74Z"/>
        <path class="cls-1" d="m808.37,385.21l54.32,4.06c1.68.25,5.95.7,6.23-1l2.94-45.8c.3-1.79.29-1.71-1.48-1.96l-59.67-8.54-4.24,50.8c-.1,1.2.73,2.27,1.91,2.45Z"/>
        <path class="cls-2" d="m817.14,345.34l41.62,5.39s.63,31.16-1.6,32.08c-2.23.92-42.58-6.79-42.58-6.79l2.56-30.68Z"/>
      </g>
      <g>
        <path class="cls-2" d="m786.05,439.16l-59.71-2.36c-2.42-.16-3.75-1.49-3.75-3.63l-.57-47.2,2.41-1.99,63.43,3.6c1.52.09,1.72-.33,2.71.69,1,1.02,2.67,3.33,2.55,4.67,0,0-4.81,46.22-7.08,46.22Z"/>
        <path class="cls-1" d="m727.08,434.81l56.71,3.35c1.78.11,2.12.57,2.27-1l3.97-45.9c.15-1.66.16-1.58-1.73-1.69l-63.43-3.6v46.73c0,1.1.97,2.02,2.22,2.1Z"/>
        <path class="cls-2" d="m732.92,397.74l44.2,2s3.4,28.44,1.13,29.44-45.33-3.21-45.33-3.21v-28.23Z"/>
      </g>
      <g>
        <path class="cls-2" d="m713.88,499.68c-.02,1.25-1.16,2.22-2.46,2.11l-63.05-5.33c-2.65-.17-4.11-1.62-4.11-3.96l-.62-51.47,2.64-2.17,69.45,3.92c1.67.09,1.88-.36,2.97.75,1.09,1.11,2.92,3.63,2.79,5.1-.95-.02-7.44,40.74-7.61,51.05Z"/>
        <path class="cls-1" d="m649.18,494.29l58.83,4.74c1.95.12-.55,1.18,3.11-2l6.97-50.23c.17-1.81.17-1.73-1.89-1.84l-69.45-3.92v50.96c0,1.2,1.06,2.2,2.43,2.29Z"/>
        <path class="cls-2" d="m655.43,453.87l48.39,2.18s3.72,31.01,1.24,32.1-49.63-3.5-49.63-3.5v-30.78Z"/>
      </g>
      <g>
        <path class="cls-2" d="m1230.1,141.55l-54.37-6.2c-2.2-.31-3.32-1.73-3.15-3.86l3.08-47.11,2.36-1.83,57.68,7.67c1.38.18,1.59-.21,2.43.86.83,1.08,2.19,3.5,1.97,4.82,0,0-7.92,45.79-9.99,45.64Z"/>
        <path class="cls-1" d="m1176.55,133.41l51.55,7c1.62.23,1.89.71,2.15-.85l7.12-45.52c.27-1.64.26-1.57-1.45-1.8l-57.68-7.67-3.56,46.61c-.08,1.1.73,2.08,1.87,2.24Z"/>
        <path class="cls-2" d="m1189.7,93.89l32.09,7.41c1.74.21,3.06,1.61,3.1,3.29.17,7.31.44,25.82-1.29,26.5s-28.76-3.94-38.05-5.57c-1.78-.31-3.02-1.86-2.89-3.59l1.64-21.54c.15-1.94,3.38-6.74,5.39-6.5Z"/>
      </g>
      <g>
        <path class="cls-2" d="m1294,101.46l-48.28-5.64c-1.96-.29-2.94-1.62-2.79-3.63l2.93-44.49,2.1-1.74,51.22,7.02c1.23.17,1.42-.21,2.15.8.74,1.01,1.93,3.29,1.73,4.55,0,0-7.23,43.26-9.07,43.13Z"/>
        <path class="cls-1" d="m1246.45,93.99l45.78,6.4c1.44.21,1.68.66,1.91-.81l6.52-43.01c.24-1.55.24-1.48-1.28-1.69l-51.22-7.02-3.36,44.02c-.08,1.04.64,1.96,1.65,2.11Z"/>
        <path class="cls-2" d="m1253.75,59.4l35.72,4.41s.71,26.98-1.2,27.79-36.55-5.61-36.55-5.61l2.03-26.59Z"/>
      </g>
      <g>
        <path class="cls-2" d="m1357.01,51.22l-51.16-.21c-2.08-.07-3.27-1.31-3.36-3.38l-2.48-45.62,1.98-2.01,54.4,1.28c1.3.03,1.45-.38,2.35.57.9.95,2.42,3.13,2.38,4.43,0,0-2.16,44.86-4.1,44.94Z"/>
        <path class="cls-1" d="m1306.4,49.06l48.63,1.28c1.53.05,1.84.48,1.9-1.04l1.45-44.52c.06-1.61.07-1.54-1.55-1.58l-54.4-1.28,1.98,45.19c.05,1.07.91,1.92,1.99,1.96Z"/>
        <path class="cls-2" d="m1309.71,13.02l37.88.4s4.11,27.38,2.22,28.43c-1.9,1.04-38.9-1.53-38.9-1.53l-1.2-27.29Z"/>
      </g>
      <g>
        <path class="cls-2" d="m86.23,946.08l-80.41-2.99c-3.26-.2-5.06-1.89-5.06-4.61l-.76-59.9,3.25-2.53,85.43,4.56c2.05.11,2.31-.41,3.66.88,1.34,1.29,3.6,4.23,3.43,5.93,0,0-6.48,58.66-9.53,58.66Z"/>
        <path class="cls-1" d="m6.81,940.57l76.37,4.25c2.4.15,2.86.73,3.05-1.27l5.34-58.26c.21-2.1.21-2.01-2.33-2.15l-85.43-4.56v59.32c0,1.4,1.3,2.57,2.99,2.67Z"/>
        <path class="cls-2" d="m14.5,893.52l59.52,2.53s4.58,36.1,1.53,37.36-61.05-4.07-61.05-4.07v-35.83Z"/>
      </g>
      <g>
        <path class="cls-2" d="m636.95,550.92l-58.62-2.31c-2.38-.15-3.69-1.46-3.69-3.56l-.56-46.28,2.37-1.95,62.28,3.53c1.49.08,1.69-.32,2.67.68.98,1,2.62,3.27,2.5,4.58,0,0-4.73,45.32-6.95,45.32Z"/>
        <path class="cls-1" d="m579.05,546.66l55.67,3.29c1.75.11,2.08.56,2.23-.98l3.89-45.01c.15-1.62.15-1.55-1.7-1.66l-62.28-3.53v45.83c0,1.08.95,1.98,2.18,2.06Z"/>
        <path class="cls-2" d="m584.66,510.31l43.39,1.96s3.34,27.89,1.11,28.87-44.5-3.14-44.5-3.14v-27.68Z"/>
      </g>
      <g>
        <path class="cls-2" d="m566.17,608.8l-57.96-2.6c-2.35-.17-3.65-1.64-3.65-4l-.55-52.07,2.34-2.2,61.58,3.97c1.48.1,1.67-.36,2.64.76.97,1.12,2.59,3.68,2.47,5.15,0,0-4.67,50.99-6.87,50.99Z"/>
        <path class="cls-1" d="m508.92,604l55.05,3.7c1.73.13,2.06.63,2.2-1.1l3.85-50.64c.15-1.83.15-1.75-1.68-1.87l-61.58-3.97v51.56c0,1.22.94,2.23,2.16,2.32Z"/>
        <path class="cls-2" d="m514.47,563.11l42.9,2.2s3.3,31.37,1.1,32.48-44.01-3.54-44.01-3.54v-31.14Z"/>
      </g>
      <g>
        <path class="cls-2" d="m487.15,667.67l-61.23-2.61c-2.49-.17-3.85-1.65-3.85-4.02l-.58-52.26,2.47-2.21,65.06,3.98c1.56.1,1.76-.36,2.78.76,1.02,1.13,2.74,3.69,2.61,5.17,0,0-4.94,51.17-7.26,51.17Z"/>
        <path class="cls-1" d="m426.67,662.86l58.16,3.71c1.83.13,2.18.63,2.32-1.1l4.07-50.82c.16-1.83.16-1.75-1.77-1.87l-65.06-3.98v51.74c0,1.22.99,2.24,2.28,2.33Z"/>
        <path class="cls-2" d="m432.52,621.82l45.33,2.21s3.49,31.49,1.16,32.59-46.49-3.55-46.49-3.55v-31.25Z"/>
      </g>
      <g>
        <path class="cls-2" d="m409.91,719.56l-56-2.53c-2.27-.17-3.52-1.6-3.52-3.89l-.53-50.55,2.26-2.13,59.5,3.85c1.43.09,1.61-.35,2.55.74.94,1.09,2.5,3.57,2.39,5,0,0-4.51,49.5-6.64,49.5Z"/>
        <path class="cls-1" d="m354.59,714.91l53.19,3.59c1.67.12,1.99.61,2.13-1.07l3.72-49.16c.14-1.77.15-1.7-1.62-1.81l-59.5-3.85v50.05c0,1.18.91,2.17,2.08,2.25Z"/>
        <path class="cls-2" d="m359.95,675.21l41.46,2.14s3.19,30.46,1.06,31.53-42.52-3.43-42.52-3.43v-30.23Z"/>
      </g>
      <g>
        <path class="cls-2" d="m329.64,773.45l-65.37-2.65c-2.65-.17-4.11-1.68-4.11-4.08l-.62-53.11,2.64-2.24,69.45,4.05c1.67.1,1.88-.37,2.97.78,1.09,1.14,2.92,3.75,2.79,5.26,0,0-5.27,52.01-7.75,52.01Z"/>
        <path class="cls-1" d="m265.07,768.56l62.09,3.77c1.95.13,2.32.64,2.48-1.12l4.34-51.65c.17-1.86.17-1.78-1.89-1.9l-69.45-4.05v52.59c0,1.24,1.06,2.28,2.43,2.37Z"/>
        <path class="cls-2" d="m271.32,726.85l48.39,2.25s3.72,32,1.24,33.13-49.63-3.61-49.63-3.61v-31.76Z"/>
      </g>
      <g>
        <path class="cls-2" d="m247.03,825.34l-72.56-3.16c-2.95-.21-4.56-2-4.56-4.87l-.69-63.35,2.93-2.67,77.09,4.83c1.85.12,2.09-.44,3.3.93,1.21,1.36,3.25,4.47,3.09,6.27,0,0-5.85,62.04-8.6,62.04Z"/>
        <path class="cls-1" d="m175.36,819.5l68.92,4.5c2.17.15,2.58.77,2.75-1.34l4.82-61.62c.19-2.22.19-2.13-2.1-2.27l-77.09-4.83v62.73c0,1.48,1.18,2.71,2.7,2.82Z"/>
        <path class="cls-2" d="m182.3,769.75l53.71,2.68s4.13,38.18,1.38,39.51-55.09-4.3-55.09-4.3v-37.89Z"/>
      </g>
      <g>
        <path class="cls-2" d="m166.1,884.22l-71.59-.78c-2.94-.18-4.55-1.76-4.55-4.28l-.69-55.64,2.92-2.35,76.86,4.24c1.84.1,2.08-.38,3.29.81,1.21,1.2,3.24,3.93,3.09,5.51,0,0-6.59,52.49-9.34,52.49Z"/>
        <path class="cls-1" d="m95.4,881.09l65.51,1.13c2.16.13,5.89-3.25,6.23-8.98l4.69-47.37c.02,1.93.02,2.01-2.26,1.89l-76.86-4.24v55.09c0,1.3,1.17,2.38,2.69,2.48Z"/>
        <path class="cls-2" d="m102.32,837.4l53.55,2.35s4.12,33.52,1.37,34.7-54.92-3.78-54.92-3.78v-33.27Z"/>
      </g>
      <g>
        <path class="cls-2" d="m1140.39,152.26c0-2,23.88-34.93,29.07-37.92s8.55-5.2,11.94-2.49c.8.64,7.71.33,8.31,1,3.94,4.37,9.24,12.58,7.27,13.97-1.02.72-3.01-1.58-8.31-2,0,0-1.37-.11-3.11,0-4.35.27-20.36,12.53-39.97,31.43,0,0-.84.92-2.07.89-1.01-.02-1.67-.62-1.96-.89-1.54-1.41-1.21-3.68-1.16-3.99Z"/>
        <path class="cls-1" d="m1148.26,150.06c-.88-.42-1.19-1.48-.65-2.28,4.29-6.43,21.21-31.57,23.93-32.44,3.11-1,8.82-1.5,11.94,1.5s-4.67,4.49-4.67,4.49c0,0-28.03,29.94-30.11,28.94l-.43-.21Z"/>
      </g>
      <g>
        <path class="cls-2" d="m1069.8,199.16c0-2,23.88-34.93,29.07-37.92s8.55-5.2,11.94-2.49c.8.64,7.71.33,8.31,1,3.94,4.37,9.24,12.58,7.27,13.97-1.02.72-3.01-1.58-8.31-2,0,0-1.37-.11-3.11,0-4.35.27-20.36,12.53-39.97,31.43,0,0-.84.92-2.07.89-1.01-.02-1.67-.62-1.96-.89-1.54-1.41-1.21-3.68-1.16-3.99Z"/>
        <path class="cls-1" d="m1077.67,195.96c-.88-.42-1.19-1.48-.65-2.28,4.29-6.43,21.21-31.57,23.93-32.44,3.11-1,5.19-4.99,8.31-2s1.56,9.48,1.56,9.48c0,0-24.92,24.95-26.99,23.95l-6.14,3.28Z"/>
      </g>
      <g>
        <path class="cls-2" d="m991.51,254.15c0-2.61,33.01-45.7,40.19-49.62,7.18-3.92,11.82-6.8,16.51-3.26,1.11.84,10.65.44,11.48,1.31,5.44,5.72,12.77,16.47,10.05,18.28-1.41.94-4.16-2.07-11.48-2.61,0,0-5.72,1.88-4.31,0,5.28-7.02-21.92,12.34-55.26,41.13,0,0-1.16,1.2-2.86,1.16-1.4-.03-2.31-.81-2.72-1.16-2.13-1.84-1.67-4.81-1.6-5.22Z"/>
        <path class="cls-1" d="m1002.39,251.27c-1.22-.55-2.36-3.66-1.63-4.7,5.93-8.41,30.05-39.59,33.8-40.73,4.31-1.31,7.18-6.53,11.48-2.61s-6.87,12.41-6.87,12.41c0,0-33.31,37.22-36.18,35.91l-.6-.27Z"/>
      </g>
      <g>
        <path class="cls-2" d="m912.61,305.04c0-2.61,33.01-45.7,40.19-49.62,7.18-3.92,11.82-6.8,16.51-3.26,1.11.84,10.65.44,11.48,1.31,5.44,5.72,12.77,16.47,10.05,18.28-1.41.94-4.16-2.07-11.48-2.61,0,0-1.89-.14-4.31,0-6.02.35-28.15,16.4-55.26,41.13,0,0-1.16,1.2-2.86,1.16-1.4-.03-2.31-.81-2.72-1.16-2.13-1.84-1.67-4.81-1.6-5.22Z"/>
        <path class="cls-1" d="m923.49,302.16c-1.22-.55-1.33-8.65-.59-9.69,5.93-8.41,29.01-34.6,32.77-35.74,4.31-1.31,7.18-6.53,11.48-2.61s-1.44,10.45-1.44,10.45c0,0-38.75,39.18-41.62,37.87l-.6-.27Z"/>
      </g>
      <g>
        <path class="cls-2" d="m837.93,358.91c-.22-2.6,29.07-48.11,35.89-52.57,6.82-4.46,14-5.05,18.97-1.89,1.17.75,7.87-3.03,8.76-2.23,5.9,5.28,14.11,15.42,11.55,17.44-1.33,1.05-4.32-1.74-11.66-1.71,0,0-1.9,0-4.29.33-5.97.82-26.68,18.53-51.63,45.28,0,0-1.06,1.28-2.75,1.38-1.4.08-2.37-.63-2.8-.95-2.28-1.67-2.07-4.67-2.04-5.08Z"/>
        <path class="cls-1" d="m848.54,355.19c-1.26-.46-1.8-1.8-1.15-2.9,5.21-8.85,25.76-43.45,29.41-44.88,4.18-1.64,10.34-3.55,14.96.02s-4.29,7.01-4.29,7.01c0,0-35.34,42.05-38.31,40.97l-.62-.23Z"/>
      </g>
      <g>
        <path class="cls-2" d="m757.44,407.39c-.2-2.38,30.77-44.31,37.92-48.46,7.15-4.15,11.75-7.15,16.89-4.31,1.21.67,11.1-.46,12.02.26,6.09,4.78,14.52,13.97,11.83,15.85-1.39.97-4.47-1.55-12.12-1.45,0,0-1.98.02-4.47.35-6.22.8-27.97,17.22-54.22,41.94,0,0-1.11,1.19-2.88,1.29-1.45.08-2.46-.55-2.91-.84-2.36-1.51-2.11-4.25-2.07-4.63Z"/>
        <path class="cls-1" d="m767.18,406.23c-1.3-.41-5.87-1.99-5.19-2.99,5.52-8.15,32.64-42.01,36.45-43.35,4.37-1.54,6.95-6.53,11.72-3.31s-5.61,8.73-5.61,8.73c0,0-25.99,31.89-29.07,30.93l-8.31,9.98Z"/>
      </g>
      <g>
        <path class="cls-2" d="m678.54,463.27c-.2-2.38,30.77-44.31,37.92-48.46,7.15-4.15,11.75-7.15,16.89-4.31,1.21.67,11.1-.46,12.02.26,6.09,4.78,14.52,13.97,11.83,15.85-1.39.97-4.47-1.55-12.12-1.45,0,0-1.98.02-4.47.35-6.22.8-27.97,17.22-54.22,41.94,0,0-1.11,1.19-2.88,1.29-1.45.08-2.46-.55-2.91-.84-2.36-1.51-2.11-4.25-2.07-4.63Z"/>
        <path class="cls-1" d="m690.66,456.77c-1.3-.41-1.85-1.63-1.17-2.64,5.52-8.15,28.2-37.58,32.01-38.92,4.37-1.54,9.76-4.22,14.53-1s-4.42,4.89-4.42,4.89c.22.28-34.97,41.71-40.31,37.87l-.64-.2Z"/>
      </g>
      <g>
        <path class="cls-2" d="m616.26,521.15c-.2-2.38,30.77-44.31,37.92-48.46,7.15-4.15,11.75-7.15,16.89-4.31,1.21.67,11.1-.46,12.02.26,6.09,4.78,14.52,13.97,11.83,15.85-1.39.97-4.47-1.55-12.12-1.45,0,0-1.98.02-4.47.35-6.22.8-27.97,17.22-54.22,41.94,0,0-1.11,1.19-2.88,1.29-1.45.08-2.46-.55-2.91-.84-2.36-1.51-2.11-4.25-2.07-4.63Z"/>
        <path class="cls-1" d="m627.34,517.64c-1.3-.41-1.85-1.63-1.17-2.64,5.52-8.15,27.28-40.01,31.09-41.35,4.37-1.54,9.64-.79,14.41,2.43s-3.38,3.9-3.38,3.9c0,0-37.23,38.82-40.31,37.87l-.64-.2Z"/>
      </g>
      <g>
        <path class="cls-2" d="m537.24,572.29c-.09-2.39,32.85-42.91,40.19-46.74s12.08-6.63,17.07-3.56c1.18.72,11.11.03,12,.79,5.86,5.04,13.84,14.6,11.07,16.35-1.44.91-4.4-1.74-12.04-1.98,0,0-1.98-.06-4.48.15-6.25.53-28.76,15.97-56.16,39.52,0,0-1.17,1.13-2.94,1.16-1.46.02-2.43-.66-2.87-.96-2.28-1.61-1.9-4.34-1.84-4.72Z"/>
        <path class="cls-1" d="m547.44,570.28c-1.28-.46-1.77-1.71-1.04-2.69,5.9-7.89,29.16-38.77,33.03-39.95,4.44-1.34,9.78-1.11,14.39,2.32,4.61,3.43-3.67,4.48-3.67,4.48,0,0-39.04,37.15-42.07,36.06l-.63-.23Z"/>
      </g>
      <g>
        <path class="cls-2" d="m459.8,635.12c-.23-2.49,31.73-48.17,40.06-51.12,8.83-3.13,12.48-7.61,17.98-4.69,1.3.69,11.83-.61,12.83.14,6.53,4.93,15.61,14.47,12.75,16.45-1.48,1.03-4.79-1.57-12.94-1.39,0,0-2.11.05-4.77.41-6.63.91-29.7,18.32-57.5,44.48,0,0-1.18,1.25-3.06,1.38-1.55.1-2.63-.55-3.11-.84-2.53-1.55-2.28-4.42-2.24-4.82Z"/>
        <path class="cls-1" d="m471.59,631.33c-1.39-.41-1.99-1.69-1.27-2.75,5.82-8.58,24.97-39.29,29.02-40.73,4.65-1.66,11.49-5.32,16.61-2,5.12,3.32-.98,5.62-.98,5.62,0,0-39.4,41.03-42.69,40.06l-.69-.2Z"/>
      </g>
      <g>
        <path class="cls-2" d="m379.86,692.99c-.23-2.49,32.46-46.7,40.06-51.12,7.59-4.42,12.48-7.61,17.98-4.69,1.3.69,11.83-.61,12.83.14,6.53,4.93,15.61,14.47,12.75,16.45-1.48,1.03-4.79-1.57-12.94-1.39,0,0-2.11.05-4.77.41-6.63.91-29.7,18.32-57.5,44.48,0,0-1.18,1.25-3.06,1.38-1.55.1-2.63-.55-3.11-.84-2.53-1.55-2.28-4.42-2.24-4.82Z"/>
        <path class="cls-1" d="m391.65,689.2c-1.39-.41-4.11-3.5-3.39-4.57,5.82-8.58,30.9-40.35,34.95-41.8,4.65-1.66,7.36-6.91,12.48-3.59,5.12,3.32-.66,10.09-.66,10.09,0,0-39.4,41.03-42.69,40.06l-.69-.2Z"/>
      </g>
      <g>
        <path class="cls-2" d="m304.08,743.89c-.23-2.49,32.46-46.7,40.06-51.12,7.59-4.42,12.48-7.61,17.98-4.69,1.3.69,11.83-.61,12.83.14,6.53,4.93,15.61,14.47,12.75,16.45-1.48,1.03-4.79-1.57-12.94-1.39,0,0-2.11.05-4.77.41-6.63.91-29.7,18.32-57.5,44.48,0,0-1.18,1.25-3.06,1.38-1.55.1-2.63-.55-3.11-.84-2.53-1.55-2.28-4.42-2.24-4.82Z"/>
        <path class="cls-1" d="m315.87,740.1c-1.39-.41-1.99-1.69-1.27-2.75,5.82-8.58,28.78-42.17,32.83-43.61,4.65-1.66,9.76-4.43,14.88-1.11,5.12,3.32,2.08,5.99,2.08,5.99,0,0-44.53,42.66-47.83,41.69l-.69-.2Z"/>
      </g>
      <g>
        <path class="cls-2" d="m211.91,792.9c-.05-2.5,35.81-44.39,43.71-48.28,7.9-3.89,13-6.75,18.28-3.46,1.24.78,11.85.2,12.78,1.01,6.16,5.36,14.51,15.49,11.51,17.28-1.55.93-4.66-1.89-12.81-2.26,0,0-2.11-.1-4.78.09-6.68.46-30.97,16.26-60.62,40.47,0,0-1.27,1.17-3.15,1.17-1.55,0-2.58-.73-3.04-1.05-2.41-1.72-1.95-4.57-1.88-4.96Z"/>
        <path class="cls-1" d="m223.95,789.92c-1.36-.5-1.86-1.82-1.06-2.83,6.43-8.17,31.8-40.11,35.95-41.28,4.76-1.34,7.85-6.39,12.71-2.73,4.86,3.66-1.4,10.02-1.4,10.02,0,0-42.31,38.26-45.53,37.07l-.67-.25Z"/>
      </g>
      <g>
        <path class="cls-2" d="m139.37,857.22c-.6-2.4,35.94-51.07,44.38-56.82,8.44-5.76,10.35-10.7,17.26-8.85,1.63.44,13.97-2.8,15.24-2.25,8.4,3.63,20.41,11.32,17.28,13.8-1.62,1.29-5.88-.65-15.54,1.04,0,0-2.5.44-5.6,1.29-7.75,2.13-32.87,23.54-62.47,54.43,0,0-1.24,1.45-3.45,1.92-1.83.39-3.19-.05-3.8-.25-3.2-1.06-3.28-3.92-3.29-4.32Z"/>
        <path class="cls-1" d="m152.87,851.3c-1.71-.14-2.58-1.29-1.86-2.47,5.79-9.52,30.19-43.27,34.81-45.44,5.3-2.49,6.99-6.3,13.5-3.99,6.5,2.31,1.04,8.98,1.04,8.98,0,0-42.61,43.33-46.64,42.99l-.84-.07Z"/>
      </g>
      <g>
        <path class="cls-2" d="m54.24,917.09c-.6-2.4,32.47-51.96,40.91-57.72,8.44-5.76,13.82-9.81,20.73-7.96,1.63.44,13.97-2.8,15.24-2.25,8.4,3.63,20.41,11.32,17.28,13.8-1.62,1.29-5.88-.65-15.54,1.04,0,0-2.5.44-5.6,1.29-7.75,2.13-32.87,23.54-62.47,54.43,0,0-1.24,1.45-3.45,1.92-1.83.39-3.19-.05-3.8-.25-3.2-1.06-3.28-3.92-3.29-4.32Z"/>
        <path class="cls-1" d="m66.71,911.17c-1.71-.14-2.58-1.29-1.86-2.47,5.79-9.52,28.68-46.82,33.3-48.99,5.3-2.49,9.54-3.75,16.05-1.44,6.04,2.15.63,5.72.07,6.85-.04.09-.1.17-.17.24-2.27,2.47-42.62,46.21-46.55,45.88l-.84-.07Z"/>
      </g>
      <g>
        <path class="cls-2" d="m1205.79,110.35c0-2,23.88-34.93,29.07-37.92s8.55-5.2,11.94-2.49c.8.64,7.71.33,8.31,1,3.94,4.37,9.24,12.58,7.27,13.97-1.02.72-3.01-1.58-8.31-2,0,0-1.37-.11-3.11,0-4.35.27-20.36,12.53-39.97,31.43,0,0-.84.92-2.07.89-1.01-.02-1.67-.62-1.96-.89-1.54-1.41-1.21-3.68-1.16-3.99Z"/>
        <path class="cls-1" d="m1213.67,108.15c-.88-.42-1.19-1.48-.65-2.28,4.29-6.43,21.21-31.57,23.93-32.44,3.11-1,5.19-4.99,8.31-2s-1.04,7.98-1.04,7.98c0,0-28.03,29.94-30.11,28.94l-.43-.21Z"/>
      </g>
      <g>
        <path class="cls-2" d="m1273.28,70.15c0-2.11,25.44-37.01,30.97-40.18s9.11-5.51,12.72-2.64c.85.68,8.21.35,8.85,1.06,4.19,4.63,9.84,13.33,7.74,14.8-1.09.76-3.2-1.67-8.85-2.11,0,0-1.46-.11-3.32,0-4.64.28-21.69,13.28-42.58,33.3,0,0-.9.97-2.2.94-1.08-.03-1.78-.66-2.09-.94-1.64-1.49-1.29-3.9-1.24-4.23Z"/>
        <path class="cls-1" d="m1281.66,67.81c-.94-.45-1.26-1.57-.7-2.41,4.57-6.81,22.6-33.45,25.49-34.37,3.32-1.06,5.53-5.29,8.85-2.11,3.32,3.17-1.11,8.46-1.11,8.46,0,0-29.86,31.72-32.07,30.66l-.46-.22Z"/>
      </g>
    </g>
  </g>
</svg>