<?xml version="1.0" encoding="UTF-8"?>
<svg id="_图层_2" data-name="图层 2" xmlns="http://www.w3.org/2000/svg" viewBox="0 0 1677.59 643.74">
  <defs>
    <style>
      .cls-1, .cls-2 {
        stroke: #000;
        stroke-miterlimit: 10;
      }

      .cls-3, .cls-4 {
        stroke-width: 0px;
      }

      .cls-4, .cls-2 {
        fill: #fff;
      }
    </style>
  </defs>
  <g id="chain05">
    <g>
      <path class="cls-3" d="m415.91,205.36s-43.9,9.89-51.86,6.09c-7.96-3.8-85.82-52.4-85.82-52.4l25.67-8.7,112.01,55.01Z"/>
      <path class="cls-4" d="m379.96,199.71l-19.45.8s-47.46-26.34-49.82-30.66c-2.36-4.32,1.47-10.32,1.47-10.32l2.92-3.68,64.27,31.56s3.37,6.91,1.99,9.61l-1.38,2.7Z"/>
    </g>
    <g>
      <path class="cls-3" d="m258.23,161.46s-47.32,7.94-56.15,3.64c-8.83-4.3-95.76-58.07-95.76-58.07l27.54-7.63,124.37,62.06Z"/>
      <path class="cls-4" d="m218.86,153.86l-21.13-.16s-52.83-29.41-55.6-33.96c-2.76-4.55,1.13-10.51,1.13-10.51l3.01-3.63,71.36,35.61s3.98,7.25,2.6,9.95l-1.38,2.7Z"/>
    </g>
    <g>
      <path class="cls-3" d="m623.1,265.62s-43.9,9.89-51.86,6.09c-7.96-3.8-85.82-52.4-85.82-52.4l25.67-8.7,112.01,55.01Z"/>
      <path class="cls-4" d="m587.15,259.97l-19.45.8s-47.46-26.34-49.82-30.66c-2.36-4.32,1.47-10.32,1.47-10.32l2.92-3.68,64.27,31.56s3.37,6.91,1.99,9.61l-1.38,2.7Z"/>
    </g>
    <g>
      <path class="cls-3" d="m841.33,325.85s-53.57,20.3-63.06,16.38c-9.49-3.91-101.88-57.7-101.88-57.7l31.44-15.83,133.5,57.15Z"/>
      <path class="cls-4" d="m798,323.8l-23.59,4.12s-56.44-28.34-59.13-33.83c-2.69-5.5,2.19-14.23,2.19-14.23l3.69-5.46,76.59,32.79s3.81,8.85,2.03,12.73l-1.78,3.88Z"/>
    </g>
    <g>
      <path class="cls-3" d="m1095.4,406.93s-65.03,13.3-75.43,8.99c-10.41-4.31-105.29-54.94-105.29-54.94l34.3-16.93,146.42,62.89Z"/>
      <path class="cls-4" d="m1047.99,404.4l-47.18-3.14s-40.54-23.67-43.51-29.65c-2.98-5.98,2.3-15.41,2.3-15.41l4-5.89,84.01,36.08s4.23,9.62,2.3,13.81l-1.92,4.19Z"/>
    </g>
    <g>
      <path class="cls-3" d="m1346.81,494.65s-65.01,8.65-75.43,4.53c-10.41-4.12-112.36-57.24-112.36-57.24l36.39-21.87,151.39,74.58Z"/>
      <path class="cls-4" d="m1292.31,477.11l-38.64-7.36s-49.77-16.54-52.44-23.12c-2.66-6.58,3.39-17.72,3.39-17.72l4.5-7.01,83.98,34.75s3.71,10.63,1.45,15.55l-2.26,4.92Z"/>
    </g>
    <g>
      <path class="cls-3" d="m1548.24,550.88s-65.01,8.65-75.43,4.53c-10.41-4.12-112.36-57.24-112.36-57.24l36.39-21.87,151.39,74.58Z"/>
      <path class="cls-4" d="m1493.74,533.35l-38.64-7.36s-49.77-16.54-52.44-23.12c-2.66-6.58,3.39-17.72,3.39-17.72l4.5-7.01,83.98,34.75s3.71,10.63,1.45,15.55l-2.26,4.92Z"/>
    </g>
    <g>
      <path class="cls-1" d="m358.63,168.68l-.76,3.49-103.96,66.31-3.78-1.09-65.5-117.68,1.03-3.62,106.4-54.29,7.87,2.74,58.72,104.14Zm-62.36-71.4l-75.5,36.61,37.66,58.63,64.49-36.55-26.65-58.68Z"/>
      <path class="cls-4" d="m250.63,236.67l103.96-66.31-58.72-104.14-110.75,52.77,65.5,117.68Zm45.06-142.52l28.84,63.51-66.62,39.33-40.71-63.38,78.49-39.46Z"/>
    </g>
    <g>
      <path class="cls-1" d="m186,106.85l-9.3,8.1-110.52,55.13-3.85-1.48L.54,45.01l1.24-3.48L118.64.54l3.57,1.58,63.79,104.74ZM116.84,34.25l-76.63,31.53,35.96,62.1,65.27-32.61-24.6-61.01Z"/>
      <path class="cls-2" d="m62.89,167.96l110.52-55.13L117.96,3.37,1.1,44.36l61.79,123.6ZM116.39,31.08l26.63,66.04-70.67,32.19L33.47,62.18l82.92-31.09Z"/>
    </g>
    <g>
      <path class="cls-1" d="m552.65,229.87l-11.19,4.02-101.87,57.03-3.78-1.09-65.5-117.68,1.03-3.62,110.75-52.77,13.92,5.94,56.66,108.17Zm-70.71-80.15l-75.5,36.61,37.66,58.63,64.49-36.55-26.65-58.68Z"/>
      <path class="cls-2" d="m436.31,289.11l103.96-66.31-58.72-104.14-110.75,52.77,65.5,117.68Zm51.21-134.99l22.69,55.98-66.62,39.33-40.71-63.38,72.54-36.47c4.59-2.31,10.16-.21,12.09,4.55Z"/>
    </g>
    <g>
      <path class="cls-1" d="m735.7,286.06l-.77,3.63-109.11,68.08-4-1.18-70.21-123.37,1.05-3.76,116.4-53.89,3.72,1.31,62.92,109.19Zm-66.47-75.08l-79.35,37.4,40.28,61.52,67.72-37.45-28.66-61.46Z"/>
      <path class="cls-2" d="m627.71,352.47l103.75-64.7-62.92-109.19-116.4,53.89,66.99,117.82c1.72,3.03,5.63,4.02,8.59,2.18Zm40.88-144.77l31.02,66.52-69.95,40.33-43.55-66.51,82.48-40.34Z"/>
    </g>
    <g>
      <path class="cls-1" d="m984.43,364l-3.69,5.01-115.12,64.65-4.38-1.39-80.99-129.53.98-3.8,121.19-57.55,13.03,5.87,68.98,116.73Zm-77.96-78.59l-84.22,34.62,46.08,64.83,71.65-35.21-33.52-64.23Z"/>
      <path class="cls-2" d="m862.37,430.39l115.12-64.65-75.37-119.31-120.75,54.43,80.99,129.53Zm43.86-149.51l36.28,69.52-73.94,38.05-49.82-70.08,87.48-37.48Z"/>
    </g>
    <g>
      <path class="cls-1" d="m1242.45,429.92l-6.07,3.63-125.28,65.81-4.86-1.61-92.5-140.55.99-4.03,129.65-51.76,15.27,4.04,82.81,124.45Zm-90.02-87.69l-91.96,34.61,52.41,70.5,78.1-35.6-38.55-69.51Z"/>
      <path class="cls-2" d="m1106.82,496.99l125.28-65.81-78.88-120.25-17.68-2.66-121.22,48.17,92.5,140.55Zm44.62-158.4l41.72,75.24-80.55,38.56-56.66-76.22,95.49-37.58Z"/>
    </g>
    <g>
      <path class="cls-1" d="m1458.71,498.43l-.73,3.77-116.91,67.14-4.4-1.38-80.19-131.71,1.03-3.89,125.27-52.02,4.1,1.51,71.83,116.6Zm-74.68-81.05l-85.38,36.15,45.73,65.87,72.71-36.65-33.06-65.37Z"/>
      <path class="cls-2" d="m1337.23,567.2l116.91-67.14-71.83-116.6-125.27,52.02,80.19,131.71Zm46.01-153.27l35.79,70.76-75.04,39.57-49.44-71.21,88.7-39.12Z"/>
    </g>
    <g>
      <path class="cls-1" d="m1677.06,572.29l-.73,3.77-116.91,67.14-4.4-1.38-80.19-131.71,1.03-3.89,125.27-52.02,4.1,1.51,71.83,116.6Zm-74.68-81.05l-85.38,36.15,45.73,65.87,72.71-36.65-33.06-65.37Z"/>
      <path class="cls-2" d="m1555.58,641.06l116.91-67.14-71.83-116.6-125.27,52.02,80.19,131.71Zm46.01-153.27l35.79,70.76-75.04,39.57-49.44-71.21,88.7-39.12Z"/>
    </g>
    <g>
      <path class="cls-3" d="m438.16,204.3l5.36-10.48-22.61-22.42-86.37-49.3s-34.17,10.98-35.65,10.88-27.4,2.95-30.64,9.28-3.23,10.79,1.48,14.97,27.12,12.5,27.12,12.5l28.57-9.71,103.16,51.96,9.57-7.7Z"/>
      <path class="cls-4" d="m421.8,194.97s3.83-3.02-.89-7.2-77.24-57.47-86.38-58.97c-9.14-1.5-9.43.57-9.43.57,0,0-17.08,8.09-17.97,11.31s12.8,7.31,12.8,7.31c0,0,57.95,34.56,72.1,39.66,14.15,5.1,15.03,7.84,21.81,7.99,6.78.15,7.96-.66,7.96-.66Z"/>
    </g>
    <g>
      <path class="cls-3" d="m267,154.74l5.14-10.05-25.28-23.55-94.62-54s-35.79,8.81-37.36,8.62-29.01,1.27-32.12,7.34-2.86,10.49,2.39,14.91c5.25,4.42,29.55,14.01,29.55,14.01l29.9-7.89,112.63,57.65,9.78-7.04Z"/>
      <path class="cls-4" d="m249.09,144.52s3.91-2.76-1.34-7.18-85.34-61.54-95.15-63.57c-9.81-2.03-10.01,0-10.01,0,0,0-17.75,6.98-18.52,10.11s14.02,8,14.02,8c0,0,63.56,37.7,78.9,43.6,15.34,5.9,16.43,8.66,23.65,9.22,7.22.56,8.43-.18,8.43-.18Z"/>
    </g>
    <g>
      <path class="cls-3" d="m637.98,260.35l5.36-10.48-22.61-22.42-86.37-49.3s-34.17,10.98-35.65,10.88-27.4,2.95-30.64,9.28c-3.24,6.33-3.23,10.79,1.48,14.97,4.72,4.18,27.12,12.5,27.12,12.5l28.57-9.71,103.16,51.96,9.57-7.7Z"/>
      <path class="cls-4" d="m621.63,251.02s3.83-3.02-.89-7.2c-4.72-4.18-77.24-57.47-86.38-58.97-9.14-1.5-9.43.57-9.43.57,0,0-17.08,8.09-17.97,11.31s12.8,7.31,12.8,7.31c0,0,57.95,34.56,72.1,39.66,14.15,5.1,15.03,7.84,21.81,7.99,6.78.15,7.96-.66,7.96-.66Z"/>
    </g>
    <g>
      <path class="cls-3" d="m864.06,332.08l6.38-12.48-26.8-26.63-102.45-58.47s-40.59,13.14-42.34,13.02-32.54,3.57-36.39,11.11c-3.85,7.54,0,21.36,5.59,26.32,5.59,4.96,11.78-2.2,11.78-2.2l50.48-3.11,122.37,61.61,11.38-9.18Z"/>
      <path class="cls-4" d="m844.66,321.01s4.55-3.6-1.04-8.56c-5.59-4.96-91.59-68.21-102.44-69.97-10.84-1.76-11.19.69-11.19.69,0,0-20.3,9.67-21.35,13.49s15.18,8.67,15.18,8.67c0,0,68.73,41,85.52,47.04,16.79,6.04,17.83,9.29,25.88,9.46,8.05.16,9.45-.81,9.45-.81Z"/>
    </g>
    <g>
      <path class="cls-3" d="m1111,404.71l7.09-13.87-27.19-28.12-105.38-60.15s-42.95,15.86-44.78,15.8-34.2,5.1-38.48,13.48c-4.29,8.38-4.47,14.19,1.23,19.41,5.69,5.22,11.26,9.8,11.26,9.8l57.89-8.74,126.15,62.84,12.22-10.45Z"/>
      <path class="cls-4" d="m1091.05,393.33s4.89-4.1-.81-9.32c-5.69-5.22-93.69-71.2-104.99-72.72-11.3-1.53-11.75,1.17-11.75,1.17,0,0-25.72,20.9-26.95,25.13-1.23,4.22,18.27,1.51,18.27,1.51,0,0,72.13,40.1,89.52,46.09,17.38,5.98,18.37,9.5,26.8,9.39,8.42-.12,9.92-1.23,9.92-1.23Z"/>
    </g>
    <g>
      <path class="cls-3" d="m1361.52,485.24l7.09-13.87-27.19-28.12-105.38-60.15s-38.8,2.67-52.54,10.9c-3.58,2.15-34.9-.27-39.18,8.12-4.29,8.38-17.76,16.89-12.06,22.11,5.69,5.22,15.63,11.15,15.63,11.15l75.28-2.53,126.15,62.84,12.22-10.45Z"/>
      <path class="cls-4" d="m1341.57,473.86s4.89-4.1-.81-9.32-93.69-71.2-104.99-72.72-11.75,1.17-11.75,1.17c0,0-21.58,11.31-22.81,15.54-1.23,4.22,15.62,8.91,15.62,8.91,0,0,70.64,42.29,88.02,48.27s18.37,9.5,26.8,9.39c8.42-.12,9.92-1.23,9.92-1.23Z"/>
    </g>
    <g>
      <path class="cls-3" d="m1573.72,547.81l7.09-13.87-27.19-28.12-105.38-60.15s-38.8,2.67-52.54,10.9c-3.58,2.15-34.9-.27-39.18,8.12-4.29,8.38-17.76,16.89-12.06,22.11,5.69,5.22,15.63,11.15,15.63,11.15l75.28-2.53,126.15,62.84,12.22-10.45Z"/>
      <path class="cls-4" d="m1553.77,536.42s4.89-4.1-.81-9.32c-5.69-5.22-93.69-71.2-104.99-72.72-11.3-1.53-11.75,1.17-11.75,1.17,0,0-21.58,11.31-22.81,15.54-1.23,4.22,15.62,8.91,15.62,8.91,0,0,70.64,42.29,88.02,48.27,17.38,5.98,18.37,9.5,26.8,9.39s9.92-1.23,9.92-1.23Z"/>
    </g>
  </g>
</svg>