<?xml version="1.0" encoding="UTF-8"?>
<svg id="_图层_2" data-name="图层 2" xmlns="http://www.w3.org/2000/svg" viewBox="0 0 354.58 292.13">
  <defs>
    <style>
      .cls-1, .cls-2 {
        stroke: #000;
        stroke-miterlimit: 10;
      }

      .cls-2 {
        fill: #423f42;
      }
    </style>
  </defs>
  <g id="chain_b_01_mid" data-name="chain b 01 mid">
    <g>
      <g>
        <path class="cls-1" d="m.53,133.49l1.38-5.26L164.2,24.86l5.68,1.5,92.13,174.36-1.79,5.47-165.23,85.4-11.79-3.83L.53,133.49Zm90.29,104.97l117.13-57.72-53.54-86.68-100.38,57.24,36.79,87.16Z"/>
        <path class="cls-2" d="m169.07,27.45L6.78,130.82l82.67,154.27,171.75-83.28L169.07,27.45Zm-77.57,215.69l-39.82-94.34,103.8-61.49,57.88,93.71-121.85,62.12Z"/>
      </g>
      <g>
        <path class="cls-1" d="m72.71,129.31l13.17-14.89L245.88.53l5.86,1.24,102.31,172.92-1.55,5.67-170.61,93.91-5.45-1.47-103.72-143.48Zm109.05,92.82l111.49-68.7-58.73-85.56-94.47,67.34,41.72,86.93Z"/>
        <path class="cls-2" d="m250.96,2.92L90.96,116.81l91.69,152.94,170.61-93.91L250.96,2.92Zm-68.27,223.95l-45.15-94.08,102.55-68.12,63.49,92.5-120.89,69.71Z"/>
      </g>
    </g>
  </g>
</svg>