<?xml version="1.0" encoding="UTF-8"?>
<svg id="_图层_2" data-name="图层 2" xmlns="http://www.w3.org/2000/svg" viewBox="0 0 1311.11 948.08">
  <defs>
    <style>
      .cls-1, .cls-2 {
        stroke-width: 0px;
      }

      .cls-2 {
        fill: #fff;
      }
    </style>
  </defs>
  <g id="chain02">
    <g>
      <path class="cls-1" d="m1116.75,168.71l36.55-42.25-7.82-9.37s-3.24-2.74-4.24-2.65-35.39,44.16-35.39,44.16c0,0-3.73,3.33,3.58,6.72l7.31,3.39Z"/>
      <path class="cls-2" d="m1116.76,155.54l23.71-28.12c1.43-1.7,3.99-1.89,5.65-.41l-5.12,5.07c1.62,1.44,2.51,4.86,0,4l-19.31,22.1c-.22,4.01-2.45,4.31-4.1,3.19h0c-1.96-1.31-2.34-4.04-.82-5.84Z"/>
    </g>
    <g>
      <path class="cls-1" d="m1048.75,217.71l36.55-42.25-7.82-9.37s-3.24-2.74-4.24-2.65-35.39,44.16-35.39,44.16c0,0-3.73,3.33,3.58,6.72l7.31,3.39Z"/>
      <polygon class="cls-2" points="1044.91 206.92 1074.09 172.32 1082 180.08 1051.49 211.32 1044.91 206.92"/>
    </g>
    <g>
      <path class="cls-1" d="m980.75,265.71l36.55-42.25-7.82-9.37s-3.24-2.74-4.24-2.65-35.39,44.16-35.39,44.16c0,0-3.73,3.33,3.58,6.72l7.31,3.39Z"/>
      <polygon class="cls-2" points="977.91 255.92 1007.09 221.32 1013.4 226.91 982 259.08 977.91 255.92"/>
    </g>
    <g>
      <path class="cls-1" d="m911,310.08l37.31-39.62-7.82-9.37s-3.24-2.74-4.24-2.65-35.39,44.16-35.39,44.16c0,0-3.73,3.33,3.58,6.72s6.56.76,6.56.76Z"/>
      <polygon class="cls-2" points="901.91 306.92 931.09 272.32 937.4 277.91 908.49 311.32 901.91 306.92"/>
    </g>
    <g>
      <path class="cls-1" d="m845,355.08l31.31-35.62-7.82-9.37s-3.24-2.74-4.24-2.65-35.39,44.16-35.39,44.16c0,0,1.83-1.91,9.14,1.48s7,2,7,2Z"/>
      <polygon class="cls-2" points="836.91 351.92 866.09 317.32 872.4 322.91 845 351.08 836.91 351.92"/>
    </g>
    <g>
      <path class="cls-1" d="m768,409.08l27.31-32.62-7.82-9.37s-3.24-2.74-4.24-2.65-35.39,44.16-35.39,44.16c0,0-3.73,3.33,3.58,6.72s16.56-6.24,16.56-6.24Z"/>
      <polygon class="cls-2" points="755.91 408.92 785.09 374.32 791.4 379.91 765 407.08 755.91 408.92"/>
    </g>
    <g>
      <path class="cls-1" d="m679.75,477.71l38.25-40.63-9.51-10.99s-3.24-2.74-4.24-2.65-35.39,44.16-35.39,44.16c0,0-3.73,3.33,3.58,6.72l7.31,3.39Z"/>
      <polygon class="cls-2" points="680.91 460.92 710.09 426.32 716.4 431.91 687.49 465.32 680.91 460.92"/>
    </g>
    <g>
      <path class="cls-1" d="m619,522.08l28.31-32.62-7.82-9.37s-3.24-2.74-4.24-2.65-35.39,44.16-35.39,44.16c0,0-3.73,3.33,3.58,6.72s15.56-6.24,15.56-6.24Z"/>
      <path class="cls-2" d="m616.76,511.54l23.71-28.12c1.43-1.7,3.99-1.89,5.65-.41l.35.31c1.62,1.44,1.79,3.91.37,5.55l-24.06,27.81c-1.31,1.51-3.53,1.81-5.19.7h0c-1.96-1.31-2.34-4.04-.82-5.84Z"/>
    </g>
    <g>
      <path class="cls-1" d="m536.75,583.71l36.55-42.25-7.82-9.37s-3.24-2.74-4.24-2.65-35.39,44.16-35.39,44.16c0,0-3.73,3.33,3.58,6.72l7.31,3.39Z"/>
      <polygon class="cls-2" points="533.91 573.92 563.09 539.32 569.4 544.91 547 567.08 533.91 573.92"/>
    </g>
    <g>
      <path class="cls-1" d="m474,635.08l33.31-42.62-7.82-9.37s-3.24-2.74-4.24-2.65-35.39,44.16-35.39,44.16c0,0-3.73,3.33,3.58,6.72,7.31,3.39,10.56,3.76,10.56,3.76Z"/>
      <polyline class="cls-2" points="474.49 629.32 467.91 624.92 497.09 590.32 503.4 595.91"/>
    </g>
    <polyline class="cls-2" points="475 620.08 467.91 624.92 497.09 590.32 503.4 595.91 481 620.08"/>
    <g>
      <path class="cls-1" d="m318,756.08l36.31-45.62-7.82-9.37s-3.24-2.74-4.24-2.65-35.39,44.16-35.39,44.16c0,0-3.73,3.33,3.58,6.72,7.31,3.39,7.56,6.76,7.56,6.76Z"/>
      <polygon class="cls-2" points="314.91 742.92 344.09 708.32 346 711.08 321.49 747.32 314.91 742.92"/>
    </g>
    <g>
      <path class="cls-1" d="m239,798.08l33.31-30.62-7.82-9.37s-3.24-2.74-4.24-2.65-35.39,44.16-35.39,44.16c0,0-3.73,3.33,3.58,6.72,7.31,3.39,10.56-8.24,10.56-8.24Z"/>
      <polygon class="cls-2" points="239.91 786.92 269.09 752.32 275.4 757.91 248 786.08 239.91 786.92"/>
    </g>
    <g>
      <path class="cls-1" d="m162.75,863.71l37.25-40.63-8.51-10.99s-3.24-2.74-4.24-2.65-35.39,44.16-35.39,44.16c0,0-3.73,3.33,3.58,6.72l7.31,3.39Z"/>
      <polygon class="cls-2" points="160.91 849.92 190.09 815.32 196.4 820.91 167.49 854.32 160.91 849.92"/>
    </g>
    <g>
      <path class="cls-1" d="m94,911.08l23.31-30.62-7.82-9.37s-3.24-2.74-4.24-2.65-35.39,44.16-35.39,44.16c0,0-3.73,3.33,3.58,6.72,7.31,3.39,20.56-8.24,20.56-8.24Z"/>
      <polygon class="cls-2" points="77.91 908.92 107.09 874.32 113.4 879.91 84.49 913.32 77.91 908.92"/>
    </g>
    <g>
      <path class="cls-1" d="m393.75,695.71l36.55-42.25-7.82-9.37s-3.24-2.74-4.24-2.65-35.39,44.16-35.39,44.16c0,0-3.73,3.33,3.58,6.72l7.31,3.39Z"/>
      <polygon class="cls-2" points="390.91 685.92 420.09 651.32 426.4 656.91 397 685.08 390.91 685.92"/>
    </g>
    <g>
      <path class="cls-1" d="m1181.75,124.71l36.55-42.25-7.82-9.37s-3.24-2.74-4.24-2.65-35.39,44.16-35.39,44.16c0,0-3.73,3.33,3.58,6.72l7.31,3.39Z"/>
      <polygon class="cls-2" points="1178.91 114.92 1208.09 80.32 1214.4 85.91 1185.49 119.32 1178.91 114.92"/>
    </g>
    <g>
      <path class="cls-1" d="m1181.75,124.71l36.55-42.25-7.82-9.37s-3.24-2.74-4.24-2.65-35.39,44.16-35.39,44.16c0,0-3.73,3.33,3.58,6.72l7.31,3.39Z"/>
      <polygon class="cls-2" points="1178.91 114.92 1208.09 80.32 1214.4 85.91 1188 113.08 1178.91 114.92"/>
    </g>
    <g>
      <path class="cls-1" d="m1239.75,84.71l36.55-42.25-7.82-9.37s-3.24-2.74-4.24-2.65-35.39,44.16-35.39,44.16c0,0-3.73,3.33,3.58,6.72l7.31,3.39Z"/>
      <polygon class="cls-2" points="1236.91 72.92 1266.09 38.32 1272.4 43.91 1243.49 77.32 1236.91 72.92"/>
    </g>
    <g>
      <path class="cls-1" d="m1120,188.08l-52.69-2.36c-2.14-.16-3.31-1.49-3.31-3.64l-.5-47.3,2.13-2,55.98,3.6c1.34.09,1.52-.33,2.4.69.88,1.02,2.36,3.34,2.25,4.68,0,0-4.25,46.32-6.25,46.32Z"/>
      <path class="cls-2" d="m1077,184.08l41,3c1.58.11,1.87.57,2-1l3.5-46c.14-1.66.14-1.59-1.52-1.69l-55.98-3.6v46.83c0,1.11,9.9,2.38,11,2.46Z"/>
      <path class="cls-1" d="m1073,146.58l39,2s3,28.5,1,29.5-40-3.21-40-3.21v-28.29Z"/>
    </g>
    <g>
      <path class="cls-1" d="m1055,238.08l-55.16-2.97c-2.09-.2-3.22-1.68-3.19-4.01l.26-51.58,2.12-2.15,54.79,4.73c1.31.11,1.49-.33,2.34.79.85,1.12,2.26,3.68,2.13,5.14,0,0-1.33,50.08-3.29,50.05Z"/>
      <path class="cls-2" d="m1000.5,232.94l52.5,4.14c1.54.15.85-1.29,1-3l1.62-47.93c.16-1.81.16-1.73-1.47-1.87l-54.79-4.73-.75,51.06c-.02,1.21.81,2.22,1.89,2.32Z"/>
      <path class="cls-1" d="m1006.03,192.52l38.19,2.74s2.49,31.12.51,32.18-39.15-4.08-39.15-4.08l.45-30.84Z"/>
    </g>
    <g>
      <path class="cls-1" d="m982.06,286.5l-52.17-7.71c-2.11-.37-3.14-1.82-2.93-3.96l4.31-47.1,2.32-1.77,55.32,9.28c1.33.22,1.54-.17,2.31.93.77,1.1,2,3.56,1.76,4.89,0,0-8.94,45.65-10.93,45.44Z"/>
      <path class="cls-2" d="m930.73,276.87l49.44,8.43c1.56.27,1.8.76,2.09-.79l8.16-45.41c.3-1.64.3-1.57-1.34-1.84l-55.32-9.28-4.76,46.59c-.11,1.1.64,2.1,1.73,2.29Z"/>
      <path class="cls-1" d="m939.52,240.43l38.59,5.96s.09,28.66-2.01,29.45-39.47-7.26-39.47-7.26l2.88-28.14Z"/>
    </g>
    <g>
      <path class="cls-1" d="m911,335.08l-59.56-4.22c-2.49-.15-3.85-1.4-3.85-3.42l-.58-44.48,2.48-1.88,65.12,3.39c1.56.08,1.76-.31,2.79.65,1.02.96,2.74,3.14,2.61,4.4,0,0-6.67,45.56-8.99,45.56Z"/>
      <path class="cls-2" d="m852.19,328.99l55.81,5.1c1.83.11,4.58-1.4,4.73-2.88l4.07-43.26c.16-1.56.16-1.49-1.77-1.59l-65.12-3.39v44.04c0,1.04.99,1.91,2.28,1.98Z"/>
      <path class="cls-1" d="m858.05,294.06l45.37,1.88s3.49,26.8,1.16,27.74-46.53-3.02-46.53-3.02v-26.6Z"/>
    </g>
    <g>
      <path class="cls-1" d="m837,392.08l-59.16-3.95c-2.19-.35-3.29-1.9-3.1-4.23l3.61-51.45,2.37-1.99,59.29,4.62c1.38.21,1.18-.18,2,1,.82,1.18.75,7.71.52,9.16,0,0-3.45,47.01-5.52,46.84Z"/>
      <path class="cls-2" d="m778.68,386.02l52.32,4.06c1.62.26,5.73.7,6-1l2.83-45.9c.28-1.79.28-1.71-1.43-1.97l-57.48-8.56-4.09,50.9c-.1,1.2.71,2.27,1.84,2.45Z"/>
      <path class="cls-1" d="m787.12,346.07l40.09,5.41s.61,31.23-1.54,32.15-41.02-6.81-41.02-6.81l2.47-30.75Z"/>
    </g>
    <g>
      <path class="cls-1" d="m757.17,440.08l-57.51-2.36c-2.33-.16-3.62-1.49-3.62-3.64l-.55-47.3,2.32-2,61.1,3.6c1.47.09,1.65-.33,2.61.69.96,1.02,2.57,3.34,2.45,4.68,0,0-4.64,46.32-6.82,46.32Z"/>
      <path class="cls-2" d="m700.37,435.73l54.62,3.36c1.72.11,2.04.57,2.18-1l3.82-46c.15-1.66.15-1.59-1.66-1.69l-61.1-3.6v46.83c0,1.11.93,2.03,2.14,2.11Z"/>
      <path class="cls-1" d="m706,398.58l42.57,2s3.27,28.5,1.09,29.5-43.66-3.21-43.66-3.21v-28.29Z"/>
    </g>
    <g>
      <path class="cls-1" d="m687.66,500.73c-.02,1.26-1.12,2.22-2.37,2.11l-60.73-5.34c-2.56-.17-3.96-1.63-3.96-3.97l-.6-51.57,2.54-2.18,66.9,3.93c1.6.09,1.81-.36,2.86.75,1.05,1.11,2.82,3.64,2.69,5.11-.91-.02-7.17,40.82-7.33,51.15Z"/>
      <path class="cls-2" d="m625.33,495.33l56.67,4.75c1.88.12-.53,1.18,3-2l6.71-50.34c.16-1.81.16-1.73-1.82-1.85l-66.9-3.93v51.07c0,1.21,1.02,2.21,2.34,2.3Z"/>
      <path class="cls-1" d="m631.35,454.83l46.61,2.18s3.59,31.08,1.2,32.17-47.81-3.5-47.81-3.5v-30.85Z"/>
    </g>
    <g>
      <path class="cls-1" d="m1184.91,141.85l-52.37-6.21c-2.12-.31-3.2-1.73-3.04-3.87l2.96-47.21,2.27-1.83,55.56,7.69c1.33.18,1.54-.22,2.34.86.8,1.08,2.11,3.5,1.9,4.83,0,0-7.63,45.88-9.62,45.74Z"/>
      <path class="cls-2" d="m1133.33,133.69l49.66,7.01c1.56.23,1.82.71,2.07-.85l6.86-45.62c.26-1.65.25-1.57-1.4-1.8l-55.56-7.69-3.43,46.71c-.08,1.1.7,2.08,1.8,2.24Z"/>
      <path class="cls-1" d="m1146,94.08l30.91,7.42c1.68.21,2.95,1.61,2.98,3.3.17,7.33.42,25.88-1.24,26.56s-27.7-3.95-36.65-5.58c-1.71-.31-2.91-1.86-2.78-3.6l1.58-21.58c.14-1.95,3.25-6.76,5.19-6.51Z"/>
    </g>
    <g>
      <path class="cls-1" d="m1246.46,101.68l-46.51-5.65c-1.88-.29-2.83-1.62-2.68-3.64l2.83-44.59,2.02-1.74,49.34,7.03c1.18.17,1.37-.21,2.07.81.71,1.02,1.86,3.3,1.67,4.56,0,0-6.96,43.35-8.74,43.22Z"/>
      <path class="cls-2" d="m1200.66,94.19l44.1,6.42c1.39.21,1.62.66,1.84-.81l6.28-43.1c.23-1.55.23-1.49-1.23-1.7l-49.34-7.03-3.24,44.12c-.08,1.04.62,1.96,1.59,2.11Z"/>
      <path class="cls-1" d="m1207.69,59.53l34.41,4.42s.69,27.04-1.15,27.85-35.21-5.63-35.21-5.63l1.96-26.65Z"/>
    </g>
    <g>
      <path class="cls-1" d="m1307.16,51.33l-49.28-.21c-2-.07-3.15-1.31-3.24-3.39l-2.39-45.72,1.91-2.01,52.4,1.28c1.26.03,1.4-.38,2.26.57.86.95,2.34,3.14,2.29,4.44,0,0-2.08,44.95-3.95,45.03Z"/>
      <path class="cls-2" d="m1258.41,49.16l46.85,1.28c1.47.05,1.77.48,1.83-1.05l1.39-44.62c.06-1.61.06-1.54-1.49-1.58l-52.4-1.28,1.91,45.29c.05,1.07.88,1.93,1.91,1.96Z"/>
      <path class="cls-1" d="m1261.6,13.05l36.49.4s3.96,27.44,2.13,28.49c-1.83,1.05-37.47-1.53-37.47-1.53l-1.15-27.35Z"/>
    </g>
    <g>
      <path class="cls-1" d="m83.06,948.08l-77.45-3c-3.14-.2-4.87-1.9-4.87-4.62l-.74-60.03,3.13-2.53,82.29,4.57c1.97.11,2.23-.42,3.52.88,1.29,1.29,3.46,4.24,3.3,5.94,0,0-6.24,58.79-9.18,58.79Z"/>
      <path class="cls-2" d="m6.56,942.55l73.57,4.26c2.32.15,2.75.73,2.94-1.27l5.15-58.38c.2-2.11.2-2.02-2.24-2.15l-82.29-4.57v59.44c0,1.41,1.26,2.57,2.88,2.67Z"/>
      <path class="cls-1" d="m13.97,895.41l57.33,2.54s4.41,36.17,1.47,37.44-58.8-4.08-58.8-4.08v-35.9Z"/>
    </g>
    <g>
      <path class="cls-1" d="m613.55,552.08l-56.46-2.32c-2.29-.15-3.55-1.46-3.55-3.57l-.54-46.38,2.28-1.96,59.99,3.53c1.44.08,1.62-.32,2.57.68.94,1,2.53,3.28,2.41,4.59,0,0-4.55,45.42-6.7,45.42Z"/>
      <path class="cls-2" d="m557.78,547.81l53.63,3.29c1.69.11,2.01.56,2.14-.98l3.75-45.11c.15-1.63.15-1.56-1.63-1.66l-59.99-3.53v45.93c0,1.09.92,1.99,2.1,2.07Z"/>
      <path class="cls-1" d="m563.18,511.39l41.8,1.96s3.22,27.95,1.07,28.93-42.87-3.15-42.87-3.15v-27.74Z"/>
    </g>
    <g>
      <path class="cls-1" d="m545.37,610.08l-55.83-2.61c-2.27-.17-3.51-1.65-3.51-4.01l-.53-52.18,2.26-2.2,59.32,3.97c1.42.1,1.61-.36,2.54.76.93,1.12,2.5,3.69,2.38,5.17,0,0-4.5,51.1-6.62,51.1Z"/>
      <path class="cls-2" d="m490.23,605.28l53.03,3.7c1.67.13,1.98.63,2.12-1.1l3.71-50.75c.14-1.83.15-1.75-1.62-1.87l-59.32-3.98v51.67c0,1.22.91,2.24,2.08,2.32Z"/>
      <path class="cls-1" d="m495.57,564.3l41.33,2.21s3.18,31.44,1.06,32.54-42.39-3.54-42.39-3.54v-31.21Z"/>
    </g>
    <g>
      <path class="cls-1" d="m469.25,669.08l-58.98-2.62c-2.39-.17-3.71-1.65-3.71-4.03l-.56-52.37,2.38-2.21,62.67,3.99c1.5.1,1.7-.36,2.68.76.99,1.13,2.64,3.7,2.52,5.18,0,0-4.75,51.28-6.99,51.28Z"/>
      <path class="cls-2" d="m410.99,664.26l56.02,3.72c1.76.13,2.1.64,2.24-1.11l3.92-50.93c.15-1.84.15-1.76-1.71-1.88l-62.67-3.99v51.85c0,1.23.96,2.24,2.19,2.33Z"/>
      <path class="cls-1" d="m416.64,623.14l43.66,2.21s3.36,31.56,1.12,32.66-44.78-3.56-44.78-3.56v-31.32Z"/>
    </g>
    <g>
      <path class="cls-1" d="m394.85,721.08l-53.95-2.53c-2.19-.17-3.39-1.6-3.39-3.9l-.51-50.66,2.18-2.14,57.31,3.86c1.37.09,1.55-.35,2.45.74.9,1.09,2.41,3.58,2.3,5.02,0,0-4.35,49.61-6.4,49.61Z"/>
      <path class="cls-2" d="m341.57,716.42l51.24,3.6c1.61.12,1.92.61,2.05-1.07l3.58-49.27c.14-1.78.14-1.7-1.56-1.82l-57.31-3.86v50.16c0,1.19.88,2.17,2.01,2.26Z"/>
      <path class="cls-1" d="m346.73,676.64l39.93,2.14s3.07,30.52,1.02,31.6-40.96-3.44-40.96-3.44v-30.3Z"/>
    </g>
    <g>
      <path class="cls-1" d="m317.53,775.08l-62.97-2.66c-2.56-.18-3.96-1.68-3.96-4.09l-.6-53.22,2.54-2.25,66.9,4.05c1.6.1,1.81-.37,2.86.78,1.05,1.15,2.82,3.76,2.69,5.27,0,0-5.08,52.12-7.47,52.12Z"/>
      <path class="cls-2" d="m255.33,770.18l59.81,3.78c1.88.13,2.24.65,2.39-1.13l4.18-51.76c.16-1.87.16-1.79-1.82-1.91l-66.9-4.05v52.7c0,1.25,1.02,2.28,2.34,2.37Z"/>
      <path class="cls-1" d="m261.35,728.39l46.61,2.25s3.59,32.07,1.2,33.2-47.81-3.62-47.81-3.62v-31.83Z"/>
    </g>
    <g>
      <path class="cls-1" d="m237.96,827.08l-69.9-3.17c-2.84-.21-4.4-2-4.4-4.88l-.66-63.49,2.82-2.68,74.26,4.84c1.78.12,2.01-.44,3.18.93,1.17,1.37,3.13,4.48,2.98,6.29,0,0-5.63,62.17-8.29,62.17Z"/>
      <path class="cls-2" d="m168.92,821.24l66.39,4.51c2.09.15,2.48.77,2.65-1.34l4.64-61.75c.18-2.23.18-2.13-2.02-2.27l-74.26-4.84v62.87c0,1.49,1.13,2.72,2.6,2.83Z"/>
      <path class="cls-1" d="m175.6,771.38l51.74,2.68s3.98,38.26,1.33,39.6-53.07-4.31-53.07-4.31v-37.97Z"/>
    </g>
    <g>
      <path class="cls-1" d="m160,886.08l-68.96-.79c-2.83-.18-4.38-1.76-4.38-4.29l-.66-55.75,2.82-2.35,74.04,4.25c1.78.1,2-.39,3.17.81,1.17,1.2,3.12,3.94,2.97,5.52,0,0-6.35,52.6-8.99,52.6Z"/>
      <path class="cls-2" d="m91.9,882.95l63.1,1.14c2.08.14,5.67-3.26,6-9l4.52-47.47c.02,1.93.02,2.02-2.18,1.89l-74.04-4.25v55.21c0,1.31,1.13,2.39,2.59,2.48Z"/>
      <path class="cls-1" d="m98.57,839.17l51.58,2.36s3.97,33.59,1.32,34.77-52.91-3.79-52.91-3.79v-33.34Z"/>
    </g>
    <g>
      <path class="cls-1" d="m1098.5,152.58c0-2,23-35,28-38s8.24-5.21,11.5-2.5c.77.64,7.42.33,8,1,3.79,4.38,8.9,12.61,7,14-.98.72-2.9-1.58-8-2,0,0-1.32-.11-3,0-4.19.27-19.61,12.56-38.5,31.5,0,0-.81.92-1.99.89-.97-.02-1.61-.62-1.89-.89-1.49-1.41-1.17-3.68-1.12-4Z"/>
      <path class="cls-2" d="m1106.08,150.38c-.85-.42-1.14-1.48-.63-2.28,4.13-6.44,20.43-31.64,23.05-32.51,3-1,8.5-1.5,11.5,1.5s-4.5,4.5-4.5,4.5c0,0-27,30-29,29l-.42-.21Z"/>
    </g>
    <g>
      <path class="cls-1" d="m1030.5,199.58c0-2,23-35,28-38s8.24-5.21,11.5-2.5c.77.64,7.42.33,8,1,3.79,4.38,8.9,12.61,7,14-.98.72-2.9-1.58-8-2,0,0-1.32-.11-3,0-4.19.27-19.61,12.56-38.5,31.5,0,0-.81.92-1.99.89-.97-.02-1.61-.62-1.89-.89-1.49-1.41-1.17-3.68-1.12-4Z"/>
      <path class="cls-2" d="m1038.08,196.38c-.85-.42-1.14-1.48-.63-2.28,4.13-6.44,20.43-31.64,23.05-32.51,3-1,5-5,8-2s1.5,9.5,1.5,9.5c0,0-24,25-26,24l-5.92,3.29Z"/>
    </g>
    <g>
      <path class="cls-1" d="m955.09,254.69c0-2.62,31.8-45.8,38.71-49.73,6.91-3.93,11.39-6.82,15.9-3.27,1.07.84,10.26.44,11.06,1.31,5.24,5.74,12.3,16.5,9.68,18.32-1.36.94-4-2.07-11.06-2.62,0,0-5.51,1.89-4.15,0,5.08-7.03-21.12,12.36-53.23,41.22,0,0-1.12,1.2-2.75,1.16-1.35-.03-2.23-.81-2.62-1.16-2.06-1.85-1.61-4.82-1.54-5.23Z"/>
      <path class="cls-2" d="m965.57,251.8c-1.17-.55-2.28-3.67-1.57-4.71,5.72-8.43,28.95-39.68,32.56-40.82,4.15-1.31,6.91-6.54,11.06-2.62s-6.62,12.43-6.62,12.43c0,0-32.09,37.29-34.85,35.99l-.58-.27Z"/>
    </g>
    <g>
      <path class="cls-1" d="m879.09,305.69c0-2.62,31.8-45.8,38.71-49.73,6.91-3.93,11.39-6.82,15.9-3.27,1.07.84,10.26.44,11.06,1.31,5.24,5.74,12.3,16.5,9.68,18.32-1.36.94-4-2.07-11.06-2.62,0,0-1.82-.14-4.15,0-5.79.35-27.12,16.43-53.23,41.22,0,0-1.12,1.2-2.75,1.16-1.35-.03-2.23-.81-2.62-1.16-2.06-1.85-1.61-4.82-1.54-5.23Z"/>
      <path class="cls-2" d="m889.57,302.8c-1.17-.55-1.28-8.67-.57-9.71,5.72-8.43,27.95-34.68,31.56-35.82,4.15-1.31,6.91-6.54,11.06-2.62s-1.38,10.47-1.38,10.47c0,0-37.33,39.26-40.09,37.95l-.58-.27Z"/>
    </g>
    <g>
      <path class="cls-1" d="m807.15,359.66c-.21-2.61,28-48.22,34.58-52.69,6.57-4.47,13.49-5.06,18.27-1.89,1.13.75,7.58-3.04,8.44-2.24,5.69,5.29,13.59,15.46,11.12,17.48-1.28,1.05-4.16-1.74-11.24-1.72,0,0-1.83,0-4.13.33-5.75.82-25.7,18.57-49.73,45.38,0,0-1.02,1.29-2.65,1.38-1.35.08-2.28-.63-2.7-.95-2.2-1.68-2-4.68-1.96-5.09Z"/>
      <path class="cls-2" d="m817.37,355.94c-1.21-.46-1.73-1.81-1.11-2.9,5.02-8.86,24.82-43.55,28.33-44.97,4.03-1.64,9.96-3.55,14.41.02s-4.13,7.02-4.13,7.02c0,0-34.04,42.14-36.9,41.06l-.6-.23Z"/>
    </g>
    <g>
      <path class="cls-1" d="m729.62,408.25c-.19-2.38,29.64-44.4,36.53-48.56,6.89-4.16,11.32-7.17,16.27-4.32,1.17.67,10.69-.46,11.58.26,5.87,4.79,13.99,14,11.4,15.88-1.34.97-4.31-1.55-11.68-1.46,0,0-1.9.02-4.31.35-5.99.81-26.94,17.25-52.23,42.03,0,0-1.07,1.19-2.77,1.29-1.4.08-2.37-.55-2.8-.84-2.27-1.51-2.03-4.26-1.99-4.64Z"/>
      <path class="cls-2" d="m739,407.08c-1.26-.41-5.66-1.99-5-3,5.31-8.16,31.45-42.09,35.12-43.44,4.21-1.54,6.7-6.54,11.29-3.31s-5.41,8.75-5.41,8.75c0,0-25.03,31.96-28,31l-8,10Z"/>
    </g>
    <g>
      <path class="cls-1" d="m653.62,464.25c-.19-2.38,29.64-44.4,36.53-48.56,6.89-4.16,11.32-7.17,16.27-4.32,1.17.67,10.69-.46,11.58.26,5.87,4.79,13.99,14,11.4,15.88-1.34.97-4.31-1.55-11.68-1.46,0,0-1.9.02-4.31.35-5.99.81-26.94,17.25-52.23,42.03,0,0-1.07,1.19-2.77,1.29-1.4.08-2.37-.55-2.8-.84-2.27-1.51-2.03-4.26-1.99-4.64Z"/>
      <path class="cls-2" d="m665.29,457.73c-1.26-.41-1.78-1.64-1.12-2.65,5.31-8.16,27.16-37.66,30.83-39,4.21-1.54,9.4-4.23,14-1,4.6,3.23-4.26,4.9-4.26,4.9.21.28-33.69,41.8-38.83,37.95l-.62-.2Z"/>
    </g>
    <g>
      <path class="cls-1" d="m593.62,522.25c-.19-2.38,29.64-44.4,36.53-48.56,6.89-4.16,11.32-7.17,16.27-4.32,1.17.67,10.69-.46,11.58.26,5.87,4.79,13.99,14,11.4,15.88-1.34.97-4.31-1.55-11.68-1.46,0,0-1.9.02-4.31.35-5.99.81-26.94,17.25-52.23,42.03,0,0-1.07,1.19-2.77,1.29-1.4.08-2.37-.55-2.8-.84-2.27-1.51-2.03-4.26-1.99-4.64Z"/>
      <path class="cls-2" d="m604.29,518.73c-1.26-.41-1.78-1.64-1.12-2.65,5.31-8.16,26.28-40.1,29.95-41.44,4.21-1.54,9.29-.79,13.88,2.44,4.6,3.23-3.26,3.9-3.26,3.9,0,0-35.87,38.91-38.83,37.95l-.62-.2Z"/>
    </g>
    <g>
      <path class="cls-1" d="m517.51,573.5c-.08-2.39,31.64-43,38.71-46.84s11.63-6.64,16.45-3.57c1.14.73,10.7.03,11.56.79,5.64,5.05,13.34,14.63,10.66,16.39-1.38.91-4.23-1.75-11.6-1.99,0,0-1.9-.06-4.32.15-6.02.53-27.7,16-54.1,39.6,0,0-1.13,1.14-2.83,1.16-1.4.02-2.34-.66-2.76-.97-2.2-1.61-1.83-4.35-1.78-4.73Z"/>
      <path class="cls-2" d="m527.33,571.48c-1.24-.46-1.71-1.72-1-2.69,5.68-7.91,28.08-38.86,31.81-40.03,4.28-1.35,9.42-1.11,13.86,2.33,4.44,3.44-3.53,4.49-3.53,4.49,0,0-37.61,37.23-40.53,36.13l-.61-.23Z"/>
    </g>
    <g>
      <path class="cls-1" d="m442.91,636.46c-.22-2.49,30.56-48.27,38.59-51.23,8.5-3.14,12.02-7.63,17.32-4.7,1.25.69,11.4-.61,12.36.14,6.29,4.94,15.03,14.5,12.28,16.49-1.42,1.03-4.61-1.58-12.47-1.39,0,0-2.03.05-4.59.41-6.38.91-28.61,18.36-55.38,44.57,0,0-1.14,1.26-2.95,1.38-1.49.1-2.53-.55-3-.85-2.43-1.56-2.2-4.43-2.16-4.83Z"/>
      <path class="cls-2" d="m454.27,632.66c-1.34-.41-1.91-1.69-1.22-2.76,5.6-8.6,24.05-39.37,27.95-40.82,4.48-1.66,11.07-5.33,16-2,4.93,3.33-.94,5.63-.94,5.63,0,0-37.95,41.12-41.13,40.15l-.66-.2Z"/>
    </g>
    <g>
      <path class="cls-1" d="m365.91,694.46c-.22-2.49,31.27-46.8,38.59-51.23,7.32-4.43,12.02-7.63,17.32-4.7,1.25.69,11.4-.61,12.36.14,6.29,4.94,15.03,14.5,12.28,16.49-1.42,1.03-4.61-1.58-12.47-1.39,0,0-2.03.05-4.59.41-6.38.91-28.61,18.36-55.38,44.57,0,0-1.14,1.26-2.95,1.38-1.49.1-2.53-.55-3-.85-2.43-1.56-2.2-4.43-2.16-4.83Z"/>
      <path class="cls-2" d="m377.27,690.66c-1.34-.41-3.96-3.51-3.27-4.58,5.6-8.6,29.76-40.44,33.67-41.89,4.48-1.66,7.09-6.92,12.02-3.6,4.93,3.33-.63,10.11-.63,10.11,0,0-37.95,41.12-41.13,40.15l-.66-.2Z"/>
    </g>
    <g>
      <path class="cls-1" d="m292.91,745.46c-.22-2.49,31.27-46.8,38.59-51.23,7.32-4.43,12.02-7.63,17.32-4.7,1.25.69,11.4-.61,12.36.14,6.29,4.94,15.03,14.5,12.28,16.49-1.42,1.03-4.61-1.58-12.47-1.39,0,0-2.03.05-4.59.41-6.38.91-28.61,18.36-55.38,44.57,0,0-1.14,1.26-2.95,1.38-1.49.1-2.53-.55-3-.85-2.43-1.56-2.2-4.43-2.16-4.83Z"/>
      <path class="cls-2" d="m304.27,741.66c-1.34-.41-1.91-1.69-1.22-2.76,5.6-8.6,27.72-42.26,31.62-43.71,4.48-1.66,9.4-4.44,14.33-1.11,4.93,3.33,2,6,2,6,0,0-42.9,42.75-46.07,41.78l-.66-.2Z"/>
    </g>
    <g>
      <path class="cls-1" d="m204.12,794.58c-.05-2.5,34.49-44.48,42.1-48.38,7.61-3.9,12.53-6.76,17.61-3.47,1.2.78,11.41.2,12.31,1.02,5.93,5.37,13.97,15.52,11.09,17.32-1.49.93-4.49-1.9-12.34-2.27,0,0-2.03-.1-4.61.09-6.43.46-29.83,16.3-58.39,40.56,0,0-1.22,1.17-3.04,1.17-1.5,0-2.49-.73-2.93-1.06-2.32-1.72-1.88-4.58-1.81-4.97Z"/>
      <path class="cls-2" d="m215.72,791.59c-1.31-.5-1.79-1.82-1.02-2.84,6.2-8.19,30.63-40.2,34.63-41.37,4.58-1.34,7.56-6.4,12.24-2.74,4.68,3.67-1.34,10.04-1.34,10.04,0,0-40.76,38.34-43.86,37.15l-.65-.25Z"/>
    </g>
    <g>
      <path class="cls-1" d="m134.25,859.03c-.58-2.41,34.62-51.17,42.75-56.95,8.13-5.77,9.97-10.72,16.63-8.87,1.57.44,13.45-2.8,14.68-2.25,8.09,3.64,19.66,11.34,16.64,13.83-1.56,1.29-5.67-.66-14.97,1.05,0,0-2.4.44-5.4,1.3-7.46,2.13-31.66,23.59-60.18,54.55,0,0-1.19,1.45-3.32,1.93-1.76.39-3.08-.05-3.66-.25-3.08-1.06-3.16-3.93-3.17-4.33Z"/>
      <path class="cls-2" d="m147.26,853.1c-1.65-.14-2.48-1.29-1.79-2.47,5.58-9.54,29.08-43.36,33.54-45.54,5.11-2.5,6.74-6.32,13-4,6.26,2.32,1,9,1,9,0,0-41.04,43.42-44.93,43.08l-.81-.07Z"/>
    </g>
    <g>
      <path class="cls-1" d="m52.25,919.03c-.58-2.41,31.27-52.07,39.4-57.84,8.13-5.77,13.31-9.83,19.97-7.98,1.57.44,13.45-2.8,14.68-2.25,8.09,3.64,19.66,11.34,16.64,13.83-1.56,1.29-5.67-.66-14.97,1.05,0,0-2.4.44-5.4,1.3-7.46,2.13-31.66,23.59-60.18,54.55,0,0-1.19,1.45-3.32,1.93-1.76.39-3.08-.05-3.66-.25-3.08-1.06-3.16-3.93-3.17-4.33Z"/>
      <path class="cls-2" d="m64.26,913.1c-1.65-.14-2.48-1.29-1.79-2.47,5.58-9.54,27.62-46.91,32.08-49.09,5.11-2.5,9.19-3.76,15.46-1.45,5.82,2.15.61,5.73.07,6.87-.04.09-.1.17-.16.24-2.19,2.47-41.06,46.3-44.84,45.97l-.81-.07Z"/>
    </g>
    <g>
      <path class="cls-1" d="m1161.5,110.58c0-2,23-35,28-38s8.24-5.21,11.5-2.5c.77.64,7.42.33,8,1,3.79,4.38,8.9,12.61,7,14-.98.72-2.9-1.58-8-2,0,0-1.32-.11-3,0-4.19.27-19.61,12.56-38.5,31.5,0,0-.81.92-1.99.89-.97-.02-1.61-.62-1.89-.89-1.49-1.41-1.17-3.68-1.12-4Z"/>
      <path class="cls-2" d="m1169.08,108.38c-.85-.42-1.14-1.48-.63-2.28,4.13-6.44,20.43-31.64,23.05-32.51,3-1,5-5,8-2s-1,8-1,8c0,0-27,30-29,29l-.42-.21Z"/>
    </g>
    <g>
      <path class="cls-1" d="m1226.5,70.29c0-2.12,24.5-37.08,29.83-40.26s8.77-5.52,12.25-2.65c.82.68,7.91.35,8.52,1.06,4.04,4.64,9.48,13.36,7.46,14.83-1.05.76-3.09-1.68-8.52-2.12,0,0-1.4-.11-3.2,0-4.47.28-20.89,13.31-41.01,33.38,0,0-.86.97-2.12.94-1.04-.03-1.72-.66-2.02-.94-1.58-1.5-1.24-3.9-1.19-4.24Z"/>
      <path class="cls-2" d="m1234.58,67.95c-.9-.45-1.22-1.57-.67-2.42,4.4-6.83,21.77-33.52,24.55-34.45,3.2-1.06,5.33-5.3,8.52-2.12,3.2,3.18-1.07,8.48-1.07,8.48,0,0-28.76,31.79-30.89,30.73l-.44-.22Z"/>
    </g>
  </g>
</svg>