<?xml version="1.0" encoding="UTF-8"?>
<svg id="_图层_2" data-name="图层 2" xmlns="http://www.w3.org/2000/svg" viewBox="0 0 281.53 1337.24">
  <defs>
    <style>
      .cls-1, .cls-2 {
        stroke-width: 0px;
      }

      .cls-2 {
        fill: #fff;
      }
    </style>
  </defs>
  <g id="chain03">
    <g>
      <path class="cls-1" d="m238.68,213.98l-2.34-47.15-9.36-1.2s-3.27.21-3.77.84,4.01,47.65,4.01,47.65c0,0-.29,4.21,5.59,2.04l5.88-2.17Z"/>
      <path class="cls-2" d="m231.63,205.89l-1.9-31.02c-.11-1.88,1.2-3.47,2.92-3.54l-.13,6.09c1.67-.06,3.99,1.52,2.14,2.45l1.12,24.77c2.03,2.58.95,4.06-.57,4.34h0c-1.79.33-3.46-1.11-3.59-3.1Z"/>
    </g>
    <g>
      <path class="cls-1" d="m227.18,283.55l-2.34-47.15-9.36-1.2s-3.27.21-3.77.84,4.01,47.65,4.01,47.65c0,0-.29,4.21,5.59,2.04l5.88-2.17Z"/>
      <polygon class="cls-2" points="219.27 279.17 216.93 240.99 225.48 241.15 225.28 278.04 219.27 279.17"/>
    </g>
    <g>
      <path class="cls-1" d="m215.15,352.51l-2.34-47.15-9.36-1.2s-3.27.21-3.77.84,4.01,47.65,4.01,47.65c0,0-.29,4.21,5.59,2.04l5.88-2.17Z"/>
      <polygon class="cls-2" points="208.32 348.16 205.98 309.99 212.48 309.75 212.29 347.73 208.32 348.16"/>
    </g>
    <g>
      <path class="cls-1" d="m200.19,420.27l-.52-45.98-9.36-1.2s-3.27.21-3.77.84,4.01,47.65,4.01,47.65c0,0-.29,4.21,5.59,2.04s4.05-3.35,4.05-3.35Z"/>
      <polygon class="cls-2" points="193.45 423.61 191.11 385.44 197.61 385.2 199.47 422.49 193.45 423.61"/>
    </g>
    <g>
      <path class="cls-1" d="m187.66,486.23l-1.7-40.04-9.36-1.2s-3.27.21-3.77.84,4.01,47.65,4.01,47.65c0,0,0-2.23,5.87-4.4s4.96-2.84,4.96-2.84Z"/>
      <polygon class="cls-2" points="181.48 488.99 179.14 450.82 185.64 450.58 185.52 483.78 181.48 488.99"/>
    </g>
    <g>
      <path class="cls-1" d="m173.84,564.11l-2.32-35.87-9.36-1.2s-3.27.21-3.77.84,4.01,47.65,4.01,47.65c0,0-.29,4.21,5.59,2.04,5.88-2.17,5.85-13.45,5.85-13.45Z"/>
      <polygon class="cls-2" points="167.04 571.03 164.71 532.86 171.21 532.62 171.11 564.62 167.04 571.03"/>
    </g>
    <g>
      <path class="cls-1" d="m161.62,657.49l-.54-47.15-11.17-1.21s-3.27.21-3.77.84,4.01,47.65,4.01,47.65c0,0-.29,4.21,5.59,2.04l5.88-2.17Z"/>
      <polygon class="cls-2" points="153.27 646.52 150.93 608.34 157.43 608.1 159.28 645.39 153.27 646.52"/>
    </g>
    <g>
      <path class="cls-1" d="m151.67,720.01l-1.76-36.46-9.36-1.2s-3.27.21-3.77.84,4.01,47.65,4.01,47.65c0,0-.29,4.21,5.59,2.04,5.88-2.17,5.3-12.87,5.3-12.87Z"/>
      <path class="cls-2" d="m144.77,714.85l-1.9-31.02c-.11-1.88,1.2-3.47,2.92-3.54h.36c1.67-.08,3.09,1.35,3.18,3.18l1.54,31.04c.08,1.69-.99,3.16-2.51,3.45h0c-1.79.33-3.46-1.11-3.59-3.1Z"/>
    </g>
    <g>
      <path class="cls-1" d="m139.02,805.61l-2.34-47.15-9.36-1.2s-3.27.21-3.77.84,4.01,47.65,4.01,47.65c0,0-.29,4.21,5.59,2.04l5.88-2.17Z"/>
      <polygon class="cls-2" points="132.2 801.26 129.86 763.09 136.36 762.85 135.8 789.46 132.2 801.26"/>
    </g>
    <g>
      <path class="cls-1" d="m131.71,873.59l-4.34-45.49-9.36-1.2s-3.27.21-3.77.84,4.01,47.65,4.01,47.65c0,0-.29,4.21,5.59,2.04,5.88-2.17,7.88-3.83,7.88-3.83Z"/>
      <polyline class="cls-2" points="128.89 869.78 122.88 870.9 120.54 832.73 127.04 832.49"/>
    </g>
    <polyline class="cls-2" points="124.22 863.82 122.88 870.9 120.54 832.73 127.04 832.49 127.56 860.33"/>
    <g>
      <path class="cls-1" d="m109.93,1038.48l-4.29-49.08-9.36-1.2s-3.27.21-3.77.84,4.01,47.65,4.01,47.65c0,0-.29,4.21,5.59,2.04,5.88-2.17,7.82-.25,7.82-.25Z"/>
      <polygon class="cls-2" points="101.16 1032.2 98.82 994.02 101.36 994.61 107.17 1031.07 101.16 1032.2"/>
    </g>
    <g>
      <path class="cls-1" d="m88.57,1110.15l2.09-38.14-9.36-1.2s-3.27.21-3.77.84,4.01,47.65,4.01,47.65c0,0-.29,4.21,5.59,2.04,5.88-2.17,1.45-11.19,1.45-11.19Z"/>
      <polygon class="cls-2" points="83.09 1102.78 80.76 1064.6 87.26 1064.36 87.14 1097.56 83.09 1102.78"/>
    </g>
    <g>
      <path class="cls-1" d="m81.4,1194.72l-1.09-46.56-10.62-1.79s-3.27.21-3.77.84,4.01,47.65,4.01,47.65c0,0-.29,4.21,5.59,2.04l5.88-2.17Z"/>
      <polygon class="cls-2" points="72.99 1187.33 70.65 1149.16 77.15 1148.92 79 1186.21 72.99 1187.33"/>
    </g>
    <g>
      <path class="cls-1" d="m68.61,1263.74l-3.47-32.32-9.36-1.2s-3.27.21-3.77.84,4.01,47.65,4.01,47.65c0,0-.29,4.21,5.59,2.04s7-17,7-17Z"/>
      <polygon class="cls-2" points="58.52 1271.76 56.18 1233.59 62.68 1233.35 64.53 1270.63 58.52 1271.76"/>
    </g>
    <g>
      <path class="cls-1" d="m119.64,957.42l-2.34-47.15-9.36-1.2s-3.27.21-3.77.84,4.01,47.65,4.01,47.65c0,0-.29,4.21,5.59,2.04l5.88-2.17Z"/>
      <polygon class="cls-2" points="112.81 953.07 110.48 914.89 116.98 914.65 115.75 949.02 112.81 953.07"/>
    </g>
    <g>
      <path class="cls-1" d="m251.19,149.21l-2.34-47.15-9.36-1.2s-3.27.21-3.77.84,4.01,47.65,4.01,47.65c0,0-.29,4.21,5.59,2.04l5.88-2.17Z"/>
      <polygon class="cls-2" points="244.37 144.86 242.03 106.68 248.53 106.44 250.38 143.73 244.37 144.86"/>
    </g>
    <g>
      <path class="cls-1" d="m251.19,149.21l-2.34-47.15-9.36-1.2s-3.27.21-3.77.84,4.01,47.65,4.01,47.65c0,0-.29,4.21,5.59,2.04l5.88-2.17Z"/>
      <polygon class="cls-2" points="244.37 144.86 242.03 106.68 248.53 106.44 248.43 138.45 244.37 144.86"/>
    </g>
    <g>
      <path class="cls-1" d="m261.96,90.97l-2.34-47.15-9.36-1.2s-3.27.21-3.77.84,4.01,47.65,4.01,47.65c0,0-.29,4.21,5.59,2.04l5.88-2.17Z"/>
      <polygon class="cls-2" points="254.07 85.38 251.73 47.21 258.23 46.97 260.08 84.26 254.07 85.38"/>
    </g>
    <g>
      <path class="cls-1" d="m250.86,223.97l-30.52,29.18c-1.27,1.15-2.64,1.01-3.79-.3l-25.62-28.71.11-2.46,33.01-30.33c.79-.73.67-1.08,1.7-.97,1.03.11,3.1.68,3.76,1.56,0,0,22.46,30.87,21.35,32.03Z"/>
      <path class="cls-2" d="m224.85,246.51l24.37-22c.94-.85,1.35-.74.57-1.78l-22.71-30.24c-.81-1.1-.77-1.05-1.75-.15l-33.01,30.33,25.1,28.72c.59.68,6.77-4.29,7.43-4.88Z"/>
      <path class="cls-1" d="m202.53,225.85l22.73-21.45s16.94,15.73,16.36,17.51-23.93,21.28-23.93,21.28l-15.16-17.34Z"/>
    </g>
    <g>
      <path class="cls-1" d="m241.57,292.41l-32.22,30.25c-1.27,1.09-2.69.85-3.92-.61l-27.49-31.78.03-2.55,32.96-28.95c.79-.69.65-1.07,1.72-.88,1.07.2,3.22.94,3.93,1.91,0,0,26.1,31.48,24.99,32.6Z"/>
      <path class="cls-2" d="m208.55,320.94l31.37-27.98c.94-.81-.22-1.28-1.05-2.42l-24.78-30.33c-.88-1.2-.84-1.15-1.82-.29l-32.96,28.95,26.95,31.74c.64.75,1.64.89,2.29.33Z"/>
      <path class="cls-1" d="m189.96,292.94l22.67-20.52s18.05,17.63,17.53,19.43-23.92,20.26-23.92,20.26l-16.28-19.17Z"/>
    </g>
    <g>
      <path class="cls-1" d="m227.01,364.5l-33.1,25.6c-1.37,1-2.72.71-3.74-.72l-22.85-31.39.34-2.43,35.69-26.47c.86-.64.76-1,1.78-.77,1.02.23,3.02,1.02,3.6,1.97,0,0,19.5,33.18,18.28,34.21Z"/>
      <path class="cls-2" d="m193.35,388.44l31.97-23.57c1.01-.74,1.41-.58.74-1.7l-19.8-32.58c-.71-1.18-.67-1.13-1.73-.35l-35.69,26.47,22.32,31.34c.53.74,1.48.91,2.19.4Z"/>
      <path class="cls-1" d="m178.71,360.98l24.62-18.79s15.4,17.52,14.67,19.22-25.81,18.49-25.81,18.49l-13.48-18.93Z"/>
    </g>
    <g>
      <path class="cls-1" d="m213.59,435.6l-35.33,32.04c-1.46,1.36-2.89,1.38-3.97.14l-24.16-26.93.37-2.59,37.97-35.78c.91-.86.81-1.21,1.9-1.22,1.08,0,3.21.33,3.81,1.18,0,0,20.71,31.81,19.42,33.16Z"/>
      <path class="cls-2" d="m177.67,466.05l33.72-29.32c1.08-1,1.79-3.52,1.08-4.51l-20.92-28.89c-.75-1.05-.71-1.01-1.84.05l-37.97,35.78,23.6,27c.56.64,1.57.59,2.33-.11Z"/>
      <path class="cls-1" d="m162.21,441.23l26.2-25.22s16.3,14.4,15.51,16.33-27.45,25.2-27.45,25.2l-14.25-16.31Z"/>
    </g>
    <g>
      <path class="cls-1" d="m203.05,513.57l-34.97,31.97c-1.4,1.06-2.84.75-3.99-.79l-25.57-33.65.25-2.6,35.39-31.63c.88-.68.56-.8,1.65-.55,1.09.25,4.55,4.29,5.2,5.31,0,0,23.27,30.83,22.03,31.93Z"/>
      <path class="cls-2" d="m167.41,543.76l31.23-27.93c1.03-.78,3.56-2.9,2.8-4.1l-23.02-29.79c-.8-1.26-.76-1.21-1.85-.38l-36.5,28.17,25.01,33.59c.59.79,1.61.98,2.33.43Z"/>
      <path class="cls-1" d="m150.69,514.35l25.16-19.99s17.07,18.79,16.37,20.61-26.42,19.67-26.42,19.67l-15.1-20.29Z"/>
    </g>
    <g>
      <path class="cls-1" d="m184.44,589.41l-33.2,31.99c-1.38,1.26-2.81,1.19-3.96-.13l-25.65-28.68.22-2.57,35.86-33.31c.86-.8.74-1.16,1.82-1.1,1.08.07,3.22.55,3.87,1.45,0,0,22.24,31.09,21.03,32.36Z"/>
      <path class="cls-2" d="m150.57,619.76l32.13-29.7c1.02-.93,1.44-.84.68-1.88l-22.53-30.43c-.81-1.1-.77-1.06-1.83-.07l-35.86,33.31,25.1,28.72c.59.68,1.6.7,2.32.05Z"/>
      <path class="cls-1" d="m133.79,593.71l24.71-23.52s17.09,15.57,16.41,17.45-25.96,23.41-25.96,23.41l-15.16-17.34Z"/>
    </g>
    <g>
      <path class="cls-1" d="m178.35,667.01c.66.78.57,2.01-.18,2.67l-36.58,32.03c-1.51,1.38-3.07,1.3-4.32-.13l-27.97-31.27.25-2.81,39.25-36.48c.94-.88.81-1.27,1.99-1.2,1.18.07,3.52.6,4.23,1.57-.52.52,17.89,29.2,23.34,35.63Z"/>
      <path class="cls-2" d="m140.84,699.93l34.01-30.03c1.11-1.02.34,1.03.59-2.97l-23.25-34.77c-.88-1.2-.84-1.16-2-.07l-39.25,36.48,27.36,31.31c.65.74,1.75.76,2.53.05Z"/>
      <path class="cls-1" d="m122.49,671.6l27.05-25.76s18.64,16.97,17.9,19.03-28.42,25.64-28.42,25.64l-16.53-18.91Z"/>
    </g>
    <g>
      <path class="cls-1" d="m262.13,157.88l-32.41,26.64c-1.35,1.04-2.7.8-3.76-.61l-23.65-30.67.28-2.44,34.97-27.59c.84-.66.74-1.02,1.76-.83,1.03.19,3.05.92,3.64,1.86,0,0,20.35,32.56,19.17,33.63Z"/>
      <path class="cls-2" d="m229.12,182.87l31.33-24.57c.99-.77,1.39-.63.69-1.72l-20.64-31.96c-.74-1.16-.7-1.11-1.74-.29l-34.97,27.59,23.13,30.63c.55.72,1.51.87,2.2.33Z"/>
      <path class="cls-1" d="m214.93,151.22l21.14-13.42c1.04-.85,2.5-.73,3.42.29,4.02,4.4,14.1,15.62,13.54,17s-17.49,13.68-23.34,17.89c-1.12.8-2.61.55-3.47-.59l-10.69-14.15c-.96-1.28-1.81-6.03-.61-7.01Z"/>
    </g>
    <g>
      <path class="cls-1" d="m274.78,97.47l-28.85,23.57c-1.2.92-2.44.65-3.44-.67l-22.32-28.98.19-2.24,31.16-24.37c.75-.58.65-.92,1.58-.71.94.21,2.8.94,3.37,1.83,0,0,19.36,30.63,18.31,31.58Z"/>
      <path class="cls-2" d="m245.34,119.5l27.92-21.7c.88-.68,1.25-.53.59-1.57l-19.61-30.08c-.7-1.09-.67-1.05-1.59-.32l-31.16,24.37,21.84,28.93c.52.68,1.4.85,2.01.37Z"/>
      <path class="cls-1" d="m230.67,94.16l21.47-17.3s14.87,16.18,14.28,17.75-22.57,17.02-22.57,17.02l-13.19-17.47Z"/>
    </g>
    <g>
      <path class="cls-1" d="m281.5,31.31l-27.47,28.52c-1.15,1.12-2.45,1.03-3.61-.19l-25.82-26.64-.02-2.34L254.35.98c.71-.71.58-1.05,1.56-.96.99.08,2.98.57,3.65,1.39,0,0,22.93,28.77,21.94,29.9Z"/>
      <path class="cls-2" d="m253.27,58.32l26.7-26.45c.85-.83,1.24-.73.45-1.7l-23.13-28.17c-.83-1.02-.79-.98-1.67-.1l-29.78,29.67,25.32,26.66c.6.63,1.52.67,2.11.09Z"/>
      <path class="cls-1" d="m235.69,34.32l20.47-20.97s16.9,14.52,16.45,16.22-21.63,20.84-21.63,20.84l-15.3-16.1Z"/>
    </g>
    <g>
      <path class="cls-1" d="m82.37,1292.78l-44.61,43.19c-1.85,1.71-3.72,1.67-5.18,0L0,1299.59l.38-3.37,48.14-45.04c1.15-1.08,1.01-1.55,2.43-1.51,1.41.04,4.2.59,5.02,1.72,0,0,28.03,39.67,26.4,41.38Z"/>
      <path class="cls-2" d="m36.92,1333.87l43.13-40.16c1.36-1.26,1.92-1.15.95-2.49l-28.43-38.79c-1.02-1.41-.97-1.35-2.4-.02l-48.14,45.04,31.85,36.45c.75.86,2.08.85,3.03-.03Z"/>
      <path class="cls-1" d="m15.78,1300.66l33.19-31.78s21.83,19.61,20.88,22.1-34.83,31.69-34.83,31.69l-19.24-22.01Z"/>
    </g>
    <g>
      <path class="cls-1" d="m164.72,741.57l-32.59,31.41c-1.35,1.24-2.76,1.17-3.88-.12l-25.15-28.13.22-2.53,35.2-32.71c.84-.78.73-1.14,1.79-1.08,1.06.06,3.16.54,3.8,1.42,0,0,21.81,30.49,20.62,31.74Z"/>
      <path class="cls-2" d="m131.46,771.38l31.54-29.16c1-.91,1.42-.82.66-1.85l-22.09-29.84c-.79-1.08-.75-1.04-1.8-.07l-35.2,32.71,24.61,28.16c.58.67,1.57.69,2.27.05Z"/>
      <path class="cls-1" d="m114.94,745.91l24.26-23.1s16.76,15.27,16.1,17.11-25.49,22.99-25.49,22.99l-14.86-17.01Z"/>
    </g>
    <g>
      <path class="cls-1" d="m157.94,816.77l-32.4,30.86c-1.35,1.21-2.83,1.03-4.1-.42l-28.25-31.68.07-2.66,35.07-32.05c.84-.77.7-1.16,1.82-1.01,1.12.15,3.36.81,4.09,1.78,0,0,24.88,33.95,23.7,35.18Z"/>
      <path class="cls-2" d="m124.74,845.89l31.43-28.56c.99-.89,1.44-.76.59-1.91l-25.13-33.27c-.9-1.21-.86-1.16-1.9-.21l-35.07,32.05,27.69,31.68c.65.75,1.7.84,2.4.22Z"/>
      <path class="cls-1" d="m105.75,817.66l24.13-22.67s18.61,17.43,18.03,19.34-25.43,22.47-25.43,22.47l-16.72-19.13Z"/>
    </g>
    <g>
      <path class="cls-1" d="m147.29,897.2l-34.15,32.69c-1.42,1.29-2.95,1.14-4.22-.31l-28.37-31.78.14-2.74,36.93-33.99c.89-.82.75-1.21,1.9-1.09,1.15.12,3.45.73,4.17,1.72,0,0,24.84,34.21,23.6,35.51Z"/>
      <path class="cls-2" d="m112.36,928.11l33.1-30.29c1.05-.95,1.5-.83.65-1.98l-25.12-33.51c-.9-1.21-.86-1.17-1.95-.16l-36.93,33.99,27.79,31.79c.66.75,1.73.82,2.47.16Z"/>
      <path class="cls-1" d="m93.45,899.62l25.43-24.03s18.77,17.39,18.12,19.38-26.77,23.85-26.77,23.85l-16.78-19.2Z"/>
    </g>
    <g>
      <path class="cls-1" d="m133.84,972.34l-31.31,29.81c-1.31,1.17-2.74.99-3.97-.42l-27.43-30.76.06-2.58,33.89-30.95c.81-.74.67-1.12,1.76-.97,1.09.14,3.26.79,3.96,1.74,0,0,24.17,32.94,23.03,34.13Z"/>
      <path class="cls-2" d="m101.76,1000.45l30.38-27.58c.96-.86,1.39-.74.56-1.85l-24.41-32.29c-.88-1.17-.83-1.12-1.84-.21l-33.89,30.95,26.88,30.75c.64.73,1.65.82,2.32.22Z"/>
      <path class="cls-1" d="m83.31,973.06l23.32-21.9s18.06,16.93,17.5,18.78-24.58,21.7-24.58,21.7l-16.23-18.58Z"/>
    </g>
    <g>
      <path class="cls-1" d="m119.85,1050.4l-36.39,34.98c-1.51,1.38-3.1,1.27-4.39-.21l-28.85-32.29.21-2.86,39.32-36.41c.94-.87.81-1.28,2.01-1.19,1.2.09,3.58.67,4.31,1.67,0,0,25.11,34.91,23.78,36.3Z"/>
      <path class="cls-2" d="m82.69,1083.55l35.23-32.45c1.11-1.02,1.59-.9.72-2.08l-25.41-34.17c-.91-1.24-.87-1.19-2.03-.11l-39.32,36.41,28.24,32.31c.67.76,1.79.8,2.57.09Z"/>
      <path class="cls-1" d="m63.63,1054.42l27.09-25.72s19.18,17.58,18.45,19.66-28.48,25.58-28.48,25.58l-17.06-19.52Z"/>
    </g>
    <g>
      <path class="cls-1" d="m103.53,1128.54l-40.51,38.69c-1.69,1.52-3.51,1.33-5.06-.44l-34.39-38.54.13-3.28,43.82-40.21c1.05-.96.88-1.44,2.26-1.28,1.38.16,4.14.93,5.02,2.12,0,0,30.19,41.4,28.71,42.94Z"/>
      <path class="cls-2" d="m62.06,1165.09l39.28-35.83c1.24-1.12,1.79-.97.75-2.37l-30.51-40.56c-1.09-1.47-1.04-1.41-2.34-.22l-43.82,40.21,33.69,38.54c.8.91,2.09,1.01,2.96.22Z"/>
      <path class="cls-1" d="m39.06,1130.64l30.17-28.43s22.71,21.14,21.95,23.51-31.78,28.21-31.78,28.21l-20.35-23.28Z"/>
    </g>
    <g>
      <path class="cls-1" d="m91.86,1210.04l-38.71,39.61c-1.67,1.53-3.38,1.47-4.73-.08l-30.24-33.8.3-3.08,43.38-40.44c1.04-.97.91-1.4,2.2-1.34,1.29.06,3.84.6,4.61,1.66,0,0,24.66,35.94,23.19,37.48Z"/>
      <path class="cls-2" d="m52.37,1247.71l35.65-35.99c1.23-1.13,1.4-5.29-1.49-9.01l-22.93-31.73c1.04,1.17,1.09,1.22-.2,2.42l-43.38,40.44,29.58,33.85c.7.8,1.91.81,2.77.02Z"/>
      <path class="cls-1" d="m32.61,1216.99l29.9-28.54s20.2,18.29,19.37,20.55c-.84,2.26-31.4,28.44-31.4,28.44l-17.87-20.44Z"/>
    </g>
    <g>
      <path class="cls-1" d="m219.9,214.7c-1.07-1.23-5.98-34.83-4.82-39.58s1.78-7.98,5.05-8.22c.77-.06,4.3-4.11,4.98-4.04,4.45.48,11.7,2.56,11.39,4.51-.16,1.01-2.46.71-5.51,3.42,0,0-.79.7-1.67,1.74-2.18,2.6-4.16,19.1-4.5,41.7,0,0,.04,1.03-.63,1.7-.55.55-1.23.56-1.53.56-1.58,0-2.62-1.58-2.76-1.8Z"/>
      <path class="cls-2" d="m222.93,208.94c-.7.23-1.43-.25-1.57-1.03-1.16-6.35-5.61-31.28-4.62-33.33,1.13-2.36,3.92-5.86,7.19-5.77s-.09,5.38-.09,5.38c0,0,1.08,34.09-.56,34.64l-.34.11Z"/>
    </g>
    <g>
      <path class="cls-1" d="m207.33,283.05c-1.07-1.23-5.98-34.83-4.82-39.58s1.78-7.98,5.05-8.22c.77-.06,4.3-4.11,4.98-4.04,4.45.48,11.7,2.56,11.39,4.51-.16,1.01-2.46.71-5.51,3.42,0,0-.79.7-1.67,1.74-2.18,2.6-4.16,19.1-4.5,41.7,0,0,.04,1.03-.63,1.7-.55.55-1.23.56-1.53.56-1.58,0-2.62-1.58-2.76-1.8Z"/>
      <path class="cls-2" d="m209.82,276.67c-.7.23-1.43-.25-1.57-1.03-1.16-6.35-5.61-31.28-4.62-33.33,1.13-2.36.1-5.97,3.37-5.88s5.92,4.95,5.92,4.95c0,0,.07,29.28-1.58,29.83l-1.52,5.46Z"/>
    </g>
    <g>
      <path class="cls-1" d="m194.99,360.68c-1.4-1.6-6.89-46.57-5.15-52.99,1.73-6.43,2.67-10.8,7.07-11.25,1.04-.11,5.93-5.7,6.84-5.63,5.98.47,15.67,2.97,15.19,5.61-.25,1.37-3.33,1.06-7.54,4.83,0,0-2.05,4.36-2.3,2.41-.95-7.27-5.1,19.86-7.46,56.22,0,0,.02,1.39-.9,2.31-.76.76-1.67.8-2.08.81-2.13.06-3.48-2.02-3.66-2.31Z"/>
      <path class="cls-2" d="m199.26,352.81c-.95.34-3.23-.93-3.4-1.98-1.34-8.49-5.19-41.15-3.79-43.96,1.6-3.21.33-8.03,4.74-8.03s2.99,11.47,2.99,11.47c0,0,2.17,41.52-.07,42.33l-.47.17Z"/>
    </g>
    <g>
      <path class="cls-1" d="m180.12,436.13c-1.4-1.6-6.89-46.57-5.15-52.99,1.73-6.43,2.67-10.8,7.07-11.25,1.04-.11,5.93-5.7,6.84-5.63,5.98.47,15.67,2.97,15.19,5.61-.25,1.37-3.33,1.06-7.54,4.83,0,0-1.09.97-2.3,2.41-3.03,3.58-6.25,25.84-7.46,56.22,0,0,.02,1.39-.9,2.31-.76.76-1.67.8-2.08.81-2.13.06-3.48-2.02-3.66-2.31Z"/>
      <path class="cls-2" d="m184.39,428.26c-.95.34-5.35-4.57-5.52-5.62-1.34-8.49-3.06-37.51-1.67-40.31,1.6-3.21.33-8.03,4.74-8.03s4.84,7.22,4.84,7.22c0,0,.31,45.77-1.93,46.58l-.47.17Z"/>
    </g>
    <g>
      <path class="cls-1" d="m169.1,511.04c-1.51-1.48-10.29-45.84-9.03-52.4s4.77-10.95,9.13-11.78c1.03-.2,2.58-6.27,3.49-6.28,5.99-.06,15.83,1.57,15.54,4.25-.15,1.39-3.24,1.35-7.16,5.48,0,0-1.01,1.07-2.12,2.61-2.75,3.84-4.32,26.33-3.3,56.73,0,0,.12,1.38-.73,2.39-.71.83-1.61.94-2.01.99-2.12.25-3.61-1.71-3.82-1.98Z"/>
      <path class="cls-2" d="m172.78,502.82c-.92.42-1.93-.1-2.17-1.14-1.96-8.35-9.55-41.13-8.37-44.05,1.36-3.35,3.62-7.97,8.01-8.36s1.47,6.71,1.47,6.71c0,0,3.68,45.63,1.51,46.63l-.45.21Z"/>
    </g>
    <g>
      <path class="cls-1" d="m152.09,585.91c-1.38-1.35-7.34-44.46-5.74-51.01s2.44-10.98,6.72-12.1c1.01-.27,5.69-6.5,6.57-6.57,5.82-.48,15.27.45,14.84,3.11-.22,1.38-3.22,1.55-7.26,5.9,0,0-1.04,1.12-2.2,2.72-2.89,3.98-5.72,26.24-6.48,56.13,0,0,.04,1.35-.85,2.4-.73.87-1.61,1.04-2.01,1.11-2.07.39-3.41-1.43-3.59-1.69Z"/>
      <path class="cls-2" d="m156.67,579.74c-.92.48-4.21,2.07-4.38,1.07-1.42-8.09-5.1-44.09-3.78-47.05,1.51-3.39.21-7.9,4.49-8.6s1.69,8.51,1.69,8.51c0,0,3.23,34.15,1.06,35.29l.92,10.78Z"/>
    </g>
    <g>
      <path class="cls-1" d="m139.9,664.43c-1.38-1.35-7.34-44.46-5.74-51.01s2.44-10.98,6.72-12.1c1.01-.27,5.69-6.5,6.57-6.57,5.82-.48,15.27.45,14.84,3.11-.22,1.38-3.22,1.55-7.26,5.9,0,0-1.04,1.12-2.2,2.72-2.89,3.98-5.72,26.24-6.48,56.13,0,0,.04,1.35-.85,2.4-.73.87-1.61,1.04-2.01,1.11-2.07.39-3.41-1.43-3.59-1.69Z"/>
      <path class="cls-2" d="m142.89,653.65c-.92.48-1.87.03-2.04-.97-1.42-8.09-5.1-38.88-3.78-41.84,1.51-3.39,2.96-8.06,7.24-8.75s.26,5.48.26,5.48c.27.05,3.69,45.21-1.23,45.84l-.45.24Z"/>
    </g>
    <g>
      <path class="cls-1" d="m137.66,734.87c-1.38-1.35-7.34-44.46-5.74-51.01s2.44-10.98,6.72-12.1c1.01-.27,5.69-6.5,6.57-6.57,5.82-.48,15.27.45,14.84,3.11-.22,1.38-3.22,1.55-7.26,5.9,0,0-1.04,1.12-2.2,2.72-2.89,3.98-5.72,26.24-6.48,56.13,0,0,.04,1.35-.85,2.4-.73.87-1.61,1.04-2.01,1.11-2.07.39-3.41-1.43-3.59-1.69Z"/>
      <path class="cls-2" d="m141.7,726.51c-.92.48-1.87.03-2.04-.97-1.42-8.09-6.9-39.86-5.58-42.82,1.51-3.39,4.73-5.89,9.02-6.58s.28,4.29.28,4.29c0,0,.93,44.71-1.23,45.84l-.45.24Z"/>
    </g>
    <g>
      <path class="cls-1" d="m122.87,810.54c-1.33-1.42-5.48-44.76-3.61-51.22s2.9-10.84,7.22-11.75c1.02-.22,5.95-6.2,6.84-6.23,5.84-.18,15.24,1.22,14.7,3.85-.28,1.36-3.29,1.39-7.5,5.52,0,0-1.09,1.07-2.32,2.6-3.06,3.83-6.81,25.92-8.82,55.73,0,0-.02,1.35-.95,2.36-.77.83-1.66.96-2.05,1.01-2.09.29-3.35-1.6-3.52-1.87Z"/>
      <path class="cls-2" d="m127.24,803.59c-.93.43-1.87-.06-2-1.07-1.09-8.15-5.23-40.15-3.79-43.04,1.65-3.31,4.63-6.15,8.94-6.63,4.31-.48.45,4.81.45,4.81,0,0-.93,44.69-3.14,45.71l-.46.21Z"/>
    </g>
    <g>
      <path class="cls-1" d="m115.18,892.51c-1.46-1.4-8.89-47.36-6.03-53.84,3.04-6.87,2.58-11.66,7.1-12.95,1.07-.3,6-7,6.94-7.09,6.14-.63,16.11.15,15.66,2.97-.24,1.46-3.4,1.71-7.67,6.4,0,0-1.1,1.21-2.33,2.92-3.06,4.27-6.05,27.89-6.87,59.53,0,0,.04,1.43-.9,2.56-.77.93-1.7,1.14-2.12,1.22-2.19.46-3.6-1.44-3.79-1.71Z"/>
      <path class="cls-2" d="m119.45,883.58c-.97.53-1.97.08-2.15-.98-1.5-8.53-7.74-38.12-6.35-41.28,1.6-3.62,3.29-9.7,7.81-10.53,4.52-.83,2.49,4,2.49,4,0,0,.96,47.28-1.32,48.53l-.48.26Z"/>
    </g>
    <g>
      <path class="cls-1" d="m103.51,972.84c-1.46-1.4-7.72-46.88-6.03-53.84s2.58-11.66,7.1-12.95c1.07-.3,6-7,6.94-7.09,6.14-.63,16.11.15,15.66,2.97-.24,1.46-3.4,1.71-7.67,6.4,0,0-1.1,1.21-2.33,2.92-3.06,4.27-6.05,27.89-6.87,59.53,0,0,.04,1.43-.9,2.56-.77.93-1.7,1.14-2.12,1.22-2.19.46-3.6-1.44-3.79-1.71Z"/>
      <path class="cls-2" d="m107.78,963.91c-.97.53-4.08.15-4.27-.91-1.5-8.53-5.14-42.1-3.75-45.26,1.6-3.62.23-8.37,4.75-9.19,4.52-.83,5.07,6.57,5.07,6.57,0,0,.96,47.28-1.32,48.53l-.48.26Z"/>
    </g>
    <g>
      <path class="cls-1" d="m90.3,1046.55c-1.46-1.4-7.72-46.88-6.03-53.84s2.58-11.66,7.1-12.95c1.07-.3,6-7,6.94-7.09,6.14-.63,16.11.15,15.66,2.97-.24,1.46-3.4,1.71-7.67,6.4,0,0-1.1,1.21-2.33,2.92-3.06,4.27-6.05,27.89-6.87,59.53,0,0,.04,1.43-.9,2.56-.77.93-1.7,1.14-2.12,1.22-2.19.46-3.6-1.44-3.79-1.71Z"/>
      <path class="cls-2" d="m94.57,1037.61c-.97.53-1.97.08-2.15-.98-1.5-8.53-7.25-42.02-5.86-45.18,1.6-3.62,2.84-8.19,7.36-9.01,4.52-.83,4.33,2.52,4.33,2.52,0,0-.91,51.15-3.19,52.4l-.48.26Z"/>
    </g>
    <g>
      <path class="cls-1" d="m67.33,1128.28c-1.37-1.51-4.68-47.33-2.55-54.14,2.13-6.82,3.33-11.43,7.92-12.36,1.08-.22,6.44-6.51,7.38-6.54,6.17-.15,16.08,1.39,15.44,4.17-.33,1.44-3.51,1.45-8.07,5.78,0,0-1.18,1.12-2.51,2.73-3.33,4.02-7.83,27.33-10.69,58.81,0,0-.05,1.43-1.06,2.48-.83.87-1.77,1-2.19,1.06-2.21.29-3.5-1.71-3.67-2Z"/>
      <path class="cls-2" d="m72.16,1119.71c-1,.45-1.97-.08-2.09-1.14-.95-8.62-4.53-42.45-2.94-45.49,1.83-3.49.77-8.32,5.33-8.8,4.56-.47,4.63,6.94,4.63,6.94,0,0-2.09,47.2-4.45,48.27l-.49.22Z"/>
    </g>
    <g>
      <path class="cls-1" d="m63.07,1208.42c-1.61-1.14-8.2-51.5-6.78-59.77,1.42-8.26-.21-12.37,4.48-15.1,1.11-.65,5.97-9.54,6.95-9.92,6.44-2.47,16.99-4.47,16.65-1.19-.18,1.7-3.5,2.89-7.75,9.35,0,0-1.1,1.67-2.3,3.93-3,5.65-4.94,32.87-4.18,68.43,0,0,.12,1.58-.81,3.12-.77,1.26-1.74,1.76-2.17,1.97-2.28,1.14-3.86-.57-4.08-.82Z"/>
      <path class="cls-2" d="m67.11,1197.22c-.99.87-2.07.65-2.32-.47-2.02-9.09-7.09-43.49-5.78-47.42,1.5-4.5.35-7.79,5.07-10.01s5.38,4.94,5.38,4.94c0,0,.48,50.49-1.86,52.54l-.49.43Z"/>
    </g>
    <g>
      <path class="cls-1" d="m49.69,1292.88c-1.61-1.14-10.54-50.11-9.12-58.37,1.42-8.26,2.13-13.77,6.81-16.5,1.11-.65,5.97-9.54,6.95-9.92,6.44-2.47,16.99-4.47,16.65-1.19-.18,1.7-3.5,2.89-7.75,9.35,0,0-1.1,1.67-2.3,3.93-3,5.65-4.94,32.87-4.18,68.43,0,0,.12,1.58-.81,3.12-.77,1.26-1.74,1.76-2.17,1.97-2.28,1.14-3.86-.57-4.08-.82Z"/>
      <path class="cls-2" d="m53.18,1282.26c-.99.87-2.07.65-2.32-.47-2.02-9.09-9.8-44.82-8.5-48.75,1.5-4.5,3.09-7.65,7.81-9.87,4.38-2.06,3.41,3.16,3.72,4.17.02.08.04.16.04.24.11,2.79,2.02,52.26-.26,54.25l-.49.43Z"/>
    </g>
    <g>
      <path class="cls-1" d="m232.38,152.32c-1.07-1.23-5.98-34.83-4.82-39.58s1.78-7.98,5.05-8.22c.77-.06,4.3-4.11,4.98-4.04,4.45.48,11.7,2.56,11.39,4.51-.16,1.01-2.46.71-5.51,3.42,0,0-.79.7-1.67,1.74-2.18,2.6-4.16,19.1-4.5,41.7,0,0,.04,1.03-.63,1.7-.55.55-1.23.56-1.53.56-1.58,0-2.62-1.58-2.76-1.8Z"/>
      <path class="cls-2" d="m235.4,146.56c-.7.23-1.43-.25-1.57-1.03-1.16-6.35-5.61-31.28-4.62-33.33,1.13-2.36.1-5.97,3.37-5.88s3.73,5.49,3.73,5.49c0,0,1.08,34.09-.56,34.64l-.34.11Z"/>
    </g>
    <g>
      <path class="cls-1" d="m246.88,89.83c-1.14-1.3-6.27-36.98-5.01-42.03s1.91-8.48,5.38-8.75c.82-.06,4.58-4.38,5.3-4.31,4.73.5,12.42,2.68,12.09,4.76-.17,1.08-2.61.76-5.87,3.66,0,0-.84.75-1.77,1.86-2.33,2.77-4.47,20.31-4.89,44.31,0,0,.04,1.1-.67,1.81-.59.59-1.3.59-1.62.6-1.68,0-2.78-1.67-2.93-1.91Z"/>
      <path class="cls-2" d="m250.11,83.7c-.74.25-1.52-.26-1.67-1.09-1.21-6.75-5.88-33.21-4.83-35.39,1.21-2.51.12-6.34,3.6-6.25s3.95,5.82,3.95,5.82c0,0,1.06,36.21-.69,36.8l-.37.12Z"/>
    </g>
  </g>
</svg>