<?xml version="1.0" encoding="UTF-8"?>
<svg id="_图层_2" data-name="图层 2" xmlns="http://www.w3.org/2000/svg" viewBox="0 0 796 324.26">
  <defs>
    <style>
      .cls-1, .cls-2 {
        stroke: #000;
        stroke-miterlimit: 10;
      }

      .cls-3, .cls-2 {
        fill: #423f42;
      }

      .cls-3, .cls-4, .cls-5 {
        stroke-width: 0px;
      }

      .cls-5 {
        fill: none;
      }
    </style>
  </defs>
  <g id="chain_b_01_up" data-name="chain b 01 up">
    <g>
      <g>
        <path class="cls-4" d="m86.48,140.2s64.83-43.25,79.22-41.93c14.39,1.33,160.58,33.06,160.58,33.06l-36.53,30.08-203.27-21.22Z"/>
        <path class="cls-3" d="m146.06,127.32l30.41-13.28s87.56,13.97,93.33,19.6,2.54,17.82,2.54,17.82l-2.89,7.84-116.63-12.17s-8.6-9.25-7.68-14.53l.91-5.28Z"/>
      </g>
      <g>
        <path class="cls-4" d="m333.09,138.12s61.79-46.46,77.44-47.32c15.65-.86,177.9,6.15,177.9,6.15l-33.8,31.11-221.54,10.06Z"/>
        <path class="cls-3" d="m394.64,118.66l30.23-15.74s96.28-.16,103.47,3.91,5.89,15.05,5.89,15.05l-1.7,7.18-127.11,5.77s-10.85-6.79-10.81-11.49l.04-4.69Z"/>
      </g>
      <g>
        <path class="cls-1" d="m207.69,159.66l-.42-5.42L326.7,3.36l5.86-.44,144.2,134.51.1,5.75-128.1,134.86-12.39.25-128.68-118.64Zm119.71,69.56l91.73-92.93-79-64.34-76.06,86.99,63.33,70.28Z"/>
        <path class="cls-2" d="m332.14,4.22l-119.43,150.87,128.68,118.64,134.95-135L332.14,4.22Zm-2.56,229.2l-68.55-76.07,77.9-92.12,85.41,69.56-94.75,98.63Z"/>
      </g>
      <g>
        <path class="cls-1" d="m427.11,178.38l8.94-18.34L577.19,1.17l7.79-.66,209.63,132.76.85,5.89-163.88,143.15-7.4.31-197.07-104.24Zm179,54.25l103.53-100.54-113.68-63.14-83.3,93.89,93.46,69.79Z"/>
        <path class="cls-2" d="m584.59,1.85l-141.14,158.87,186.89,117.04,163.88-143.15L584.59,1.85Zm24.95,235.01l-101.15-75.53,92.84-97.18,122.9,68.26-114.59,104.46Z"/>
      </g>
      <g>
        <polyline class="cls-5" points="95.81 268.21 160.4 139.52 67.34 89.32"/>
        <path class="cls-1" d="m101.78,266.6l63.26-130.18-100.61-54.27-23.16,55.84,3.52,3.41,22.55-52.09,93.06,50.19-64.59,128.69-47.27-36.35-1.38,3.06,41.05,34.56c4.38,3.69,11.06,2.27,13.56-2.88Z"/>
        <polygon class="cls-1" points="216.42 125.07 42.12 14.4 36.57 16.5 .6 98.54 7.95 105.67 42.05 15.96 216.35 126.63 120.87 314.03 48.98 231.7 25.98 256.7 100.58 323.71 122.53 318.86 218.01 131.46 216.42 125.07"/>
        <path class="cls-2" d="m64.43,82.15l100.61,54.27-63.26,130.18c-2.5,5.15-7.42,1.79-11.8-1.9l-40-32-16,20,86.89,61.34,95.48-187.4L42.05,15.96,7.95,105.67l33.32,32.32,23.16-55.84Z"/>
      </g>
      <g>
        <path class="cls-4" d="m79,150.76l-3.1,17.94,41.9,20.23,144.36,24.94s43.93-34.02,46.07-34.66,37.76-18.85,39.63-29.69-.06-17.26-8.59-20.77c-8.53-3.5-44.04-3.55-44.04-3.55l-36.51,29.21-169.43-19.84-10.31,16.19Z"/>
        <path class="cls-3" d="m106.33,155.48s-4.15,6.39,4.38,9.89,134.89,41.57,148.55,38.86c13.66-2.71,13.19-5.84,13.19-5.84,0,0,20.84-20.76,20.7-25.85s-21.4-3.7-21.4-3.7c0,0-97.5-18.87-119.86-18.68s-24.81-3.27-34.53.12-11.05,5.2-11.05,5.2Z"/>
      </g>
      <g>
        <path class="cls-4" d="m306.78,154.19l-.15,17.45,56.44,12.77,185.2,1.62s47.75-38.9,50.29-39.84,43.19-23.6,43.28-34.14-3.65-16.33-15.01-18.35c-11.36-2.02-55.66,3.35-55.66,3.35l-39.48,33.22-215.4,7.03-9.51,16.89Z"/>
        <path class="cls-3" d="m341.84,154.5s-3.85,6.68,7.51,8.7,176.83,18.81,193.3,14.16c16.48-4.65,15.24-7.54,15.24-7.54,0,0,21.69-22.83,20.47-27.63-1.22-4.81-27.45-.24-27.45-.24,0,0-125.5-3.02-153.34.58-27.84,3.59-31.61.68-43.03,5.38s-12.7,6.6-12.7,6.6Z"/>
      </g>
    </g>
  </g>
</svg>