<?xml version="1.0" encoding="UTF-8"?>
<svg id="_图层_2" data-name="图层 2" xmlns="http://www.w3.org/2000/svg" viewBox="0 0 1780.06 684.09">
  <defs>
    <style>
      .cls-1, .cls-2 {
        stroke: #000;
        stroke-miterlimit: 10;
      }

      .cls-3, .cls-2 {
        fill: #423f42;
      }

      .cls-3, .cls-4 {
        stroke-width: 0px;
      }
    </style>
  </defs>
  <g id="chain_b_05" data-name="chain b 05">
    <g>
      <g>
        <path class="cls-4" d="m442.16,223.3s-45.89,12.59-54.37,8.53c-8.48-4.05-91.81-56.68-91.81-56.68l26.75-10.67,119.43,58.82Z"/>
        <path class="cls-3" d="m404.17,218.03l-20.43,1.51s-50.69-28.36-53.3-33.18,1.24-11.74,1.24-11.74l2.97-4.27,68.53,33.75s3.75,7.72,2.38,10.82l-1.37,3.1Z"/>
      </g>
      <g>
        <path class="cls-4" d="m275.01,178.51s-49.55,10.48-58.97,5.89c-9.42-4.59-102.42-62.79-102.42-62.79l28.75-9.52,132.64,66.42Z"/>
        <path class="cls-3" d="m233.37,171.13l-22.23.48s-56.44-31.67-59.48-36.74c-3.04-5.07.88-11.94.88-11.94l3.06-4.21,76.1,38.11s4.4,8.09,3.03,11.2l-1.37,3.1Z"/>
      </g>
      <g>
        <path class="cls-4" d="m661.87,285.08s-45.89,12.59-54.37,8.53c-8.48-4.05-91.81-56.68-91.81-56.68l26.75-10.67,119.43,58.82Z"/>
        <path class="cls-3" d="m623.89,279.81l-20.43,1.51s-50.69-28.36-53.3-33.18c-2.61-4.82,1.24-11.74,1.24-11.74l2.97-4.27,68.53,33.75s3.75,7.72,2.38,10.82l-1.37,3.1Z"/>
      </g>
      <g>
        <path class="cls-4" d="m893.19,346.48s-55.76,24.68-65.85,20.55-108.85-62.19-108.85-62.19l32.61-18.93,142.1,60.57Z"/>
        <path class="cls-3" d="m847.56,345.52l-24.69,5.41s-60.2-30.34-63.19-36.48c-2.99-6.14,1.88-16.2,1.88-16.2l3.72-6.3,81.53,34.75s4.27,9.91,2.51,14.36l-1.76,4.45Z"/>
      </g>
      <g>
        <path class="cls-4" d="m1162.83,430.38s-68.02,17.11-79.09,12.55c-11.07-4.55-112.36-58.95-112.36-58.95l35.59-20.26,155.86,66.66Z"/>
        <path class="cls-3" d="m1112.88,429.01l-49.72-2.08s-43.33-25.55-46.64-32.23c-3.3-6.68,1.97-17.53,1.97-17.53l4.03-6.8,89.43,38.25s4.73,10.76,2.83,15.58l-1.9,4.81Z"/>
      </g>
      <g>
        <path class="cls-4" d="m1429.85,521.89s-68.14,11.85-79.22,7.5c-11.08-4.34-119.86-61.33-119.86-61.33l37.64-25.92,161.43,79.75Z"/>
        <path class="cls-3" d="m1372.02,503.73l-40.86-7.13s-52.84-17.18-55.83-24.56c-2.99-7.37,3.05-20.19,3.05-20.19l4.53-8.08,89.36,36.74s4.21,11.93,1.98,17.58l-2.23,5.65Z"/>
      </g>
      <g>
        <path class="cls-4" d="m1643.39,579.29s-68.14,11.85-79.22,7.5c-11.08-4.34-119.86-61.33-119.86-61.33l37.64-25.92,161.43,79.75Z"/>
        <path class="cls-3" d="m1585.55,561.13l-40.86-7.13s-52.84-17.18-55.83-24.56c-2.99-7.37,3.05-20.19,3.05-20.19l4.53-8.08,89.36,36.74s4.21,11.93,1.98,17.58l-2.23,5.65Z"/>
      </g>
      <g>
        <path class="cls-1" d="m380.83,183.54l-.7,3.97-107.43,78.41-4.01-1.12-72.34-131.3.98-4.13,110.34-64.86,8.36,2.85,64.8,116.17Zm-67.68-78.95l-78.36,43.85,41.32,65.25,66.77-43.45-29.74-65.66Z"/>
        <path class="cls-3" d="m269.21,263.98l107.43-78.41-64.8-116.17-114.97,63.28,72.34,131.3Zm43.25-162.92l32.19,71.06-68.93,46.66-44.67-70.55,81.42-47.18Z"/>
      </g>
      <g>
        <path class="cls-1" d="m197.43,118.9l-9.55,9.47-114.66,65.95-4.09-1.55L.54,54.65l1.2-3.99L123.47.54l3.8,1.68,70.16,116.68ZM122.56,38.8l-79.69,38.14,39.64,69.24,67.71-39.01-27.66-68.37Z"/>
        <path class="cls-2" d="m69.7,192.01l114.66-65.95L122.84,3.77,1.11,53.89l68.6,138.12ZM122,35.23l29.94,74-73.4,38.69-42.86-74.85,86.32-37.84Z"/>
      </g>
      <g>
        <path class="cls-1" d="m586.72,246.79l-11.66,4.91-105.51,67.82-4.01-1.12-72.34-131.3.98-4.13,114.97-63.28,14.82,6.3,62.75,120.8Zm-76.72-88.6l-78.36,43.85,41.32,65.25,66.77-43.45-29.74-65.66Z"/>
        <path class="cls-2" d="m466.06,317.58l107.43-78.41-64.8-116.17-114.97,63.28,72.34,131.3Zm49.71-155.11l25.72,63.25-68.93,46.66-44.67-70.55,75.34-43.66c4.62-2.68,10.54-.65,12.55,4.29Z"/>
      </g>
      <g>
        <path class="cls-1" d="m780.92,304.71l-.7,4.13-112.8,80.57-4.25-1.21-77.45-137.6,1-4.29,120.88-64.72,3.95,1.37,69.37,121.75Zm-72.11-83l-82.38,44.87,44.17,68.44,70.15-44.57-31.94-68.74Z"/>
        <path class="cls-2" d="m669.21,383.39l107.29-76.6-69.37-121.75-120.88,64.72,74.04,131.64c1.79,3.18,5.95,4.11,8.92,1.99Zm38.83-165.36l34.57,74.4-72.41,47.89-47.75-73.99,85.58-48.3Z"/>
      </g>
      <g>
        <path class="cls-1" d="m1044.84,385.22l-3.74,5.79-119.22,76.87-4.64-1.44-88.97-144.23.92-4.34,125.81-69.02,13.88,6.25,75.97,130.11Zm-84.3-86.61l-87.58,41.87,50.36,72.01,74.35-42.15-37.13-71.73Z"/>
        <path class="cls-2" d="m918.37,464.29l119.22-76.87-82.76-132.83-125.44,65.47,88.97,144.23Zm41.79-170.79l40.19,77.64-76.67,45.44-54.45-77.85,90.93-45.22Z"/>
      </g>
      <g>
        <path class="cls-1" d="m1318.19,451.81l-6.28,4.31-129.87,78.51-5.16-1.67-101.41-156.36.92-4.6,134.88-62.72,16.18,4.1,90.73,138.42Zm-97.25-96.55l-95.73,42.11,57.19,78.24,81.12-42.79-42.58-77.56Z"/>
        <path class="cls-2" d="m1177.47,532.08l129.87-78.51-86.49-133.78-18.68-2.46-126.12,58.39,101.41,156.36Zm42.32-180.89l46.08,83.94-83.61,46.23-61.83-84.59,99.35-45.59Z"/>
      </g>
      <g>
        <path class="cls-1" d="m1547.69,522.66l-.66,4.29-121.03,79.75-4.67-1.43-88.2-146.74.97-4.45,130.27-62.88,4.35,1.58,78.96,129.87Zm-80.92-89.5l-88.76,43.65,50.03,73.21,75.42-43.81-36.69-73.04Z"/>
        <path class="cls-2" d="m1421.89,604.41l121.03-79.75-78.96-129.87-130.27,62.89,88.2,146.74Zm43.93-175.12l39.71,79.06-77.79,47.2-54.09-79.15,92.17-47.11Z"/>
      </g>
      <g>
        <path class="cls-1" d="m1779.54,599.5l-.66,4.29-121.03,79.75-4.67-1.43-88.2-146.74.97-4.45,130.27-62.88,4.35,1.58,78.96,129.87Zm-80.92-89.5l-88.76,43.65,50.03,73.21,75.42-43.81-36.69-73.04Z"/>
        <path class="cls-2" d="m1653.74,681.25l121.03-79.75-78.96-129.87-130.27,62.89,88.2,146.74Zm43.93-175.12l39.71,79.06-77.79,47.2-54.09-79.15,92.17-47.11Z"/>
      </g>
      <g>
        <path class="cls-4" d="m465.53,221.41l5.33-12.04-24.44-24.69-92.3-53.15s-35.63,13.51-37.18,13.45-28.74,4.2-31.96,11.48c-3.22,7.28-3.09,12.33,2,16.92,5.08,4.59,28.89,13.32,28.89,13.32l29.78-11.9,110.03,55.64,9.85-9.02Z"/>
        <path class="cls-3" d="m448.06,211.35s3.94-3.54-1.15-8.13-82.93-62.7-92.59-64.1c-9.65-1.41-9.9.94-9.9.94,0,0-17.74,9.71-18.57,13.38s13.68,7.88,13.68,7.88c0,0,61.97,37.34,77,42.68,15.03,5.34,16.04,8.41,23.18,8.37s8.35-1,8.35-1Z"/>
      </g>
      <g>
        <path class="cls-4" d="m284.04,170.62l5.11-11.55-27.28-25.9-101.11-58.22s-37.39,11.1-39.05,10.94-30.48,2.35-33.57,9.32-2.7,11.97,2.95,16.82c5.65,4.85,31.49,14.95,31.49,14.95l31.22-9.88,120.16,61.79,10.08-8.29Z"/>
        <path class="cls-3" d="m264.9,159.6s4.04-3.25-1.61-8.09-91.57-67.05-101.94-69.05c-10.38-1.99-10.53.31-10.53.31,0,0-18.47,8.47-19.18,12.04-.71,3.57,14.98,8.63,14.98,8.63,0,0,67.96,40.73,84.27,46.93,16.31,6.21,17.53,9.3,25.15,9.71,7.61.41,8.87-.47,8.87-.47Z"/>
      </g>
      <g>
        <path class="cls-4" d="m677.37,278.65l5.33-12.04-24.44-24.69-92.3-53.15s-35.63,13.51-37.18,13.45c-1.55-.06-28.74,4.2-31.96,11.48-3.22,7.28-3.09,12.33,2,16.92,5.08,4.59,28.89,13.32,28.89,13.32l29.78-11.9,110.03,55.64,9.85-9.02Z"/>
        <path class="cls-3" d="m659.89,268.59s3.94-3.54-1.15-8.13c-5.08-4.59-82.93-62.7-92.59-64.1-9.65-1.41-9.9.94-9.9.94,0,0-17.74,9.71-18.57,13.38-.83,3.67,13.68,7.88,13.68,7.88,0,0,61.97,37.34,77,42.68,15.03,5.34,16.04,8.41,23.18,8.37,7.13-.04,8.35-1,8.35-1Z"/>
      </g>
      <g>
        <path class="cls-4" d="m917.28,352.83l6.35-14.34-28.97-29.33-109.47-63.04s-42.31,16.16-44.16,16.09c-1.84-.07-34.12,5.06-37.96,13.73-3.83,8.66.61,24.2,6.64,29.65,6.03,5.45,12.33-2.86,12.33-2.86l53.01-5.11,130.52,65.97,11.7-10.76Z"/>
        <path class="cls-3" d="m896.56,340.89s4.68-4.22-1.35-9.67c-6.03-5.45-98.34-74.42-109.8-76.08-11.46-1.66-11.76,1.14-11.76,1.14,0,0-21.07,11.59-22.07,15.96-1,4.37,16.22,9.34,16.22,9.34,0,0,73.5,44.3,91.33,50.61,17.83,6.32,19.03,9.97,27.5,9.9,8.47-.07,9.91-1.21,9.91-1.21Z"/>
      </g>
      <g>
        <path class="cls-4" d="m1179.17,427.38l7.06-15.94-29.42-31.01-112.61-64.85s-44.72,19.32-46.64,19.31-35.83,6.85-40.09,16.49c-4.26,9.64-4.28,16.22,1.86,21.95,6.14,5.74,12.13,10.75,12.13,10.75l60.64-11.72,134.53,67.25,12.55-12.23Z"/>
        <path class="cls-3" d="m1157.85,415.11s5.02-4.8-1.12-10.54-100.64-77.74-112.57-79.11c-11.93-1.37-12.33,1.7-12.33,1.7,0,0-26.45,24.5-27.62,29.32-1.17,4.82,19.26,1.13,19.26,1.13,0,0,77.05,43.18,95.51,49.41,18.46,6.23,19.6,10.19,28.46,9.79,8.86-.4,10.4-1.71,10.4-1.71Z"/>
      </g>
      <g>
        <path class="cls-4" d="m1445.05,510.77l7.06-15.94-29.42-31.01-112.61-64.85s-40.74,4.24-54.96,14c-3.71,2.54-36.72.8-40.98,10.43-4.26,9.64-18.19,19.7-12.05,25.43,6.14,5.74,16.76,12.14,16.76,12.14l79.12-5.23,134.53,67.25,12.55-12.23Z"/>
        <path class="cls-3" d="m1423.74,498.49s5.02-4.8-1.12-10.54c-6.14-5.74-100.64-77.74-112.57-79.11-11.93-1.37-12.33,1.7-12.33,1.7,0,0-22.37,13.5-23.54,18.32-1.17,4.82,16.69,9.61,16.69,9.61,0,0,75.54,45.7,94.01,51.93,18.46,6.23,19.6,10.19,28.46,9.79,8.86-.4,10.4-1.71,10.4-1.71Z"/>
      </g>
      <g>
        <path class="cls-4" d="m1670.11,575.01l7.06-15.94-29.42-31.01-112.61-64.85s-40.74,4.24-54.96,14c-3.71,2.54-36.72.8-40.98,10.43-4.26,9.64-18.19,19.7-12.05,25.43,6.14,5.74,16.76,12.14,16.76,12.14l79.12-5.23,134.53,67.25,12.55-12.23Z"/>
        <path class="cls-3" d="m1648.79,562.73s5.02-4.8-1.12-10.54c-6.14-5.74-100.64-77.74-112.57-79.11-11.93-1.37-12.33,1.7-12.33,1.7,0,0-22.37,13.5-23.54,18.32-1.17,4.82,16.69,9.61,16.69,9.61,0,0,75.54,45.7,94.01,51.93,18.46,6.23,19.6,10.19,28.46,9.79,8.86-.4,10.4-1.71,10.4-1.71Z"/>
      </g>
    </g>
  </g>
</svg>