<?xml version="1.0" encoding="UTF-8"?>
<svg id="_图层_2" data-name="图层 2" xmlns="http://www.w3.org/2000/svg" viewBox="0 0 1059.71 490">
  <defs>
    <style>
      .cls-1 {
        fill: #423f42;
      }

      .cls-1, .cls-2 {
        stroke-width: 0px;
      }
    </style>
  </defs>
  <g id="chain_b_06" data-name="chain b 06">
    <g>
      <g>
        <path class="cls-2" d="m324.97,127.29l-72.37-5.97-2.99,18.51s-.09,6.6.82,7.76,73.33,2.73,73.33,2.73c0,0,6.4,1.53,3.81-10.75l-2.59-12.28Z"/>
        <path class="cls-1" d="m311.74,139.61l-47.66-3.21c-2.88-.19-5.16-3.2-5.04-6.65l9.29,1.63c.11-3.36,2.82-7.67,4.01-3.74l38.01,3.35c4.2-3.48,6.33-.99,6.57,2.12h0c.29,3.67-2.13,6.7-5.19,6.49Z"/>
      </g>
      <g>
        <path class="cls-2" d="m429.9,166.09l-72.37-5.97-2.99,18.51s-.09,6.6.82,7.76c.9,1.16,73.33,2.73,73.33,2.73,0,0,6.4,1.53,3.81-10.75l-2.59-12.28Z"/>
        <polygon class="cls-1" points="422.21 180.97 363.57 177.03 364.88 159.92 421.24 168.66 422.21 180.97"/>
      </g>
      <g>
        <path class="cls-2" d="m533.81,205.82l-72.37-5.97-2.99,18.51s-.09,6.6.82,7.76,73.33,2.73,73.33,2.73c0,0,6.4,1.53,3.81-10.75l-2.59-12.28Z"/>
        <polygon class="cls-1" points="526.31 218.53 467.68 214.58 468.11 201.49 526.14 210.48 526.31 218.53"/>
      </g>
      <g>
        <path class="cls-2" d="m635.53,251.14l-70.35-9.37-2.99,18.51s-.09,6.6.82,7.76,73.33,2.73,73.33,2.73c0,0,6.4,1.53,3.81-10.75s-4.61-8.88-4.61-8.88Z"/>
        <polygon class="cls-1" points="639.8 265.41 581.16 261.47 581.6 248.38 638.83 253.1 639.8 265.41"/>
      </g>
      <g>
        <path class="cls-2" d="m734.8,291.19l-61.41-5.64-2.99,18.51s-.09,6.6.82,7.76,73.33,2.73,73.33,2.73c0,0-3.41-.49-6-12.77s-3.73-10.59-3.73-10.59Z"/>
        <polygon class="cls-1" points="738.25 304.22 679.61 300.28 680.05 287.19 730.78 294.94 738.25 304.22"/>
      </g>
      <g>
        <path class="cls-2" d="m852.12,336.52l-55.12-3.47-2.99,18.51s-.09,6.6.82,7.76c.9,1.16,73.33,2.73,73.33,2.73,0,0,6.4,1.53,3.81-10.75-2.59-12.28-19.83-14.78-19.83-14.78Z"/>
        <polygon class="cls-1" points="861.86 351.72 803.22 347.77 803.66 334.68 852.57 342.12 861.86 351.72"/>
      </g>
      <g>
        <path class="cls-2" d="m993.34,382.15l-72.13-9.59-3.23,22.13s-.09,6.6.82,7.76,73.33,2.73,73.33,2.73c0,0,6.4,1.53,3.81-10.75l-2.59-12.28Z"/>
        <polygon class="cls-1" points="975.53 396.43 916.89 392.48 917.33 379.39 974.56 384.11 975.53 396.43"/>
      </g>
      <g>
        <path class="cls-2" d="m227.53,87.55l-72.37-5.97-2.99,18.51s-.09,6.6.82,7.76,73.33,2.73,73.33,2.73c0,0,6.4,1.53,3.81-10.75l-2.59-12.28Z"/>
        <polygon class="cls-1" points="220.03 100.25 161.39 96.3 161.83 83.21 219.05 87.93 220.03 100.25"/>
      </g>
      <g>
        <path class="cls-2" d="m227.53,87.55l-72.37-5.97-2.99,18.51s-.09,6.6.82,7.76,73.33,2.73,73.33,2.73c0,0,6.4,1.53,3.81-10.75l-2.59-12.28Z"/>
        <polygon class="cls-1" points="220.03 100.25 161.39 96.3 161.83 83.21 210.74 90.65 220.03 100.25"/>
      </g>
      <g>
        <path class="cls-2" d="m139.83,52.77l-72.37-5.97-2.99,18.51s-.09,6.6.82,7.76,73.33,2.73,73.33,2.73c0,0,6.4,1.53,3.81-10.75l-2.59-12.28Z"/>
        <polygon class="cls-1" points="130.33 67.35 71.69 63.4 72.13 50.31 129.35 55.03 130.33 67.35"/>
      </g>
      <g>
        <path class="cls-2" d="m341.75,105.12l40.82,67.81c1.6,2.81,1.22,5.52-.93,7.53l-47.06,44.89-3.75-.78-42.27-73.06c-1.01-1.75-1.57-1.58-1.27-3.63.3-2.05,1.42-6.06,2.86-7.18,0,0,49.97-38.06,51.61-35.57Z"/>
        <path class="cls-1" d="m372.99,162.4l-30.6-53.85c-1.18-2.07-.96-2.87-2.64-1.55l-49.04,38.69c-1.78,1.38-1.71,1.31-.45,3.48l42.27,73.06,47-43.83c1.11-1.04-5.72-14.55-6.54-16Z"/>
        <path class="cls-2" d="m338.63,202.47l-29.96-50.43s26.14-30.41,28.79-28.85,29.57,52.81,29.57,52.81l-28.39,26.47Z"/>
      </g>
      <g>
        <path class="cls-2" d="m445.22,139.25l42.24,71.46c1.51,2.79.96,5.58-1.41,7.73l-51.98,47.94-3.89-.63-40.17-72.65c-.96-1.74-1.56-1.54-1.12-3.65.43-2.11,1.84-6.25,3.41-7.46,0,0,51.35-45.22,52.93-42.75Z"/>
        <path class="cls-1" d="m484.74,211.91l-38.88-69.24c-1.12-2.06-1.99.15-3.83,1.56l-49.43,42.83c-1.94,1.49-1.87,1.42-.67,3.58l40.17,72.65,51.86-46.86c1.23-1.11,1.57-3.08.79-4.52Z"/>
        <path class="cls-2" d="m439.63,242.85l-28.55-50.1s29.19-32.22,31.88-30.75c2.69,1.47,28,52.55,28,52.55l-31.32,28.3Z"/>
      </g>
      <g>
        <path class="cls-2" d="m553.6,184.75l35.03,72.17c1.36,2.98.75,5.62-1.57,7.35l-50.81,38.72-3.68-1.23-36.04-77.55c-.86-1.86-1.44-1.76-.96-3.75.47-1.99,1.93-5.83,3.46-6.76,0,0,53.14-31.6,54.56-28.93Z"/>
        <path class="cls-1" d="m586.02,257.66l-32.07-69.44c-1-2.19-.71-2.96-2.51-1.86l-52.26,32.34c-1.89,1.15-1.82,1.09-.75,3.4l36.04,77.55,50.66-37.67c1.2-.89,1.58-2.77.88-4.31Z"/>
        <path class="cls-2" d="m542.24,280.82l-25.66-53.62s28.69-26.93,31.2-25.06,25.06,55.93,25.06,55.93l-30.6,22.76Z"/>
      </g>
      <g>
        <path class="cls-2" d="m660.62,227.74l44.59,78.11c1.89,3.23,1.75,6.11-.27,8l-44.16,42.35-3.91-1.33-49.98-84.24c-1.2-2.02-1.75-1.91-1.63-4.08.12-2.17.91-6.35,2.28-7.38,0,0,51.19-34.34,53.1-31.44Z"/>
        <path class="cls-1" d="m702.71,306.67l-40.64-74.26c-1.39-2.38-5.16-4.39-6.77-3.19l-46.75,35.42c-1.7,1.26-1.63,1.2-.15,3.7l49.98,84.24,44.2-41.22c1.04-.97,1.1-3.02.12-4.69Z"/>
        <path class="cls-2" d="m662.85,332.06l-35.31-58.24s24.04-29.43,26.89-27.41,35.11,60.76,35.11,60.76l-26.7,24.9Z"/>
      </g>
      <g>
        <path class="cls-2" d="m778.49,266.52l44.54,77.36c1.45,3.06.79,5.87-1.7,7.82l-54.6,43.66-3.95-1.09-43.96-78.14c-.92-1.91-1.15-1.3-.64-3.43.51-2.13,7.12-8.15,8.77-9.22,0,0,50.01-39.69,51.53-36.97Z"/>
        <path class="cls-1" d="m820.22,344.81l-38.82-68.95c-1.07-2.25-3.99-7.79-5.92-6.53l-48.38,39.43c-2.03,1.32-1.95,1.26-.81,3.62l38.54,79.57,54.44-42.56c1.29-1.01,1.7-3.01.95-4.58Z"/>
        <path class="cls-2" d="m773.2,371.69l-27.44-54.97s30.84-29.99,33.53-28.17c2.69,1.82,26.8,57.44,26.8,57.44l-32.88,25.7Z"/>
      </g>
      <g>
        <path class="cls-2" d="m892.1,320.98l44.78,73.81c1.76,3.05,1.47,5.9-.69,7.91l-47.02,44.95-3.91-1.03-46.48-79.44c-1.11-1.91-1.68-1.75-1.45-3.9.23-2.15,1.24-6.33,2.69-7.44,0,0,50.29-37.58,52.07-34.86Z"/>
        <path class="cls-1" d="m934.3,395.78l-41.41-71.15c-1.29-2.25-1.1-3.08-2.79-1.78l-49.3,38.3c-1.79,1.37-1.72,1.3-.34,3.66l46.48,79.44,47-43.83c1.11-1.04,1.27-3.06.36-4.63Z"/>
        <path class="cls-2" d="m892.41,423.53l-32.89-54.87s25.92-30.75,28.71-28.97c2.79,1.78,32.57,57.37,32.57,57.37l-28.39,26.47Z"/>
      </g>
      <g>
        <path class="cls-2" d="m1009.96,350.77c1.28-1.15,3.15-.69,4.06.97l44.43,80.61c1.92,3.34,1.61,6.45-.73,8.64l-51.27,49.01-4.27-1.13-50.9-86.97c-1.22-2.09-1.84-1.92-1.59-4.27.25-2.35,1.35-6.92,2.92-8.12.73,1.16,46.85-29.28,57.35-38.74Z"/>
        <path class="cls-1" d="m1055.64,433.42l-41.69-75c-1.42-2.46,1.62-.45-4.47-1.86l-56.02,38.76c-1.95,1.49-1.87,1.42-.36,4l50.9,86.97,51.25-47.8c1.21-1.13,1.38-3.34.39-5.06Z"/>
        <path class="cls-2" d="m1010.05,463.82l-36.02-60.07s28.25-33.55,31.3-31.59c3.05,1.96,35.68,62.8,35.68,62.8l-30.96,28.87Z"/>
      </g>
      <g>
        <path class="cls-2" d="m242.14,67.58l36.7,71.02c1.43,2.93.88,5.6-1.39,7.4l-49.81,40.49-3.7-1.11-37.83-76.37c-.91-1.83-1.47-1.71-1.05-3.72.43-2.01,1.79-5.9,3.3-6.89,0,0,52.3-33.45,53.79-30.83Z"/>
        <path class="cls-1" d="m276.24,139.43l-33.68-68.39c-1.05-2.16-.78-2.94-2.55-1.78l-51.41,34.16c-1.86,1.22-1.79,1.16-.66,3.42l37.83,76.37,49.69-39.45c1.17-.93,1.51-2.83.78-4.34Z"/>
        <path class="cls-2" d="m226.1,160.72l-17.9-45.43c-1.16-2.28-.8-5.17.86-6.8,7.22-7.06,25.63-24.74,27.67-23.32s18.75,38.18,24.45,50.85c1.09,2.43.51,5.37-1.33,6.83l-22.96,18.23c-2.07,1.64-9.45,2.27-10.79-.37Z"/>
      </g>
      <g>
        <path class="cls-2" d="m151.36,28.55l32.46,63.19c1.26,2.61.69,5.04-1.45,6.75l-47.06,38.21-3.41-.89-33.39-68.01c-.8-1.63-1.33-1.5-.89-3.34.44-1.84,1.79-5.4,3.21-6.34,0,0,49.22-31.91,50.54-29.58Z"/>
        <path class="cls-1" d="m181.39,92.57l-29.71-60.9c-.93-1.92-.66-2.63-2.32-1.53l-48.41,32.52c-1.75,1.16-1.68,1.1-.69,3.12l33.39,68.01,46.93-37.26c1.11-.88,1.47-2.61.82-3.96Z"/>
        <path class="cls-2" d="m140.84,116.26l-23.77-46.98s26.58-26.16,28.9-24.63,23.22,49.1,23.22,49.1l-28.35,22.5Z"/>
      </g>
      <g>
        <path class="cls-2" d="m51.07.09l40.18,61.55c1.57,2.56,1.27,5.16-.74,7.2l-43.92,45.76-3.58-.49L1.34,47.69c-1-1.59-1.53-1.39-1.28-3.36.25-1.96,1.23-5.84,2.58-7C2.64,37.33,49.46-2.16,51.07.09Z"/>
        <path class="cls-1" d="m88.86,62.82L51.74,3.3c-1.16-1.88-.97-2.65-2.55-1.3L3.27,42.03c-1.66,1.43-1.6,1.36-.36,3.33l41.67,66.44,43.89-44.76c1.04-1.06,1.21-2.9.4-4.22Z"/>
        <path class="cls-2" d="m50,92.64l-29.51-45.8s24.29-30.61,26.84-29.32,29.18,48.08,29.18,48.08l-26.51,27.03Z"/>
      </g>
      <g>
        <path class="cls-2" d="m323.75,165.11c-2.01,1.87-53.98,4.12-61.09.71s-11.98-5.38-11.94-11.98c.01-1.56-5.75-9.56-5.55-10.9,1.29-8.82,5.36-22.88,8.31-21.82,1.53.55.78,5.09,4.55,11.83,0,0,.97,1.74,2.46,3.73,3.71,4.97,28.68,12.67,63.18,18.45,0,0,1.58.15,2.52,1.65.77,1.24.7,2.59.66,3.19-.2,3.17-2.74,4.9-3.1,5.13Z"/>
        <path class="cls-1" d="m315.32,157.74c.27,1.45-.55,2.81-1.77,2.92-9.86.88-48.5,4.17-51.52,1.73-3.46-2.8-8.47-9.18-7.92-15.72s8.21,1.39,8.21,1.39c0,0,52.24,5.54,52.88,8.96l.13.71Z"/>
      </g>
      <g>
        <path class="cls-2" d="m426.67,205.78c-2.01,1.87-53.98,4.12-61.09.71s-11.98-5.38-11.94-11.98c.01-1.56-5.75-9.56-5.55-10.9,1.29-8.82,5.36-22.88,8.31-21.82,1.53.55.78,5.09,4.55,11.83,0,0,.97,1.74,2.46,3.73,3.71,4.97,28.68,12.67,63.18,18.45,0,0,1.58.15,2.52,1.65.77,1.24.7,2.59.66,3.19-.2,3.17-2.74,4.9-3.1,5.13Z"/>
        <path class="cls-1" d="m417.23,199.34c.27,1.45-.55,2.81-1.77,2.92-9.86.88-48.5,4.17-51.52,1.73-3.46-2.8-9.12-1.55-8.57-8.09.55-6.54,8.3-10.76,8.3-10.76,0,0,44.77,6.48,45.4,9.91l8.15,4.29Z"/>
      </g>
      <g>
        <path class="cls-2" d="m543.79,248.1c-2.63,2.45-72.03,3.28-81.64-1.65-9.61-4.93-16.18-7.79-16.32-16.73-.03-2.11-7.98-13.19-7.75-14.99,1.46-11.89,6.48-30.76,10.45-29.2,2.06.81,1.2,6.92,6.44,16.22,0,0,6.41,5.1,3.4,5.16-11.23.26,29.72,14.72,85,27.69,0,0,2.12.27,3.42,2.34,1.07,1.71,1.01,3.53.98,4.35-.17,4.29-3.52,6.52-3.99,6.82Z"/>
        <path class="cls-1" d="m532.3,237.75c.4,1.98-1.82,6.27-3.44,6.36-13.15.78-63.55,1.1-67.66-2.34-4.71-3.94-12.23-2.48-11.69-11.32.54-8.84,17.91-3.39,17.91-3.39,0,0,63.73,5.05,64.69,9.71l.2.97Z"/>
      </g>
      <g>
        <path class="cls-2" d="m657.28,294.99c-2.63,2.45-72.03,3.28-81.64-1.65-9.61-4.93-16.18-7.79-16.32-16.73-.03-2.11-7.98-13.19-7.75-14.99,1.46-11.89,6.48-30.76,10.45-29.2,2.06.81,1.2,6.92,6.44,16.22,0,0,1.35,2.4,3.4,5.16,5.1,6.89,38.72,18.38,85,27.69,0,0,2.12.27,3.42,2.34,1.07,1.71,1.01,3.53.98,4.35-.17,4.29-3.52,6.52-3.99,6.82Z"/>
        <path class="cls-1" d="m645.78,284.64c.4,1.98-7.65,9.7-9.28,9.8-13.15.78-57.71-2.34-61.82-5.77-4.71-3.94-12.23-2.48-11.69-11.32s11.64-8.08,11.64-8.08c0,0,70,9.73,70.95,14.4l.2.97Z"/>
      </g>
      <g>
        <path class="cls-2" d="m770.42,334.02c-2.45,2.7-71.35,10.26-81.22,6.26-9.88-4-16.14-12.05-16.88-20.97-.17-2.11-9.26-6.59-9.16-8.42.65-12.03,4.37-31.39,8.43-30.21,2.1.61,1.66,6.81,7.49,15.59,0,0,1.51,2.27,3.72,4.83,5.53,6.39,39.71,14.62,86.31,19.44,0,0,2.13.06,3.56,2.01,1.18,1.6,1.24,3.43,1.26,4.25.12,4.31-3.06,6.86-3.5,7.21Z"/>
        <path class="cls-1" d="m758.31,324.79c.53,1.94-.4,3.85-2,4.1-13.01,2.05-64.05,9.86-68.36,6.82-4.95-3.48-11.73-9.07-11.79-17.96-.06-8.89,10.43-1.43,10.43-1.43,0,0,70.2,2.94,71.46,7.52l.26.95Z"/>
      </g>
      <g>
        <path class="cls-2" d="m882.74,385.08c-2.24,2.47-68.86,4.65-78.68-.03-9.82-4.68-16.47-7.38-17.67-16.21-.28-2.08-9.23-12.87-9.23-14.66,0-11.78,2.58-30.52,6.59-29.05,2.07.76,1.98,6.82,8.11,15.9,0,0,1.59,2.35,3.88,5.04,5.72,6.7,39.4,17.4,85,25.69,0,0,2.07.23,3.57,2.24,1.23,1.67,1.39,3.47,1.46,4.27.35,4.24-2.61,6.51-3.03,6.82Z"/>
        <path class="cls-1" d="m873.88,374.49c.62,1.94,2.64,8.91,1.09,9.03-12.55,1.02-68.02.25-72.38-3.06-5-3.8-12.05-2.21-12.58-10.96s13.22-1.46,13.22-1.46c0,0,52.6,1.25,54.07,5.85l16.59.6Z"/>
      </g>
      <g>
        <path class="cls-2" d="m1001.25,427.29c-2.24,2.47-68.86,4.65-78.68-.03-9.82-4.68-16.47-7.38-17.67-16.21-.28-2.08-9.23-12.87-9.23-14.66,0-11.78,2.58-30.52,6.59-29.05,2.07.76,1.98,6.82,8.11,15.9,0,0,1.59,2.35,3.88,5.04,5.72,6.7,39.4,17.4,85,25.69,0,0,2.07.23,3.57,2.24,1.23,1.67,1.39,3.47,1.46,4.27.35,4.24-2.61,6.51-3.03,6.82Z"/>
        <path class="cls-1" d="m985.14,418.86c.62,1.94-.18,3.75-1.73,3.88-12.55,1.02-60.06,1.43-64.42-1.88-5-3.8-11.95-7.75-12.48-16.49-.53-8.74,8.41.71,8.41.71.11-.53,69.57,2.82,69.92,12.83l.31.96Z"/>
      </g>
      <g>
        <path class="cls-2" d="m229.95,125.98c-2.01,1.87-53.98,4.12-61.09.71s-11.98-5.38-11.94-11.98c.01-1.56-5.75-9.56-5.55-10.9,1.29-8.82,5.36-22.88,8.31-21.82,1.53.55.78,5.09,4.55,11.83,0,0,.97,1.74,2.46,3.73,3.71,4.97,28.68,12.67,63.18,18.45,0,0,1.58.15,2.52,1.65.77,1.24.7,2.59.66,3.19-.2,3.17-2.74,4.9-3.1,5.13Z"/>
        <path class="cls-1" d="m221.52,118.61c.27,1.45-.55,2.81-1.77,2.92-9.86.88-48.5,4.17-51.52,1.73-3.46-2.8-9.12-1.55-8.57-8.09s8.85-6.24,8.85-6.24c0,0,52.24,5.54,52.88,8.96l.13.71Z"/>
      </g>
      <g>
        <path class="cls-2" d="m136.23,82.76c-2.13,1.98-57.3,4.2-64.86.55s-12.73-5.76-12.7-12.77c0-1.66-6.13-10.18-5.92-11.6,1.35-9.37,5.64-24.31,8.77-23.17,1.62.59.85,5.41,4.86,12.59,0,0,1.04,1.86,2.62,3.98,3.95,5.29,30.48,13.56,67.12,19.83,0,0,1.68.16,2.68,1.76.83,1.32.75,2.75.71,3.39-.2,3.37-2.9,5.2-3.28,5.45Z"/>
        <path class="cls-1" d="m127.25,74.9c.29,1.54-.58,2.99-1.87,3.1-10.46.91-51.49,4.28-54.7,1.67-3.68-2.99-9.68-1.67-9.11-8.63.57-6.95,9.38-6.61,9.38-6.61,0,0,55.48,6.06,56.16,9.71l.14.76Z"/>
      </g>
    </g>
  </g>
</svg>