<?xml version="1.0" encoding="UTF-8"?>
<svg id="_图层_2" data-name="图层 2" xmlns="http://www.w3.org/2000/svg" viewBox="0 0 170.03 95.72">
  <defs>
    <style>
      .cls-1 {
        fill: #fd2d5c;
      }

      .cls-1, .cls-2, .cls-3 {
        stroke-width: 0px;
      }

      .cls-3 {
        fill: #fff;
      }
    </style>
  </defs>
  <g id="_关闭" data-name="关闭">
    <g>
      <g>
        <circle class="cls-3" cx="33.5" cy="62.22" r="33.5"/>
        <circle class="cls-3" cx="33.5" cy="62.22" r="26.5"/>
        <circle class="cls-3" cx="33.5" cy="62.22" r="20.5"/>
        <circle class="cls-3" cx="33" cy="62.72" r="14"/>
      </g>
      <g>
        <path class="cls-3" d="m94,84.72l1-3,4-2,1.48,3.15,8.98-2.37c1.66-.44,3.12-.91,4.45-1.44h14.49l4.6-3.34,2,3h6c.31,0,3.7-2.99,4-3l2,3,7.54-.03c3.21-.4,6.08-1.49,8.51-3.24,2.9-2.08,4.97-5.05,5.99-8.61.66-2.31.98-5.1.98-8.54V.56s-21.25,0-21.25,0h-38.26v7.44l-2.11-8-20.9,5.51h0s-16.61,4.38-16.61,4.38l-.36.09h0l-20.58,5.43,20.01,75.9,14.58-3.84"/>
        <path class="cls-3" d="m89.97,50.94c-.65-1.24-1.28-2.38-1.87-3.41l-2.29,1.52c.84-1.71,1.58-3.42,2.21-5.14l-3.79-2.18c-.25,1.05-.57,2.09-.92,3.12l-1.67.54c.16-.34.32-.68.48-1.05.53-1.24.98-2.48,1.33-3.73l-2.12-.83,4.55-1.2-5.5-20.86-11.93,3.15-2.37.62-3.92,1.03,14.91,56.56,6.28-1.66-9.42-35.71,5.06-1.33c-.07.36-.14.71-.24,1.06-.22.81-.45,1.51-.67,2.09-.22.59-.38,1-.47,1.25-.14.35-.32.65-.54.9s-.45.46-.67.61c.42.6.88,1.37,1.39,2.31.51.95.9,1.69,1.17,2.23l.02.07c.18-.18.45-.38.81-.61.33-.21.87-.47,1.61-.79-.47.99-.81,1.68-1.03,2.09-.34.58-.66,1.06-.98,1.45-.32.39-.65.68-.99.86.39.6.82,1.37,1.31,2.3.49.92.84,1.62,1.06,2.09l.02.07c.15-.17.36-.36.63-.56.27-.2.71-.46,1.31-.77.6-.31,1.42-.73,2.47-1.25.71-.35,1.59-.78,2.61-1.26.2.42.37.82.53,1.19l-2.2.58,1.6,6.06s.02.08.03.12l-1.86.49-1.34-5.07-3.92,1.03,2.59,9.84,4.67-1.23c-.12.37-.26.74-.44,1.11-.53,1.02-1.47,2.04-2.82,3.06.6.42,1.31,1.03,2.14,1.85.83.82,1.46,1.54,1.89,2.18,1.73-1.43,2.91-2.92,3.52-4.47.61-1.55.87-3.16.77-4.84-.1-1.67-.37-3.35-.82-5.05l-1.65-6.25-.77.2,1.7-1.31c-.35-.83-.85-1.87-1.5-3.11Zm-14.23-25.7l.51,1.92-5.74,1.51-.51-1.92,5.74-1.51Zm-3.85,8.69l5.74-1.51.51,1.92-5.74,1.51-.51-1.92Zm14.25,17.13l-1.8.76c.35-.62.7-1.26,1.04-1.92.03-.05.05-.1.07-.15.23.43.45.86.68,1.31Z"/>
        <path class="cls-3" d="m94.91,13.9l-12.16,3.21,5.5,20.86,2.85-.75c-.07.4-.16.8-.27,1.2-.22.81-.45,1.51-.67,2.09-.22.59-.38,1-.47,1.25-.14.35-.32.65-.54.9-.22.26-.45.46-.67.61.42.6.88,1.37,1.39,2.31.51.95.9,1.69,1.18,2.24.18-.18.45-.38.81-.61.34-.21.91-.49,1.68-.82-.46.99-.8,1.69-1.01,2.09-.32.61-.65,1.12-.97,1.51-.32.39-.65.68-.99.86.39.6.82,1.37,1.31,2.3.3.58.55,1.06.75,1.46l-.46.12,4.85,18.38,4.46-1.18-1.96-7.43,1.87-.49.42,1.61,2.43-.64s.04.08.06.12c.53,1.01,1.02,2.01,1.48,3.02s.83,1.91,1.11,2.72c1.58-.42,2.91-.87,4-1.35,1.09-.49,1.96-1.21,2.62-2.18.68-.97,1-2.13.94-3.46s-.35-3.01-.89-5.03l-12.29-46.6-3.05.8-3.32.88Zm-2.43,14.61l5.88-1.55.51,1.92-5.88,1.55-.51-1.92Zm3.98-8.73l.51,1.92-5.88,1.55-.51-1.92,5.88-1.55Zm1.1,26.89c.24.41.48.82.73,1.26l-1.79.76c.34-.61.68-1.24,1.01-1.91.02-.04.03-.07.05-.11Zm9.67,14.62c-.06.19-.25.33-.55.41-.28.07-.76.19-1.42.35l-2.36-8.95-4.1,1.08,1.34,5.07-1.87.49-1.63-6.19-2.12.56c.11-.06.23-.13.36-.2.6-.31,1.42-.73,2.47-1.25.76-.37,1.69-.82,2.78-1.35.34.66.63,1.27.87,1.81l2.73-2.38c-.38-.83-.93-1.85-1.64-3.08-.71-1.22-1.4-2.35-2.06-3.36l-2.14,1.63c.84-1.76,1.59-3.55,2.23-5.35l-3.83-2.17c-.26,1.13-.58,2.23-.95,3.32l-1.63.53c.15-.31.29-.63.44-.97.53-1.24.98-2.48,1.33-3.73l-2.32-.91,7.23-1.91,6.76,25.62c.11.41.13.72.07.91Z"/>
        <path class="cls-3" d="m156.91,10.56h-3.62s-11.98,0-11.98,0v24.13s11.98,0,11.98,0v23.49c0,.55-.09.96-.28,1.22-.18.26-.49.38-.92.38h-1.56c-.73,0-1.55,0-2.46-.03-.72-.02-1.41-.06-2.09-.12v-12.14h5.37s0-7.42,0-7.42h-5.37v-4.48s-5.97,0-5.97,0v4.48h-11.01s0,7.42,0,7.42h7.92c-.42.63-.85,1.26-1.34,1.89-1.24,1.6-2.58,3.07-4.02,4.42-1.44,1.34-2.89,2.49-4.36,3.42.64.77,1.37,1.81,2.18,3.14.81,1.32,1.46,2.47,1.95,3.46,1.53-1.24,3.04-2.74,4.52-4.51,1.48-1.76,2.86-3.69,4.15-5.79v6.01c0,.6-.25.9-.73.9h-1.54c-.75,0-1.51-.02-2.27-.06.4,1.02.79,2.27,1.17,3.74.38,1.47.63,2.76.76,3.87,1.35,0,2.55-.08,3.6-.22s2.01-.52,2.87-1.12c.86-.64,1.42-1.5,1.7-2.59.21-.84.34-1.89.39-3.14.16.5.33,1.04.48,1.63.31,1.15.58,2.3.83,3.46.24,1.15.4,2.18.46,3.07,2.17,0,4.03-.1,5.58-.29,1.54-.19,2.85-.67,3.92-1.44,1.07-.77,1.8-1.85,2.2-3.23.4-1.39.6-3.32.6-5.79V10.56s-3.12,0-3.12,0Zm-3.62,6.59v2.18h-5.64v-2.18h5.64Zm-5.64,11.01v-2.69h5.64v2.69h-5.64Z"/>
        <path class="cls-3" d="m138.78,34.5V10.56s-11.66,0-11.66,0h-2.75s-3.85,0-3.85,0v58.5s6.61,0,6.61,0v-34.56s11.66,0,11.66,0Zm-11.66-6.53v-2.5h5.42v2.5h-5.42Zm5.42-10.82v2.18h-5.42v-2.18h5.42Z"/>
      </g>
    </g>
    <g>
      <g>
        <circle class="cls-3" cx="33.5" cy="62.22" r="33.5"/>
        <circle class="cls-2" cx="33.5" cy="62.22" r="26.5"/>
        <circle class="cls-1" cx="33.5" cy="62.22" r="20.5"/>
        <circle class="cls-2" cx="33" cy="62.72" r="14"/>
      </g>
      <g>
        <path class="cls-3" d="m94,84.72l1-3,4-2,1.48,3.15,8.98-2.37c1.66-.44,3.12-.91,4.45-1.44h14.49l4.6-3.34,2,3h6c.31,0,3.7-2.99,4-3l2,3,7.54-.03c3.21-.4,6.08-1.49,8.51-3.24,2.9-2.08,4.97-5.05,5.99-8.61.66-2.31.98-5.1.98-8.54V.56s-21.25,0-21.25,0h-38.26v7.44l-2.11-8-20.9,5.51h0s-16.61,4.38-16.61,4.38l-.36.09h0l-20.58,5.43,20.01,75.9,14.58-3.84"/>
        <path class="cls-2" d="m89.97,50.94c-.65-1.24-1.28-2.38-1.87-3.41l-2.29,1.52c.84-1.71,1.58-3.42,2.21-5.14l-3.79-2.18c-.25,1.05-.57,2.09-.92,3.12l-1.67.54c.16-.34.32-.68.48-1.05.53-1.24.98-2.48,1.33-3.73l-2.12-.83,4.55-1.2-5.5-20.86-11.93,3.15-2.37.62-3.92,1.03,14.91,56.56,6.28-1.66-9.42-35.71,5.06-1.33c-.07.36-.14.71-.24,1.06-.22.81-.45,1.51-.67,2.09-.22.59-.38,1-.47,1.25-.14.35-.32.65-.54.9s-.45.46-.67.61c.42.6.88,1.37,1.39,2.31.51.95.9,1.69,1.17,2.23l.02.07c.18-.18.45-.38.81-.61.33-.21.87-.47,1.61-.79-.47.99-.81,1.68-1.03,2.09-.34.58-.66,1.06-.98,1.45-.32.39-.65.68-.99.86.39.6.82,1.37,1.31,2.3.49.92.84,1.62,1.06,2.09l.02.07c.15-.17.36-.36.63-.56.27-.2.71-.46,1.31-.77.6-.31,1.42-.73,2.47-1.25.71-.35,1.59-.78,2.61-1.26.2.42.37.82.53,1.19l-2.2.58,1.6,6.06s.02.08.03.12l-1.86.49-1.34-5.07-3.92,1.03,2.59,9.84,4.67-1.23c-.12.37-.26.74-.44,1.11-.53,1.02-1.47,2.04-2.82,3.06.6.42,1.31,1.03,2.14,1.85.83.82,1.46,1.54,1.89,2.18,1.73-1.43,2.91-2.92,3.52-4.47.61-1.55.87-3.16.77-4.84-.1-1.67-.37-3.35-.82-5.05l-1.65-6.25-.77.2,1.7-1.31c-.35-.83-.85-1.87-1.5-3.11Zm-14.23-25.7l.51,1.92-5.74,1.51-.51-1.92,5.74-1.51Zm-3.85,8.69l5.74-1.51.51,1.92-5.74,1.51-.51-1.92Zm14.25,17.13l-1.8.76c.35-.62.7-1.26,1.04-1.92.03-.05.05-.1.07-.15.23.43.45.86.68,1.31Z"/>
        <path class="cls-2" d="m94.91,13.9l-12.16,3.21,5.5,20.86,2.85-.75c-.07.4-.16.8-.27,1.2-.22.81-.45,1.51-.67,2.09-.22.59-.38,1-.47,1.25-.14.35-.32.65-.54.9-.22.26-.45.46-.67.61.42.6.88,1.37,1.39,2.31.51.95.9,1.69,1.18,2.24.18-.18.45-.38.81-.61.34-.21.91-.49,1.68-.82-.46.99-.8,1.69-1.01,2.09-.32.61-.65,1.12-.97,1.51-.32.39-.65.68-.99.86.39.6.82,1.37,1.31,2.3.3.58.55,1.06.75,1.46l-.46.12,4.85,18.38,4.46-1.18-1.96-7.43,1.87-.49.42,1.61,2.43-.64s.04.08.06.12c.53,1.01,1.02,2.01,1.48,3.02s.83,1.91,1.11,2.72c1.58-.42,2.91-.87,4-1.35,1.09-.49,1.96-1.21,2.62-2.18.68-.97,1-2.13.94-3.46s-.35-3.01-.89-5.03l-12.29-46.6-3.05.8-3.32.88Zm-2.43,14.61l5.88-1.55.51,1.92-5.88,1.55-.51-1.92Zm3.98-8.73l.51,1.92-5.88,1.55-.51-1.92,5.88-1.55Zm1.1,26.89c.24.41.48.82.73,1.26l-1.79.76c.34-.61.68-1.24,1.01-1.91.02-.04.03-.07.05-.11Zm9.67,14.62c-.06.19-.25.33-.55.41-.28.07-.76.19-1.42.35l-2.36-8.95-4.1,1.08,1.34,5.07-1.87.49-1.63-6.19-2.12.56c.11-.06.23-.13.36-.2.6-.31,1.42-.73,2.47-1.25.76-.37,1.69-.82,2.78-1.35.34.66.63,1.27.87,1.81l2.73-2.38c-.38-.83-.93-1.85-1.64-3.08-.71-1.22-1.4-2.35-2.06-3.36l-2.14,1.63c.84-1.76,1.59-3.55,2.23-5.35l-3.83-2.17c-.26,1.13-.58,2.23-.95,3.32l-1.63.53c.15-.31.29-.63.44-.97.53-1.24.98-2.48,1.33-3.73l-2.32-.91,7.23-1.91,6.76,25.62c.11.41.13.72.07.91Z"/>
        <path class="cls-2" d="m156.91,10.56h-3.62s-11.98,0-11.98,0v24.13s11.98,0,11.98,0v23.49c0,.55-.09.96-.28,1.22-.18.26-.49.38-.92.38h-1.56c-.73,0-1.55,0-2.46-.03-.72-.02-1.41-.06-2.09-.12v-12.14h5.37s0-7.42,0-7.42h-5.37v-4.48s-5.97,0-5.97,0v4.48h-11.01s0,7.42,0,7.42h7.92c-.42.63-.85,1.26-1.34,1.89-1.24,1.6-2.58,3.07-4.02,4.42-1.44,1.34-2.89,2.49-4.36,3.42.64.77,1.37,1.81,2.18,3.14.81,1.32,1.46,2.47,1.95,3.46,1.53-1.24,3.04-2.74,4.52-4.51,1.48-1.76,2.86-3.69,4.15-5.79v6.01c0,.6-.25.9-.73.9h-1.54c-.75,0-1.51-.02-2.27-.06.4,1.02.79,2.27,1.17,3.74.38,1.47.63,2.76.76,3.87,1.35,0,2.55-.08,3.6-.22s2.01-.52,2.87-1.12c.86-.64,1.42-1.5,1.7-2.59.21-.84.34-1.89.39-3.14.16.5.33,1.04.48,1.63.31,1.15.58,2.3.83,3.46.24,1.15.4,2.18.46,3.07,2.17,0,4.03-.1,5.58-.29,1.54-.19,2.85-.67,3.92-1.44,1.07-.77,1.8-1.85,2.2-3.23.4-1.39.6-3.32.6-5.79V10.56s-3.12,0-3.12,0Zm-3.62,6.59v2.18h-5.64v-2.18h5.64Zm-5.64,11.01v-2.69h5.64v2.69h-5.64Z"/>
        <path class="cls-2" d="m138.78,34.5V10.56s-11.66,0-11.66,0h-2.75s-3.85,0-3.85,0v58.5s6.61,0,6.61,0v-34.56s11.66,0,11.66,0Zm-11.66-6.53v-2.5h5.42v2.5h-5.42Zm5.42-10.82v2.18h-5.42v-2.18h5.42Z"/>
      </g>
    </g>
  </g>
</svg>