<?xml version="1.0" encoding="UTF-8"?>
<svg id="_图层_2" data-name="图层 2" xmlns="http://www.w3.org/2000/svg" viewBox="0 0 444 291">
  <defs>
    <style>
      .cls-1 {
        font-family: NotoSansSC-Bold, 'Noto Sans SC';
        font-size: 38px;
        font-variation-settings: 'wght' 700;
        font-weight: 700;
      }

      .cls-1, .cls-2 {
        fill: #fff;
      }

      .cls-3, .cls-4, .cls-2 {
        stroke-width: 0px;
      }

      .cls-4 {
        fill: none;
      }
    </style>
  </defs>
  <g id="_borad_coop" data-name="【borad】coop">
    <polygon class="cls-2" points="0 229 56 291 444 118 427 0 0 229"/>
    <polygon class="cls-3" points="29 239 52 279 432 106 419 18 29 239"/>
    <g>
      <polygon class="cls-4" points="142.52 137.9 150.02 133.91 149.96 133.59 142.47 137.58 142.52 137.9"/>
      <polygon class="cls-4" points="144.96 152.27 152.46 148.27 152.2 146.75 144.7 150.74 144.96 152.27"/>
      <path class="cls-4" d="m54.12,184.44h0c-.2,0-.58.05-1.21.39-.94.5-1.72,1.24-2.4,2.27-.74,1.12-1.25,2.48-1.53,4.04-.29,1.64-.27,3.47.07,5.45.41,2.4,1.02,3.71,1.45,4.38.39.6.78.95,1.15,1.05.08.02.17.03.26.03.36,0,.83-.15,1.37-.44.81-.43,1.47-.99,2.04-1.73.69-.9,1.28-1.9,1.76-2.99l.35-.8c-.68-1.7-1.21-3.62-1.58-5.81-.32-1.88-.47-3.72-.47-5.51h0c-.41-.21-.82-.32-1.26-.34Z"/>
      <polygon class="cls-4" points="193.3 110.49 196.62 116.78 195.36 109.39 193.3 110.49"/>
      <path class="cls-2" d="m77.42,173.5c-.86-1.38-1.89-2.24-3.1-2.58s-2.53-.14-3.96.63c-1.43.76-2.59,1.88-3.49,3.34-.9,1.47-1.48,3.19-1.76,5.17-.27,1.98-.21,4.14.19,6.49.4,2.35,1.03,4.25,1.88,5.69s1.89,2.36,3.1,2.75c1.22.39,2.54.21,3.97-.56,1.43-.76,2.59-1.9,3.48-3.41s1.47-3.29,1.75-5.34c.28-2.04.21-4.24-.19-6.59-.4-2.35-1.03-4.21-1.89-5.59Z"/>
      <path class="cls-2" d="m103.35,159.68c-.86-1.38-1.89-2.24-3.1-2.58s-2.53-.14-3.96.63c-1.43.76-2.6,1.88-3.49,3.34-.9,1.47-1.48,3.19-1.76,5.17-.27,1.98-.21,4.14.19,6.49.4,2.35,1.03,4.25,1.88,5.69.86,1.44,1.89,2.36,3.11,2.75,1.21.39,2.54.21,3.97-.56,1.43-.76,2.59-1.9,3.48-3.41s1.47-3.29,1.75-5.34c.28-2.04.21-4.24-.19-6.59-.4-2.35-1.03-4.21-1.89-5.59Z"/>
      <path class="cls-2" d="m124.58,144.08c-1.16-.21-2.73.22-4.74,1.28l-3.28,1.75,1.84,10.84,3.47-1.85c1.98-1.05,3.37-2.31,4.18-3.79.81-1.47,1.06-3.16.73-5.06-.32-1.9-1.06-2.96-2.22-3.17Z"/>
      <path class="cls-2" d="m167.88,129.3c.82-1.41,1.08-2.99.79-4.75-.3-1.78-1-2.77-2.1-2.95-1.09-.18-2.58.23-4.45,1.23l-3.75,2,1.72,10.08,3.74-2c1.87-1,3.22-2.2,4.04-3.61Z"/>
      <path class="cls-2" d="m185.61,115.98c-.72-1.64-1.45-3.23-2.19-4.75l-.16.08c-.06,1.98-.15,4-.26,6.08-.11,2.07-.23,4.08-.36,6.03l-.25,4.08,6.88-3.66-1.47-3.15c-.73-1.49-1.46-3.06-2.18-4.7Z"/>
      <path class="cls-2" d="m239.82,86.94c-.86-1.38-1.89-2.24-3.1-2.58-1.21-.35-2.53-.14-3.96.63-1.43.76-2.59,1.88-3.49,3.34-.9,1.47-1.48,3.19-1.76,5.17-.27,1.98-.21,4.14.19,6.49.4,2.35,1.03,4.25,1.88,5.69.85,1.44,1.89,2.36,3.1,2.75,1.21.39,2.54.21,3.97-.56s2.59-1.9,3.48-3.41c.89-1.51,1.47-3.29,1.75-5.34.28-2.04.21-4.24-.18-6.59-.4-2.35-1.03-4.21-1.89-5.59Z"/>
      <path class="cls-2" d="m278,95.37l-6.86-40.37-12.08,6.44,2.13,12.51-8.08-9.34-10.66,5.68.91,5.33c-8.43-4.6-18.8,2.44-22.61,10.2l-.62-3.63-6.4,3.41h0s-26.2,13.97-26.2,13.97h0s-11.68,6.23-11.68,6.23l-.82,8.65c-7.47-7.81-19.83,3.2-27.24,6.3h0s-19.89,10.6-19.89,10.6l.52,3.08c-6.81-1.57-16.47,5.92-22.44,8.6l.91,5.33c-10.28-5.29-21.97,4.93-24.45,14.8-8.15-6.3-19.63.65-23.8,8.63-15.46-3.34-25.41,16.13-22.49,29.34,1.74,18.2,22.83,18.42,29.99,3.63,10.02,2.59,19.62-6.67,21.96-15.9,8.35,6.62,20.23-.77,24.12-9.17l.63,3.69,12.39-6.61-2-11.73c3.53-1.75,6.84-4.04,9.17-7.16l2.35,13.81,24.76-13.19h0s7.53-4.01,7.53-4.01l-1.84-10.84c.34.71,7.35,7.57,6.22,8.51,2.45-1.31,11.45-6.1,13.73-7.32l-.25-.28.57-9.13,4.25-2.26,3.46,7.4,12.51-6.67h0c5.37-2.86,15.85-8.44,21.31-11.36l-.92-5.4c8.45,4.74,18.89-2.34,22.61-10.19l.63,3.69,12.12-6.46-2.13-12.54,8.03,9.4,10.68-5.69ZM60.66,206.56c-27,24.63-28.61-39.26-1.35-30.69l-2.29,5.79c-20.34-5.13-10.87,41.78,3.34,16.61l3.78,2.46c-.88,2.1-2.04,4.13-3.48,5.82Zm24.47-20.46c-6.39,24.34-30.67,17.93-25.68-6.41,6.54-23.83,30.66-18.04,25.68,6.41Zm22.43-5.46c-12.84,16.87-25.99,1.11-22.16-14.78,1.24-9.51,14.47-21.48,22.55-11.99,5.03,7.1,4.78,19.65-.38,26.77Zm24.45-29.43c-1.79,5.88-7.37,9.4-12.71,11.95l2,11.73-5.77,3.08c-1.38-8.11-4.25-24.98-5.62-33.06,10.83-6.56,25.7-14.05,22.11,6.29Zm5.44,15.08c-1.5-8.84-4.11-24.19-5.62-33.06l16.58-8.84,1.13-.6.94,5.53-1.13.6-10.81,5.76,1.3,7.63,10.1-5.38.94,5.53-10.1,5.38,1.5,8.83c.97-.52,11.78-6.28,12.36-6.59l.94,5.53c-.17.09-17.42,9.29-18.14,9.67Zm57.37-30.58l-3.46-7.4-9.33,4.97c-.09,1.45-.51,8.27-.59,9.56l-1.95,1.04h0c-.84.45-3.03,1.62-3.9,2.08h0s-2.57,1.37-2.57,1.37c-.36-.42-7.42-8.64-8.03-9.34l-4,2.13,2.12,12.49c-1.11.59-4.72,2.52-5.77,3.08-1.62-9.55-4-23.51-5.62-33.06,4-1.89,11.45-6.83,15.72-7.38,9.54-.83,8.38,14.25,3.01,18.7,1.38,1.51,4.3,4.72,5.7,6.25.92-9.64,2.15-22.51,3.07-32.23l6.48-3.45.35-.18c3.88,7.35,10.97,20.75,14.87,28.13-.98.52-5.03,2.68-6.08,3.24Zm14.47-37.74l-5.47,2.91,4.68,27.53c-.96.51-4.89,2.61-5.77,3.08-.46-2.72-4.13-24.25-4.68-27.53-1.28.68-6.96,3.71-8.11,4.32l-.94-5.53c1.84-.98,20.81-11.09,22.04-11.74l.94,5.53-2.69,1.43Zm7.99,25.76c-1.11-6.52-4.57-26.89-5.62-33.06,1.42-.76,4.34-2.31,5.77-3.08,1.38,8.11,4.25,24.99,5.62,33.06l-5.77,3.08Zm26.74-15.84c-12.96,17.03-26.17.78-22.09-15.06,1.34-9.4,14.51-21.12,22.47-11.71,5.03,7.1,4.78,19.65-.38,26.77Zm9.95-24.55c1.16,3.86,2.76,14.85,3.52,18.95l-5.5,2.93c-1.38-8.11-4.25-24.98-5.62-33.06l5.89-3.14c3.21,3.7,13,14.8,15.52,18.73l.19-.1c-2.12-6.48-3.87-17.5-4.99-24.34l5.46-2.91,5.62,33.06-5.89,3.14c-3.17-3.7-12.89-14.89-15.44-18.77l-.19.1c.43,1.72.91,3.52,1.43,5.42Z"/>
      <path class="cls-3" d="m60.36,198.28c-.25.57-.54,1.11-.84,1.64-.41.73-.86,1.43-1.36,2.09-.87,1.13-1.93,2.03-3.18,2.69-1.51.8-2.91,1.05-4.19.73-1.29-.32-2.38-1.17-3.29-2.55-.9-1.39-1.56-3.28-1.97-5.69-.4-2.38-.43-4.59-.06-6.63.36-2.04,1.04-3.82,2.05-5.35,1-1.52,2.23-2.67,3.69-3.45,1.09-.58,2.12-.85,3.07-.81.46.02.9.09,1.34.2.48.12.95.3,1.4.53l2.29-5.79c-.64-.37-1.37-.64-2.17-.82-.58-.13-1.2-.23-1.87-.26-1.59-.08-3.3.38-5.15,1.36-1.82.97-3.48,2.28-4.97,3.92s-2.73,3.53-3.71,5.68c-.98,2.15-1.64,4.47-1.98,6.97-.34,2.5-.28,5.12.19,7.86.47,2.74,1.22,4.98,2.27,6.72,1.05,1.75,2.3,3.02,3.76,3.83,1.46.81,3.04,1.16,4.75,1.05,1.71-.12,3.47-.66,5.3-1.63,1.9-1.01,3.54-2.34,4.94-3.97.84-.99,1.59-2.1,2.26-3.31.44-.79.85-1.62,1.22-2.51l-3.78-2.46Z"/>
      <path class="cls-3" d="m85.19,175.95c-.61-3.57-1.67-6.32-3.19-8.25-.14-.17-.28-.34-.42-.5-1.43-1.62-3.13-2.59-5.09-2.89-2.15-.33-4.52.2-7.09,1.57-2.55,1.36-4.68,3.22-6.39,5.59-.42.58-.8,1.18-1.16,1.81-1.1,1.93-1.9,4.06-2.4,6.41-.45,2.1-.58,4.32-.45,6.63.06,1.11.17,2.23.37,3.39.28,1.66.67,3.15,1.15,4.47.56,1.54,1.24,2.86,2.07,3.94,1.41,1.85,3.1,2.99,5.06,3.43.16.04.33.08.49.1,2.17.35,4.53-.15,7.08-1.51,2.57-1.37,4.71-3.26,6.39-5.67,1.69-2.41,2.86-5.2,3.51-8.37.03-.13.04-.26.06-.39.58-3.06.59-6.31,0-9.76Zm-5.7,9.73c-.28,2.04-.86,3.83-1.75,5.34s-2.05,2.65-3.48,3.41c-1.43.76-2.75.95-3.97.56-1.21-.39-2.25-1.31-3.1-2.75s-1.48-3.34-1.88-5.69c-.4-2.35-.46-4.51-.19-6.49.27-1.98.86-3.7,1.76-5.17.9-1.47,2.06-2.58,3.49-3.34,1.43-.76,2.75-.97,3.96-.63s2.24,1.21,3.1,2.58c.86,1.37,1.49,3.24,1.89,5.59.4,2.35.46,4.55.19,6.59Z"/>
      <path class="cls-3" d="m111.13,162.12c-.61-3.57-1.67-6.32-3.19-8.25-.05-.06-.1-.12-.15-.18-1.49-1.82-3.27-2.89-5.36-3.21-2.15-.33-4.52.2-7.09,1.57-2.55,1.36-4.68,3.22-6.39,5.59-1.71,2.37-2.89,5.11-3.56,8.22-.03.13-.04.26-.06.39-.59,3-.6,6.21-.02,9.63.61,3.6,1.68,6.4,3.22,8.41.13.17.27.33.41.49,1.45,1.7,3.16,2.72,5.15,3.04,2.17.35,4.53-.15,7.08-1.51,2.57-1.37,4.71-3.26,6.4-5.67,1.64-2.33,2.77-5.03,3.44-8.08.02-.1.05-.19.07-.29.65-3.17.67-6.55.06-10.15Zm-5.7,9.73c-.28,2.04-.86,3.83-1.75,5.34s-2.05,2.65-3.48,3.41c-1.43.76-2.75.95-3.97.56-1.21-.39-2.25-1.31-3.11-2.75-.86-1.44-1.48-3.34-1.88-5.69-.4-2.35-.46-4.51-.19-6.49.27-1.98.86-3.7,1.76-5.17.9-1.47,2.06-2.58,3.49-3.34,1.43-.76,2.75-.97,3.96-.63s2.24,1.21,3.1,2.58c.86,1.37,1.49,3.24,1.89,5.59.4,2.35.46,4.55.19,6.59Z"/>
      <path class="cls-3" d="m132.46,144.23c-.45-2.62-1.3-4.41-2.55-5.38-.26-.2-.54-.36-.83-.51-1.09-.57-2.34-.76-3.78-.56-1.82.25-3.79.95-5.92,2.09l-9.48,5.05,1.25,7.36,3.46,20.33.91,5.36,5.77-3.08-2-11.73,3.86-2.06c2.08-1.11,3.89-2.5,5.44-4.16,1.22-1.32,2.18-2.8,2.89-4.42.19-.43.37-.86.52-1.31.73-2.16.88-4.48.45-6.98Zm-6.39,8.08c-.81,1.47-2.21,2.73-4.18,3.79l-3.47,1.85-1.84-10.84,3.28-1.75c2-1.07,3.58-1.5,4.74-1.28,1.16.21,1.9,1.27,2.22,3.17.32,1.9.08,3.59-.73,5.06Z"/>
      <polygon class="cls-3" points="154.64 151.1 153.08 151.93 142.28 157.69 140.77 148.85 150.87 143.47 149.93 137.94 139.83 143.32 138.53 135.69 149.34 129.93 150.47 129.33 149.53 123.8 148.4 124.4 131.82 133.24 132.34 136.31 135.16 152.89 137.44 166.3 154.02 157.46 155.58 156.63 154.64 151.1"/>
      <path class="cls-3" d="m198.53,127.98l-8.36-15.82-4.13-7.82-.35.18-6.48,3.45-1.3,13.62-.78,8.22-.54,5.64-.45,4.75-3.24-3.55-2.46-2.7s.1-.09.15-.14c1.34-1.42,2.34-3.04,3.04-4.83.09-.23.19-.45.27-.69.69-2.05.83-4.28.43-6.69,0-.03,0-.05,0-.08-.43-2.53-1.25-4.27-2.46-5.23-1.21-.96-2.69-1.31-4.43-1.04-1.74.26-3.64.94-5.69,2.04l-8.9,4.74-1.13.6,1.56,9.19,2.5,14.69,1.56,9.19,1.56-.83,4.22-2.25-2.12-12.49,4-2.13,7.01,8.16,1.02,1.19,2.57-1.37h0s2.56-1.37,2.56-1.37l1.34-.71h0s1.95-1.04,1.95-1.04l.12-1.94.47-7.62,9.33-4.97,3.46,7.4,4.61-2.46,1.48-.79-2.37-4.49Zm-38.43,6.93l-1.72-10.08,3.75-2c1.87-1,3.35-1.41,4.45-1.23,1.09.18,1.79,1.16,2.1,2.95.3,1.76.04,3.34-.79,4.75-.82,1.41-2.17,2.62-4.04,3.61l-3.74,2Zm22.3-7.41l.25-4.08c.12-1.95.24-3.96.36-6.03.12-2.07.2-4.1.26-6.08l.16-.08c.74,1.52,1.47,3.1,2.19,4.75.72,1.64,1.45,3.21,2.18,4.7l1.47,3.15-6.88,3.66Z"/>
      <polygon class="cls-3" points="211.03 91.02 208.35 92.45 189.17 102.67 189 102.76 189.94 108.29 191.65 107.38 198.05 103.97 201.94 126.85 202.73 131.5 204.03 130.8 208.51 128.42 203.82 100.89 209.29 97.98 211.97 96.55 211.03 91.02"/>
      <polygon class="cls-3" points="218.31 92.79 217.43 87.61 214.35 89.25 211.66 90.69 213.22 99.87 217.28 123.74 223.05 120.67 221.77 113.13 218.31 92.79"/>
      <path class="cls-3" d="m247.6,89.39c-.61-3.57-1.67-6.32-3.19-8.25-.05-.06-.1-.12-.15-.18-1.49-1.82-3.27-2.89-5.36-3.21-2.15-.33-4.52.19-7.09,1.57-2.55,1.36-4.68,3.22-6.39,5.59-1.66,2.3-2.81,4.95-3.48,7.94-.02.1-.05.19-.07.28-.66,3.11-.69,6.45-.08,10.02.61,3.6,1.68,6.4,3.22,8.41.05.07.1.12.15.19,1.5,1.89,3.3,3.01,5.4,3.35,2.17.35,4.53-.15,7.08-1.51,2.58-1.37,4.71-3.26,6.4-5.67,1.64-2.33,2.77-5.03,3.44-8.08.02-.1.05-.19.07-.29.65-3.17.67-6.55.06-10.15Zm-5.7,9.73c-.28,2.04-.86,3.83-1.75,5.34-.89,1.51-2.05,2.65-3.48,3.41s-2.75.95-3.97.56c-1.21-.39-2.25-1.31-3.1-2.75-.86-1.44-1.48-3.34-1.88-5.69-.4-2.35-.46-4.51-.19-6.49.27-1.98.86-3.7,1.76-5.17.9-1.47,2.06-2.58,3.49-3.34,1.43-.76,2.75-.97,3.96-.63,1.21.35,2.24,1.21,3.1,2.58.86,1.37,1.49,3.24,1.89,5.59.4,2.35.46,4.55.18,6.59Z"/>
      <path class="cls-3" d="m256.87,83.38l11.31,13.24,5.89-3.14-5.62-33.06-5.46,2.91,2.25,13.21c.32,1.87.74,3.79,1.28,5.74s1.02,3.75,1.47,5.39l-.19.1-4.14-5.58-11.38-13.15-5.89,3.14,1.25,7.36,3.46,20.33.91,5.37,5.5-2.93-2.25-13.25c-.32-1.9-.75-3.8-1.27-5.7-.52-1.89-1-3.7-1.43-5.42l.19-.1,4.13,5.53Z"/>
    </g>
    <text class="cls-1" transform="translate(159.68 212.88) rotate(-24.78)"><tspan x="0" y="0" xml:space="preserve">李   雨栓</tspan></text>
  </g>
</svg>