<?xml version="1.0" encoding="UTF-8"?>
<svg id="_图层_2" data-name="图层 2" xmlns="http://www.w3.org/2000/svg" viewBox="0 0 188 183">
  <defs>
    <style>
      .cls-1 {
        fill: #ffda02;
      }

      .cls-1, .cls-2 {
        stroke-width: 0px;
      }
    </style>
  </defs>
  <g id="_borad_arcana" data-name="【borad】arcana">
    <g id="_text_MAX" data-name="【text】MAX">
      <polygon class="cls-2" points="139 0 158 4 146.19 58.07 188 100 143 122 141 119 142 123 105 140 98 128 96 129 98 144 65 158 64 160 42 169 12 183 0 84 27.65 68.35 27.61 67.96 139 0"/>
      <path class="cls-1" d="m139,60l4-47-18,10-1,19c-1.48-2.06-10-14-10-14l-17,10,21,30-1.13,29.27-26.87-56.27-20,12v55l-12-48-23,12s2.95,33.36,3,36l-12-31-22,11,17,80,15-8-5-25,9,23,17-8-1-25,4,22,28.47-12.28-1.32-19.42,11.85-7.3,7,14,26-14,2-20,8,14,20-9-23-33Zm-47.04,33.03l-6.26,7.49-2.13-9.53-9.06-3.64,8.4-4.97.67-9.74,7.33,6.45,9.47-2.38-3.87,8.96,5.19,8.27-9.72-.91Z"/>
    </g>
  </g>
</svg>