<?xml version="1.0" encoding="UTF-8"?>
<svg id="_图层_2" data-name="图层 2" xmlns="http://www.w3.org/2000/svg" viewBox="0 0 97.85 57.12">
  <defs>
    <style>
      .cls-1, .cls-2, .cls-3 {
        stroke-width: 0px;
      }

      .cls-2 {
        fill: #b3b3b3;
      }

      .cls-3 {
        fill: #ccc;
      }
    </style>
  </defs>
  <g id="mask">
    <g>
      <path class="cls-3" d="m67.05,26.4c10.97,0,24.87,1.77,29.93,2.08.77.05,1.15.95.64,1.53-4.18,4.74-17.68,19.92-21.8,22.72-3.82,2.6-14.43,3.15-18.86,3.26-1.2.03-2.35-.38-3.28-1.13-1.55-1.25-4.34-3.09-7.48-3.22-5.48-.24-15.36,5.49-15.36,5.49h0s-4.35-8.74-8.23-12.62c-3.01-3.01-7.58-2.92-10.14-2.57-1.25.17-2.48-.37-3.21-1.4-2.03-2.85-5.9-8.53-7.49-12.49C-.05,23.49.95,5.4.12,1.16,0,.51.58-.09,1.22.06c3.87.93,14.81,7.13,24.14,12.07,10.78,5.71,15,13.1,15.78,14.57l25.91-.31Z"/>
      <path class="cls-1" d="m64.91,49.13c.7-.52,1.55-.79,2.42-.79h5.2l1.62-4.05c.35-.87,1.19-1.44,2.12-1.44h2.84v-4.18l4.39-3.5-8.78-2.19-3.09-.77c-.81-.2-1.46-.81-1.73-1.6l-.67-2.02-3.44,2.42c-.62.43-1.35.68-2.1.7l-4.3.12c-1.45.04-2.84.55-3.97,1.45l-9.23,7.38s2.19,0,3.29,1.1,0,4.39,0,4.39c0,0,4.41-.02,6.7.32.71.11,1.26.68,1.36,1.39l.9,6.47,6.46-5.19Z"/>
      <g>
        <path class="cls-3" d="m12.36,41.89c2.57-.35,7.13-.44,10.14,2.57,3.37,3.37,7.09,10.23,8.01,12.02l-6.14-44.06-13.64,29.28c.51.19,1.07.26,1.63.19Z"/>
        <path class="cls-2" d="m30.84,57.12s-.18-.41-.32-.68l-6.26-35.53-13.52,20.79c-.63-.23-1.18-.64-1.58-1.21-2.03-2.85-5.9-8.53-7.49-12.49C-.16,23.45.84,5.36.02,1.12-.11.47.47-.13,1.11.02c3.87.93,15.22,6.43,24.14,12.07,10.7,6.77,14.29,15.23,15.08,16.7l-9.49,28.32Z"/>
      </g>
      <path class="cls-1" d="m30.84,36.27s0-5.49-2.19-9.87c-1.74-3.49-6.26-7.67-8.04-9.24-.47-.41-.74-1-.74-1.63v-1.55l-2.09.22c-.74.08-1.47-.25-1.91-.86l-4.78-6.69-4.39,7.68s-5.37,1.7-4.39,2.19c2.19,1.1,3.29,2.19,3.29,2.19l1.64,3.27c.36.72.45,1.54.26,2.33l-.79,3.18h1.12c.66,0,1.25.37,1.55.96l2.36,4.72c.3.59.45,1.25.45,1.91v4.48s4.39-4.39,5.49-4.39,6.58,4.39,6.58,4.39l.73-2.91c.21-.83,1.03-1.35,1.87-1.18l3.99.8Z"/>
    </g>
  </g>
</svg>