<?xml version="1.0" encoding="UTF-8"?>
<svg id="_图层_2" data-name="图层 2" xmlns="http://www.w3.org/2000/svg" viewBox="0 0 195.86 97.52">
  <defs>
    <style>
      .cls-1 {
        fill: #fefefe;
      }

      .cls-1, .cls-2, .cls-3, .cls-4, .cls-5 {
        stroke-width: 0px;
      }

      .cls-2 {
        fill: #aeaeae;
      }

      .cls-3 {
        fill: #f4f4f4;
      }

      .cls-4 {
        fill: #131313;
      }

      .cls-5 {
        fill: #adadad;
      }
    </style>
  </defs>
  <g id="_图层_40" data-name="图层 40">
    <g>
      <path class="cls-1" d="m156.96,71.09c-4.57,3.02-9.06,6.2-13.79,8.96-1.17.68-3.55.63-4.67-.13-6.2-4.22-12.62-4.38-19.39-1.84-9.38,3.52-16.95,9.12-21.58,19.44-4.73-10.53-12.67-16.38-22.4-19.94-6.39-2.34-12.58-1.97-18.49,1.97-1.2.8-3.72.8-5.03.07-15.88-8.75-28.17-21.16-36.32-37.35C10.6,32.93,6.42,23.3,2.63,13.56.93,9.18.77,4.21,0,0c24.8,11.64,51.37,16.77,77.57,23.2,5.87,1.44,11.35,4.45,17.06,6.59,1.52.57,3.81,1.41,4.8.74,10.45-7.18,22.72-8.05,34.56-10.43-4.48,1.67-8.9,3.53-13.45,4.98-14,4.46-19.67,11.61-20.56,26.22-.16,2.65-.6,5.29-.62,7.93-.08,9.04-.03,18.09-.03,27.13,5.47-8.32,7.76-18.86,18.07-23.16-1.33-2.04-2.34-3.59-3.35-5.14,3.73,1.85,9.37-.42,11.05,5.48,5.64-4.54,14.48-2.09,16.65,4.34.81,2.41,1.56,4.85,2.33,7.28,4.29-1.36,8.59-2.72,12.88-4.08Zm-123.21-16.41c6.54-2.73,8.67,3.17,11.68,5.89,3.32,3,5.29,7.5,7.88,11.4,3.76-10.3,11.05-13.68,17.41-9.85,5.27-2.05,9.49-3.69,13.95-5.43-1.95-3.33-3.26-6.74-5.56-9.25-5.2-5.68-10.63-11.2-16.46-16.21-3.63-3.12-8.16-5.2-12.39-7.81-.08,4.91-4.15,3.02-7.7,2.41-6.84-1.18-13.67-2.35-20.75-3.57,6.29,10.87,6.33,12.76,1.07,16.33,2.9,1.59,6.54,2.8,9.05,5.19,2.87,2.73,4.8,6.5,1.81,10.9Zm26.4-31.47c2.98,2.73,6.04,5.39,8.92,8.22,2.59,2.54,5.31,5.05,7.42,7.97,4.48,6.21,8.59,12.69,13.09,19.4.19-2.66.35-4.95.52-7.39,1.34.08,2.47.15,3.65.22-1.06-15.12-1.21-22.05-33.6-28.42Z"/>
      <path class="cls-5" d="m114.05,58.07c1.01,1.55,2.02,3.09,3.35,5.14-10.31,4.3-12.61,14.84-18.07,23.16,0-9.04-.05-18.09.03-27.13.02-2.65.46-5.29.62-7.93.89-14.61,6.56-21.76,20.56-26.22,4.55-1.45,8.97-3.31,13.45-4.98,11-3.02,22.06-5.86,32.99-9.13,9.41-2.82,18.66-6.14,28.87-9.53-6.19,26.77-17.22,51.06-38.89,69.65-4.29,1.36-8.59,2.72-12.88,4.08,1.03-7.55,5.23-13.16,11.13-17.55,2.19-1.63,4.89-2.58,7.52-3.92-2.43-3.19-.19-6.94,2.63-9.59,2.58-2.42,6.39-3.54,9.5-5.15-4.53-1.31-5.52-4.23-2.84-8.76,1.18-2,1.65-4.42,2.66-7.27-7.12,1.15-13.57,1.82-19.83,3.32-4.74,1.13-7.7.52-8.14-4.63-1.99,2.5-3.92,4.91-5.84,7.32-5.79-3.23-16.47,3.63-17.85,11.46-2.95,4.45-6.01,8.83-8.75,13.41-.64,1.08-.18,2.82-.23,4.25Z"/>
      <path class="cls-4" d="m33.75,54.68c2.99-4.4,1.05-8.17-1.81-10.9-2.51-2.39-6.15-3.59-9.05-5.19,5.25-3.57,5.21-5.46-1.07-16.33,7.08,1.22,13.91,2.39,20.75,3.57,3.54.61,7.61,2.5,7.7-2.41,4.23,2.61,8.76,4.68,12.39,7.81,5.83,5.01,11.26,10.54,16.46,16.21,2.3,2.51,3.61,5.92,5.56,9.25-4.46,1.74-8.69,3.38-13.95,5.43-6.36-3.84-13.65-.45-17.41,9.85-2.59-3.9-4.56-8.4-7.88-11.4-3.01-2.72-5.14-8.62-11.68-5.89Z"/>
      <path class="cls-4" d="m140.88,28.94c1.92-2.41,3.85-4.82,5.84-7.32.44,5.14,3.4,5.76,8.14,4.63,6.26-1.49,12.72-2.17,19.83-3.32-1.01,2.85-1.48,5.27-2.66,7.27-2.68,4.53-1.69,7.45,2.84,8.76-3.11,1.61-6.92,2.73-9.5,5.15-2.82,2.65-5.06,6.4-2.63,9.59-2.63,1.34-5.33,2.29-7.52,3.92-5.9,4.39-10.1,10-11.13,17.55-.78-2.43-1.52-4.86-2.33-7.28-2.16-6.43-11.01-8.88-16.65-4.34-1.67-5.9-7.32-3.63-11.05-5.48.05-1.44-.41-3.17.23-4.25,2.74-4.58,5.8-8.96,8.75-13.41,5.06-5.21,10.64-9.61,17.85-11.46Z"/>
      <path class="cls-2" d="m60.15,23.21c32.39,6.37,32.55,13.31,33.6,28.42-1.18-.07-2.31-.14-3.65-.22-.17,2.44-.33,4.73-.52,7.39-4.5-6.72-8.61-13.19-13.09-19.4-2.11-2.92-4.83-5.43-7.42-7.97-2.88-2.83-5.94-5.49-8.92-8.22Z"/>
      <path class="cls-3" d="m140.88,28.94c-7.21,1.86-12.79,6.26-17.85,11.46,1.38-7.83,12.06-14.69,17.85-11.46Z"/>
    </g>
  </g>
</svg>