<?xml version="1.0" encoding="UTF-8"?>
<svg id="_图层_2" data-name="图层 2" xmlns="http://www.w3.org/2000/svg" viewBox="0 0 471.38 341.59">
  <defs>
    <style>
      .cls-1, .cls-2 {
        stroke-width: 0px;
      }

      .cls-2 {
        fill: #fff32d;
      }
    </style>
  </defs>
  <g id="rankup">
    <g>
      <path class="cls-2" d="m458.18,0l-74.74,28.99,2.96,19.58-51.7,20.22-6.53-20.14-129.37,41.94,8.77,27.05-9.2,4.1-.7-5.23-95.98,37.54,1.56,11.63-31.4,6.34c-4.73-1.56-9.67-2.1-14.59-1.56-1.39.15-2.83.38-4.27.67-3.41.69-6.92,1.75-10.73,3.24L0,190.89l20.22,150.7,70.05-27.4,84.18-17-2.43-12.05,27.5-10.76-.7-5.23c7.92,4.04,16.98,5.24,26.29,3.36,3.61-.73,7.32-1.93,11.01-3.58,9.7-4.32,17.56-10.88,23.23-19.27l70.57-22.87.31,2.34,75.19-29.41.12.96,65.82-24.2-8.59-68.64-.67.25-3.94-108.09Z"/>
      <polygon class="cls-1" points="129.58 188.96 147.94 181.78 159.17 265.48 174.33 259.55 163.1 175.85 181.46 168.67 178.77 148.6 126.88 168.89 129.58 188.96"/>
      <path class="cls-1" d="m226.84,202.96c1.35,7.43,1.93,15.09.82,19.22-1.11,4.13-.75,4.45-4.47,6.11-3.77,1.68-4.59.99-6.9-1.77-2.32-2.76-3.05-9.32-4.34-16.47l-9.92-64.31-20,8.46,11.95,65.79c2.3,12.68,6.23,21.45,11.79,26.3,5.56,4.85,12.56,5.4,21,1.64,8.44-3.76,14.22-10,17.32-18.71,3.11-8.71,3.5-19.43,1.19-32.16l-11.94-65.72-17.21,8.49,10.71,63.13Z"/>
      <path class="cls-1" d="m382.75,137.26l-29.42-51.06-18.12,7.09,11.83,88.14-33.65-103.8-85.61,27.75,38.23,117.96,83.04-26.92.09.64,13.9-5.44-9.56-71.22,34.51,61.46,14.61-5.71-13.93-103.77-13.9,5.44,7.98,59.44Zm-74.2,61.07l-21.1-31.79-7.02,2.75,5.11,38.05-15.08,5.9-13.93-103.77,25.43-9.95c3.47-1.36,6.51-2.18,9.1-2.46,2.59-.28,5.14.31,7.64,1.78,2.52,1.46,4.68,3.78,6.48,6.96,1.8,3.18,3.07,7.56,3.82,13.14,1.03,7.67.86,14.31-.51,19.93-1.36,5.62-3.7,10.76-7.01,15.43l25.59,36.79-18.52,7.24Z"/>
      <polygon class="cls-1" points="436.37 33.13 408.94 43.77 422.43 132.96 439.78 126.58 436.37 33.13"/>
      <polygon class="cls-1" points="424.78 169.11 446.28 161.2 443.56 139.42 422.05 147.33 424.78 169.11"/>
      <path class="cls-1" d="m93.17,283.66l-23.02-33.09c3.31-4.67,5.64-9.81,7.01-15.43,1.37-5.62,1.53-12.26.51-19.93-.75-5.58-2.02-9.95-3.82-13.14-1.8-3.18-3.96-5.5-6.48-6.96-2.5-1.47-5.04-2.06-7.64-1.78-2.6.28-5.63,1.1-9.1,2.46l-25.43,9.95,13.93,103.77,15.08-5.9-5.11-38.05,7.02-2.75,21.1,31.79,16.83-6.58.38,1.87,52.93-10.69-19.2-95.08-52.93,10.69,17.94,88.85Zm-30.74-59.04c.39,2.93.46,5.36.21,7.29-.25,1.93-.81,3.83-1.67,5.68-.91,1.92-2.15,3.41-3.72,4.46-1.58,1.06-3.57,2.06-6,3.01l-4.66,1.82-3.75-27.95,5.49-2.15c1.82-.71,3.42-1.25,4.81-1.62s2.65-.39,3.78-.05c1.62.49,2.85,1.55,3.71,3.17.85,1.62,1.46,3.73,1.81,6.33Zm30.26-18.19l33.68-12.71,1.91,14.75-21.73,8.2,1.7,13.17,20.17-7.61,1.91,14.75-20.17,7.61,2.43,18.85,21.73-8.2,1.91,14.75-33.68,12.71-9.85-76.28Z"/>
      <path class="cls-1" d="m288.24,118.84c-1.13-.34-2.39-.33-3.78.05-1.39.37-2.99.91-4.81,1.62l-5.49,2.15,3.75,27.95,4.66-1.82c2.42-.95,4.42-1.95,6-3.01,1.58-1.06,2.82-2.54,3.72-4.46.86-1.85,1.42-3.74,1.67-5.68.25-1.93.18-4.36-.21-7.29-.35-2.6-.95-4.71-1.81-6.34-.85-1.62-2.09-2.68-3.71-3.17Z"/>
    </g>
  </g>
</svg>