<svg xmlns="http://www.w3.org/2000/svg" version="1.1" xmlns:xlink="http://www.w3.org/1999/xlink" width="1000" height="1000"><g clip-path="url(#SvgjsClipPath1099)"><rect width="1000" height="1000" fill="#000000"></rect><g transform="matrix(1.5231519090170593,0,0,1.5231519090170593,149.67506092607636,50)"><svg xmlns="http://www.w3.org/2000/svg" version="1.1" xmlns:xlink="http://www.w3.org/1999/xlink" width="460" height="590.88"><svg id="_图层_2" data-name="图层 2" xmlns="http://www.w3.org/2000/svg" viewBox="0 0 460 590.88">
  <defs>
    <style>
      .cls-1 {
        fill: #fd2d5c;
        stroke: #000;
        stroke-miterlimit: 10;
        stroke-width: 6px;
      }

      .cls-2, .cls-3 {
        stroke-width: 0px;
      }

      .cls-3 {
        fill: #fff;
      }
    </style>
  <clipPath id="SvgjsClipPath1099"><rect width="1000" height="1000" x="0" y="0" rx="500" ry="500"></rect></clipPath></defs>
  <g id="card">
    <polygon class="cls-2" points="0 50.25 295.34 0 460 478.25 162.7 590.88 0 50.25"></polygon>
    <polygon id="card01" class="cls-3" points="2 49.25 293 1.25 457 476.25 163 587.25 2 49.25"></polygon>
    <g id="card02">
      <polygon class="cls-1" points="39 81.25 290 34.25 429 447.25 178.5 540.75 39 81.25"></polygon>
    </g>
    <g id="GEEBAR">
      <g>
        <path class="cls-2" d="m251.35,544.69c-1.26,0-2.48-.52-3.35-1.44-.87-.91-1.33-2.16-1.26-3.42l.05-1.03c-.4.05-.98.12-1.65.12-4.27,0-8.05-2.53-11.24-7.51-6.71-10.5-4.83-27.13-4.09-31.97,2.06-13.52,6.05-21.12,12.2-23.22.77-.26,1.58-.4,2.42-.4h0c2.09,0,4.32.82,6.72,2.49.2-.15.41-.29.64-.42l30.39-16.84.14-.06c.86-.39,1.66-.58,2.47-.58.94,0,1.81.26,2.56.75,1.16-1.28,2.12-2.36,2.87-3.21,3.09-3.53,10.2-10.19,14.98-10.19.47,0,.93.06,1.37.17.42.11,1.03.33,1.64.79.99-1.18,1.86-2.2,2.48-2.93l.83-.97c1.24-1.48,2.82-3.06,5.91-3.06.77,0,1.64.09,2.91.32,1.29.23,2.4.73,3.34,1.37l4.21-4.68c.76-.97,1.95-1.58,3.25-1.58,3.17,0,7.58,5.08,8.29,6.01h.01s.29.48.29.48c.09-.78.3-1.47.63-2.09l1.86-5.58,3.8.84v-3.57c-1.27,0-2.12.59-2.35.77l.21-.17c5.06-4.1,9.73-6.32,13.87-6.6.27-.02.53-.03.78-.03,3.56,0,9.64,1.65,10.47,12.72.04.5.08.95.12,1.37.22,2.44.34,4.2-.12,9.29-.2,2.17-.29,4.67-.37,6.87-.06,1.69-.12,3.16-.21,4.39l14.86,6.86c2.36,1.09,3.67,3.63,3.19,6.18l-2.46,13.1c-.41,2.16-2.3,3.74-4.5,3.74h0c-.95,0-1.86-.29-2.64-.84l-6.81-4.8,2.66,10.43-4.63,8.81c-.77,1.47-2.28,2.38-3.93,2.38-1.89,0-3.58-1.2-4.2-2.99l-.92-2.66-2.28,4.52c-.76,1.51-2.28,2.44-3.96,2.44-1.85,0-3.52-1.16-4.16-2.9l-2.37-6.39c0,.1-.01.2-.02.3-.04.4-.5,3.93-4.96,3.93-2.28,0-6.17-.92-6.93-1.1l-2.47-.6-2.11-10.33c-.21.33-.42.67-.62,1-.12.2-.41.71-.84,1.45-4.27,7.46-9.58,16.47-12.75,20.01-.98,1.1-2.39,1.73-3.88,1.73-1.57,0-3-.67-3.97-1.79l-9.59,11.15c-1.08,1.26-2.65,1.98-4.31,1.98-.88,0-1.75-.21-2.53-.61-1.96-1-3.46-2.77-4.14-4.86l-.02-.07-17.79,14.76c-.9.75-2.04,1.16-3.21,1.16-.53,0-1.04-.08-1.52-.23-.5,1.89-1.91,3.47-3.82,4.12l-7.94,2.71c-.48.17-.99.25-1.5.25Zm24.98-34.96l8.56-3.92-.94-4.29-7.63,8.22Zm-31.22-11.29c-.54.69-1.36,2.86-1.74,9.5l12.03-10.01c.81-.67,1.83-1.05,2.88-1.05l-.1-.91c-.36.08-.73.11-1.11.11-.27,0-.55-.02-.81-.06l-3.35,3.46c-.87.9-2.09,1.41-3.34,1.41-1.59,0-3.05-.8-3.91-2.14-.2-.31-.32-.31-.48-.31-.02,0-.05,0-.07,0Zm56.56-1.11l2.68-1.95-.28-.97c-.73.89-1.56,1.9-2.4,2.92Zm-28.42-6.97l3.07-3.05c.85-.85,1.98-1.31,3.17-1.32l-1.42-2.54-4.91,6.24.09.68Z"></path>
        <path class="cls-3" d="m381.59,472.36l-16.58-7.65c-.56-.26-.87-.85-.77-1.46.39-2.37.34-8.24.77-13,.55-6.06.22-7.01,0-10-.22-2.99-1.06-9.39-7-9-5.85.39-12.02,6.15-12,6l-2,6c-1.11,1.48.87,6.64,1,7l8.75,24.31-17.75-29.31c-.35-.63-4.81-4.7-5-4l-5.62,6.24c-.22.84-.25,1.72-.08,2.57l4.7,20.19c0-4-3.38-3.79-4-4-.48-.17-.74-1.58-.71-2.05l.41-6.53c0-.16-.02-.32-.08-.46l-1.34-6.87s-1.6-3.8-4.66-4.34c-3.06-.54-3.66-.3-5.05,1.37-.89,1.07-5.47,6.39-9.11,11,.76-2.9,1.28-6.26.08-6.57-1.93-.51-7.91,3.74-12.33,8.79-2.25,2.57-5.97,6.64-9.08,10.01.79-2.6,2.65-7.25-.16-5.97-10.09,5.59-20.17,11.18-30.26,16.77-.52.29-.76.9-.59,1.46l1.2,3.83c-2.89-3.26-7.68-7.83-11.04-6.68-5.1,1.74-8.03,10.1-9.54,20.04-1.51,9.94-1.13,21.97,3.51,29.22,4.63,7.25,8.73,5.45,9.73,5.51,1,.05,4.15-2.79,4.15-2.79l-.41,8.07c-.02.44.41.76.82.62l7.94-2.71c.82-.28,1.35-1.07,1.3-1.94l-1.96-34.63c-.02-.44-.54-.67-.88-.38l-12.78,10.63.52,7.04c.04.5.54.84,1.02.67l4.15-1.42-1.41,7.94s-7.09,1.64-8.83-3.46c-1.74-5.1-1.49-10.09-1.28-14.08s.67-12.98,4.71-13.78c2.85-.56,4.35,1.05,4.98,2.05.22.35.71.39,1,.09l5.62-5.8.06.19c.25.79,1.11,1.2,1.88.89l3.99-1.6,3.28,29.9-1.67,2.33c-.59.82-.76,1.87-.46,2.84l2.4,7.67c.22.7,1.08.95,1.64.48l18.56-15.39c.51-.42.89-.97,1.11-1.59l2.23-6.24c.3-.85-.56-1.64-1.38-1.27l-16.99,7.79,1.49-8.15,8.58-9.25-.34-8.99c-.02-.46-.57-.67-.89-.35l-8.8,8.74-1.37-10.35,7.64-9.7,2.23-2.2,4.36,7.8c1.21,2.15,2.09,4.47,2.61,6.88l4.4,20.16-.69,2.64c-.21.81-.19,1.66.07,2.45l1.35,4.21c.35,1.09,1.12,2,2.15,2.52.67.34,1.49.15,1.98-.42l11.47-13.33s1.09-1.02,2.34-2.44l1.66,4.3c.31.79,1.45.98,2.02.33,3.9-4.37,12.33-19.52,13.15-20.88,1.99-3.27,4.21-6.26,6.11-8.79l3.45,16.9s6.87,1.66,6.97.67-5.15-19.58-5.06-20.58c.07-.75,2.04-3.58,3.02-4.94.23-.32.72-.25.86.12l11.3,30.49c.13.36.63.38.8.04l6.53-12.97,4.02,11.62c.13.36.63.4.81.06l3.91-7.45-4.87-19.07c-.03-.13.12-.23.23-.16l15.35,10.83c.35.24.83.05.91-.37l2.46-13.1c.14-.75-.24-1.49-.93-1.81Zm-88.19,15.14l.6-10.18s1.66-2.4,3.64-5.29c.38,1.1,1.47,4.05,2.81,5.82,1.14,1.51,2.45,2.15,3.17,2.41.35.13.61.39.7.72h0c-.72-1.09-1.88-.42-1.88-.42l-9.05,6.93Zm15.58,10.46c-1.1-.08-1.87.37-1.87.37l-11.49,8.36-1.38-6.56s7.62-9.38,9.1-11.06c1.17-1.34,1.6-4.81,1.37-6.8l4.4,15.12c.03.11.05.23.04.35l-.15.23Zm.29-23.68c-2.81.31.4-5.71.4-5.71,0,0,.45-3.59,2.86-5.08,2.41-1.49,3.89,1.64,3.89,1.64,0,0-.27,3.59-1.12,5.54-.98,2.24-3.22,3.3-6.03,3.61Zm14.47,8.24c-2.18,1.82-.93,1.02-5.22,5.2,0,0-.02.95-1.96-.34-1.94-1.3-.86-4.67,1.39-6.87,2.68-2.61,3.1-4.11,5.5-1.49,0,0,1.99,2.08.29,3.5Zm11.83-12.29s-.06.02-.06-.01l-1.55-9.43s.04-.05.06-.03l4.4,5.34s.01.03,0,.04l-2.85,4.09Zm21.52-17.11c-.05.51-.46.91-.97.95h-.14c-.57.05-1.09-.31-1.25-.86l-2.74-4.97c-.14-.47-.27-5.6,0-6l5-3c1,0,1-2,.26,4.71-.41,3.72,0,7.5-.16,9.16Z"></path>
      </g>
    </g>
    <g id="_text_XI" data-name="【text】XI">
      <g>
        <path class="cls-2" d="m150.1,60.93l-27.98-17.22c-.87-.53-.75-1.83.21-2.19l22.78-8.69c.39-.15.82-.09,1.16.15l1.21.88c1.75,1.27,3.25,2.37,4.55,3.33.76.56,1.84.09,1.95-.86.09-.82.19-1.69.25-2.3.05-.48.38-.88.83-1.03l14.01-4.67c.1-.03.19-.05.29-.06l15.09-1.16c.47-.04.93.2,1.16.62l7.24,12.67c.47.82-.12,1.84-1.07,1.84h-3.15c-.92,0-1.52.98-1.09,1.8l7.23,13.85c.12.23.31.42.54.53l4.02,2.01c.42.21.68.63.68,1.1v8.18c0,.62-.47,1.15-1.09,1.22l-21.15,2.49c-.14.02-.28.06-.41.12l-6.41,3.2c-.49.24-1.07.14-1.44-.26l-1.41-1.5s-.01-.01-.02-.02c-.72-.76-2-.32-2.1.72-.06.63-.11,1.25-.16,1.72s-.37.9-.84,1.05l-14.8,4.93c-.85.28-1.7-.41-1.61-1.29l2.11-20.01c.05-.47-.18-.93-.58-1.18Z"></path>
        <path class="cls-3" d="m192,61.25l-12-23h7l-4-7-13,1-12,4s-1,9-1,10c-.81-1.12-11.88-9.15-11.88-9.15l-16.12,6.15,26,16-2,19,9-3s1-11.02,1-12c.55,1.1,8,9,8,9l6-3-11-15,2.91-16h6.09l6,23-6,1,4,7,17-2v-4l-4-2Z"></path>
      </g>
    </g>
  </g>
</svg></svg></g></g></svg>